<svg width="68" height="68" viewBox="0 0 68 68" fill="none" xmlns="http://www.w3.org/2000/svg">
<g id="Frame" clip-path="url(#clip0_329_3640)">
<g id="Group">
<path id="Vector" d="M44.056 37.3288C40.5572 40.8276 35.2854 41.2289 32.2814 38.2248C29.2773 35.2207 29.6786 29.9491 33.1774 26.4503C35.8218 23.8059 39.478 22.9312 42.4032 23.9575C42.875 24.1231 43.3993 24.0016 43.7398 23.6351L59.8588 5.47226C61.2596 3.89386 63.7005 3.82106 65.1928 5.31346C66.685 6.80573 66.6124 9.24667 65.034 10.6475L46.871 26.7664C46.5045 27.1069 46.383 27.6312 46.5486 28.1031C47.575 31.0283 46.7004 34.6844 44.056 37.3288Z" fill="url(#paint0_linear_329_3640)"/>
<path id="Vector_2" d="M42.9798 36.2527C40.1729 39.0596 35.9438 39.3816 33.5341 36.9719C31.1243 34.5621 31.4463 30.3331 34.2533 27.5261C37.0602 24.7192 41.2893 24.3972 43.699 26.8069C46.1087 29.2167 45.7869 33.4456 42.9798 36.2527Z" fill="url(#paint1_linear_329_3640)"/>
<path id="Vector_3" d="M32.2812 38.2248C35.2854 41.2289 40.557 40.8276 44.0558 37.3288C46.4553 34.9293 47.3975 31.6968 46.7847 28.9332H31.3426C29.6647 32.1271 29.928 35.8716 32.2812 38.2248Z" fill="url(#paint2_linear_329_3640)"/>
<path id="Vector_4" d="M13.9997 22.6543C8.10901 22.6543 3.33301 27.4303 3.33301 33.3209C3.33301 39.2116 8.10901 43.9876 13.9997 43.9876C19.8903 43.9876 24.6663 39.2116 24.6663 33.3209C24.6663 27.4303 19.8903 22.6543 13.9997 22.6543ZM13.9997 40.3876C10.097 40.3876 6.93301 37.2236 6.93301 33.3209C6.93301 29.4183 10.097 26.2543 13.9997 26.2543C17.9023 26.2543 21.0663 29.4183 21.0663 33.3209C21.0663 37.2236 17.9023 40.3876 13.9997 40.3876Z" fill="url(#paint3_linear_329_3640)"/>
<path id="Vector_5" d="M14.0003 24.2543C8.99226 24.2543 4.93359 28.3129 4.93359 33.3209C4.93359 38.3289 8.99226 42.3876 14.0003 42.3876C19.0083 42.3876 23.0669 38.3289 23.0669 33.3209C23.0669 28.3129 19.0083 24.2543 14.0003 24.2543ZM14.0003 40.3876C10.0976 40.3876 6.93359 37.2236 6.93359 33.3209C6.93359 29.4183 10.0976 26.2543 14.0003 26.2543C17.9029 26.2543 21.0669 29.4183 21.0669 33.3209C21.0669 37.2236 17.9029 40.3876 14.0003 40.3876Z" fill="url(#paint4_linear_329_3640)"/>
<path id="Vector_6" d="M13.9997 22.6543C8.10901 22.6543 3.33301 27.4303 3.33301 33.3209C3.33301 39.2116 8.10901 43.9876 13.9997 43.9876C19.8903 43.9876 24.6663 39.2116 24.6663 33.3209C24.6663 27.4303 19.8903 22.6543 13.9997 22.6543ZM13.9997 40.3876C10.097 40.3876 6.93301 37.2236 6.93301 33.3209C6.93301 29.4183 10.097 26.2543 13.9997 26.2543C17.9023 26.2543 21.0663 29.4183 21.0663 33.3209C21.0663 37.2236 17.9023 40.3876 13.9997 40.3876Z" fill="url(#paint5_linear_329_3640)"/>
<path id="Vector_7" d="M53.0668 26.1209C47.7652 26.1209 43.4668 30.4193 43.4668 35.7209C43.4668 41.0225 47.7652 45.3209 53.0668 45.3209C58.3684 45.3209 62.6668 41.0225 62.6668 35.7209C62.6668 30.4193 58.3684 26.1209 53.0668 26.1209ZM53.0668 42.0809C49.5544 42.0809 46.7068 39.2333 46.7068 35.7209C46.7068 32.2085 49.5544 29.3609 53.0668 29.3609C56.5792 29.3609 59.4268 32.2085 59.4268 35.7209C59.4268 39.2333 56.5792 42.0809 53.0668 42.0809Z" fill="url(#paint6_linear_329_3640)"/>
<path id="Vector_8" d="M53.0663 27.5609C48.5591 27.5609 44.9062 31.2137 44.9062 35.7209C44.9062 40.2281 48.5591 43.8809 53.0663 43.8809C57.5735 43.8809 61.2263 40.2281 61.2263 35.7209C61.2263 31.2137 57.5735 27.5609 53.0663 27.5609ZM53.0663 42.0809C49.5539 42.0809 46.7063 39.2333 46.7063 35.7209C46.7063 32.2085 49.5539 29.3609 53.0663 29.3609C56.5787 29.3609 59.4263 32.2085 59.4263 35.7209C59.4263 39.2333 56.5787 42.0809 53.0663 42.0809Z" fill="url(#paint7_linear_329_3640)"/>
<path id="Vector_9" d="M53.0668 26.1209C47.7652 26.1209 43.4668 30.4193 43.4668 35.7209C43.4668 41.0225 47.7652 45.3209 53.0668 45.3209C58.3684 45.3209 62.6668 41.0225 62.6668 35.7209C62.6668 30.4193 58.3684 26.1209 53.0668 26.1209ZM53.0668 42.0809C49.5544 42.0809 46.7068 39.2333 46.7068 35.7209C46.7068 32.2085 49.5544 29.3609 53.0668 29.3609C56.5792 29.3609 59.4268 32.2085 59.4268 35.7209C59.4268 39.2333 56.5792 42.0809 53.0668 42.0809Z" fill="url(#paint8_linear_329_3640)"/>
<path id="Vector_10" d="M43.0397 36.2268C41.8196 37.4469 40.0764 37.682 39.1461 36.7519C38.2159 35.8217 38.4509 34.0784 39.6712 32.8583C40.8913 31.6381 42.6347 31.4031 43.5648 32.3332C44.4951 33.2633 44.26 35.0067 43.0397 36.2268Z" fill="url(#paint9_linear_329_3640)"/>
<path id="Vector_11" d="M39.6711 32.8583C38.451 34.0784 38.2159 35.8217 39.146 36.7519C40.0763 37.6821 41.8195 37.4471 43.0396 36.2268C43.2943 35.9731 43.5137 35.6863 43.6918 35.374L40.5239 32.2061C40.2116 32.3842 39.9248 32.6036 39.6711 32.8583Z" fill="url(#paint10_linear_329_3640)"/>
<path id="Vector_12" d="M38.6014 34.9137C38.3964 36.4343 39.4629 37.5007 40.9834 37.2957C42.504 37.0908 43.9029 35.6919 44.1078 34.1713C44.1522 33.842 44.1368 33.5341 44.0702 33.2557L38.892 33.954C38.7465 34.2609 38.6458 34.5844 38.6014 34.9137Z" fill="url(#paint11_linear_329_3640)"/>
<path id="Vector_13" d="M35.1438 41.4315C34.9674 40.8929 34.8661 40.3092 34.8554 39.6985C34.8073 36.9233 36.6498 34.6408 38.9709 34.6005C39.8525 34.5852 40.6761 34.896 41.3613 35.4391C41.7329 35.7336 42.261 35.7311 42.6097 35.4097C44.4161 33.7451 46.9254 33.3365 48.7117 34.5756C50.498 35.8147 50.9945 38.308 50.0681 40.5832C49.8893 41.0224 50.0718 41.5179 50.478 41.7628C51.2268 42.2144 51.8062 42.8768 52.1008 43.708C52.8762 45.8961 51.3838 48.4216 48.7676 49.3487C48.1917 49.5527 47.6096 49.6623 47.0433 49.6856C46.6144 49.7033 46.2657 50.0551 46.2897 50.4836C46.3004 50.6743 46.2929 50.8675 46.266 51.0617C45.9978 52.992 43.9096 54.2971 41.6016 53.9765L41.5728 53.9724C39.6958 53.7009 37.8013 54.326 36.4986 55.7043L29.8629 62.7252C29.5644 63.0411 29.0542 62.6927 29.2398 62.2996L33.3254 53.6523C34.1486 51.9099 34.1054 49.8581 33.1254 48.1988C33.093 48.144 33.0614 48.0881 33.0309 48.0316C31.9221 45.9821 32.4129 43.5689 34.1269 42.6416C34.2994 42.5483 34.4777 42.4736 34.6601 42.4168C35.0701 42.2892 35.2774 41.8395 35.1438 41.4315Z" fill="url(#paint12_linear_329_3640)"/>
<path id="Vector_14" d="M38.9706 34.6005C39.8522 34.5852 40.6758 34.896 41.361 35.4391C41.7326 35.7336 42.2607 35.7311 42.6094 35.4097C44.4001 33.7596 46.8809 33.3447 48.6641 34.5444L29.3549 62.7664C29.2229 62.6671 29.1503 62.4889 29.2397 62.2996L33.3253 53.6523C34.1485 51.9099 34.1053 49.8581 33.1254 48.1988C33.093 48.144 33.0614 48.0881 33.0309 48.0316C31.9221 45.9821 32.4129 43.5689 34.1269 42.6416C34.2994 42.5483 34.4777 42.4736 34.6601 42.4168C35.0699 42.2892 35.2771 41.8393 35.1435 41.4315C34.9671 40.8929 34.8658 40.3092 34.8551 39.6985C34.8069 36.9232 36.6495 34.6408 38.9706 34.6005Z" fill="url(#paint13_linear_329_3640)"/>
<path id="Vector_15" d="M46.2657 51.0616C46.2312 51.309 46.1657 51.5511 46.0709 51.7823L36.3906 52.4829L33.502 43.094C33.6898 42.9169 33.8998 42.7649 34.1268 42.6417C34.2993 42.5484 34.4776 42.4737 34.66 42.4169C35.0698 42.2893 35.277 41.8395 35.1434 41.4316C34.967 40.8931 34.8657 40.3093 34.855 39.6987C34.8069 36.9235 36.6494 34.6409 38.9705 34.6007C39.8521 34.5853 40.6757 34.8961 41.3609 35.4392C41.7325 35.7337 42.2606 35.7312 42.6093 35.4099C44.4157 33.7452 46.925 33.3367 48.7113 34.5757C50.4976 35.8148 50.9941 38.3081 50.0677 40.5833C49.8889 41.0225 50.0714 41.518 50.4776 41.7629C51.2264 42.2145 51.8058 42.8769 52.1004 43.7081C52.8758 45.8963 51.3834 48.4217 48.7672 49.3488C48.1913 49.5528 47.6092 49.6624 47.0429 49.6857C46.614 49.7035 46.2653 50.0552 46.2893 50.4837C46.3003 50.6767 46.2924 50.8702 46.2657 51.0616Z" fill="url(#paint14_linear_329_3640)"/>
<path id="Vector_16" d="M38.9702 34.6005C39.8518 34.5852 40.6754 34.896 41.3606 35.4391C41.7322 35.7336 42.2603 35.7311 42.609 35.4097C44.4154 33.7451 46.9247 33.3365 48.711 34.5756C50.4972 35.8147 50.9938 38.308 50.0674 40.5832C49.8886 41.0224 50.0711 41.5179 50.4772 41.7628C51.226 42.2144 51.8055 42.8768 52.1 43.708C52.3246 44.3417 52.3579 45.0037 52.2298 45.6471L40.4859 46.4971L37.0156 35.2177C37.5955 34.8357 38.2603 34.6128 38.9702 34.6005Z" fill="url(#paint15_linear_329_3640)"/>
<path id="Vector_17" d="M44.5816 40.5109L42.9277 35.1356C44.702 33.704 47.0276 33.4077 48.7112 34.5755C50.3721 35.7276 50.9172 37.964 50.2408 40.1013L44.5816 40.5109Z" fill="url(#paint16_linear_329_3640)"/>
<path id="Vector_18" d="M40.3999 34.5085C40.3999 40.1855 35.7978 44.7876 30.1209 44.7876C24.4439 44.7876 19.8418 40.1855 19.8418 34.5085C19.8418 28.8316 24.4439 20.9348 30.1209 20.9348C35.7978 20.9348 40.3999 28.8315 40.3999 34.5085Z" fill="url(#paint17_linear_329_3640)"/>
<path id="Vector_19" d="M19.8418 34.5085C19.8418 40.1855 24.4439 44.7876 30.1209 44.7876C35.7978 44.7876 40.4001 40.1855 40.4001 34.5085C40.4001 32.542 39.8475 30.3093 38.8897 28.2305H21.3522C20.3945 30.3092 19.8418 32.542 19.8418 34.5085Z" fill="url(#paint18_linear_329_3640)"/>
<path id="Vector_20" d="M35.4426 23.3157L20.5342 38.2241C22.0238 42.0645 25.754 44.7877 30.1207 44.7877C35.7978 44.7877 40.3998 40.1856 40.3998 34.5087C40.3998 30.7796 38.4142 26.0931 35.4426 23.3157Z" fill="url(#paint19_linear_329_3640)"/>
<path id="Vector_21" d="M30.121 41.8765C33.6386 41.8765 36.4901 39.025 36.4901 35.5075C36.4901 31.9899 33.6386 29.1384 30.121 29.1384C26.6035 29.1384 23.752 31.9899 23.752 35.5075C23.752 39.025 26.6035 41.8765 30.121 41.8765Z" fill="url(#paint20_linear_329_3640)"/>
<path id="Vector_22" d="M23.752 35.5075C23.752 39.0249 26.6034 41.8765 30.121 41.8765C33.6385 41.8765 36.4901 39.0249 36.4901 35.5075C36.4907 34.7678 36.3623 34.0337 36.1106 33.3381H24.1314C23.8797 34.0337 23.7512 34.7678 23.752 35.5075Z" fill="url(#paint21_linear_329_3640)"/>
<path id="Vector_23" d="M25.6172 40.0111C28.1044 42.4983 32.1372 42.4984 34.6244 40.0111C37.1117 37.5237 37.1116 33.4911 34.6244 31.0039C34.1018 30.4803 33.4919 30.0521 32.8221 29.7383L24.3516 38.2088C24.6653 38.8786 25.0936 39.4886 25.6172 40.0111Z" fill="url(#paint22_linear_329_3640)"/>
<path id="Vector_24" d="M12.4271 35.9601C13.6472 37.1803 15.3905 37.4153 16.3207 36.4852C17.2508 35.5551 17.0159 33.8117 15.7956 32.5916C14.5753 31.3715 12.8321 31.1364 11.902 32.0665C10.9717 32.9967 11.2068 34.74 12.4271 35.9601Z" fill="url(#paint23_linear_329_3640)"/>
<path id="Vector_25" d="M15.7961 32.5916C17.0162 33.8117 17.2513 35.5551 16.3211 36.4852C15.3909 37.4155 13.6477 37.1804 12.4275 35.9601C12.1728 35.7065 11.9535 35.4196 11.7754 35.1073L14.9433 31.9395C15.2555 32.1175 15.5424 32.3369 15.7961 32.5916Z" fill="url(#paint24_linear_329_3640)"/>
<path id="Vector_26" d="M16.8646 34.6471C17.0696 36.1676 16.0031 37.234 14.4826 37.0291C12.962 36.824 11.5631 35.4252 11.3582 33.9047C11.3138 33.5753 11.3292 33.2675 11.3958 32.9891L16.574 33.6873C16.7195 33.9943 16.8202 34.3177 16.8646 34.6471Z" fill="url(#paint25_linear_329_3640)"/>
<path id="Vector_27" d="M18.2601 30.6127C18.3935 31.7277 18.033 32.8903 17.1782 33.7451L16.4127 34.5105C15.5579 35.3653 14.3953 35.726 13.2803 35.5924C12.7138 35.5245 12.1471 35.7141 11.7437 36.1176C10.6647 37.1965 11.2838 39.0492 12.7955 39.2568C14.8507 39.5389 17.0095 38.8897 18.5907 37.3085L19.9763 35.9229C21.5575 34.3417 22.2067 32.1831 21.9246 30.1277C21.717 28.616 19.8645 27.9969 18.7854 29.0759C18.3817 29.4795 18.1922 30.0461 18.2601 30.6127Z" fill="url(#paint26_linear_329_3640)"/>
<path id="Vector_28" d="M18.2602 30.6128C18.3938 31.7279 18.0331 32.8904 17.1783 33.7452L16.4129 34.5107C15.5581 35.3655 14.3954 35.7261 13.2805 35.5925C12.7139 35.5247 12.1473 35.7143 11.7438 36.1177C11.2555 36.606 11.1161 37.2523 11.2485 37.8332C11.2977 37.8439 11.3477 37.8532 11.399 37.8603C13.4542 38.1424 15.613 37.4932 17.1942 35.912L18.5798 34.5264C20.161 32.9452 20.8102 30.7865 20.5281 28.7313C20.521 28.68 20.5118 28.63 20.501 28.5808C19.9201 28.4483 19.2738 28.588 18.7855 29.0761C18.3819 29.4795 18.1923 30.0461 18.2602 30.6128Z" fill="url(#paint27_linear_329_3640)"/>
<path id="Vector_29" d="M28.2999 41.3132C27.8943 41.2285 27.6087 40.8724 27.6094 40.4581V40.4504C27.6094 37.3229 25.074 34.7876 21.9466 34.7876C19.252 34.7876 16.9983 36.67 16.4258 39.1915C16.3472 39.5376 16.058 39.7929 15.7076 39.8497C12.9956 40.2895 10.9294 42.6552 10.9583 45.4981C10.9902 48.6263 13.6002 51.1591 16.7279 51.1009C17.351 51.0899 17.9681 50.9758 18.5539 50.7632C20.3467 50.1119 22.3394 50.4125 23.904 51.5036C24.8346 52.1525 25.9692 52.5289 27.1927 52.5173C30.1831 52.4888 32.6615 50.1009 32.7944 47.1135C32.921 44.2708 30.9504 41.8661 28.2999 41.3132Z" fill="url(#paint28_linear_329_3640)"/>
<path id="Vector_30" d="M28.2994 41.3132C27.8938 41.2285 27.6082 40.8724 27.6088 40.4581V40.4504C27.6088 37.7484 25.7163 35.4888 23.1846 34.9239V51.0731C23.4338 51.1999 23.674 51.3437 23.9035 51.5036C24.834 52.1525 25.9687 52.5289 27.1922 52.5173C30.1826 52.4888 32.661 50.1009 32.7939 47.1135C32.9204 44.2708 30.9499 41.8661 28.2994 41.3132Z" fill="url(#paint29_linear_329_3640)"/>
<path id="Vector_31" d="M10.9583 45.498C10.9901 48.6261 13.6001 51.1589 16.7279 51.1008C17.351 51.0898 17.968 50.9757 18.5539 50.7631C20.3467 50.1117 22.3393 50.4124 23.904 51.5035C24.8345 52.1524 25.9692 52.5288 27.1927 52.5172C30.1831 52.4887 32.6615 50.1008 32.7944 47.1133C32.8312 46.3182 32.6998 45.5242 32.4088 44.7833H10.9959C10.9685 45.0205 10.956 45.2592 10.9583 45.498Z" fill="url(#paint30_linear_329_3640)"/>
<path id="Vector_32" d="M27.7257 40.8976C27.5348 43.8029 25.1966 46.122 22.2833 46.2813C22.3148 46.0345 22.3306 45.7858 22.3305 45.5369C22.3305 42.3468 19.7441 39.7604 16.554 39.7604C16.3314 39.7604 16.1125 39.7729 15.8965 39.7976C16.1582 39.6941 16.3612 39.4727 16.4249 39.1913C16.9976 36.6703 19.2513 34.7876 21.9457 34.7876C25.073 34.7876 27.6086 37.3227 27.6086 40.4505V40.4581C27.6082 40.6124 27.6486 40.764 27.7257 40.8976Z" fill="url(#paint31_linear_329_3640)"/>
<path id="Vector_33" d="M32.0934 49.5868C31.0011 49.5004 29.8694 49.4548 28.7097 49.4548C25.3498 49.4548 22.2247 49.8361 19.6162 50.4905C21.1042 50.2588 22.6427 50.6244 23.9034 51.5035C24.8339 52.1524 25.9686 52.5288 27.1921 52.5172C29.2875 52.4973 31.1317 51.3185 32.0934 49.5868Z" fill="url(#paint32_linear_329_3640)"/>
<path id="Vector_34" d="M28.2995 41.3131C28.18 41.2884 28.0671 41.2387 27.9682 41.1672C27.8693 41.0956 27.7867 41.0039 27.7259 40.8981C27.5551 43.4965 25.6659 45.6263 23.1846 46.1603V51.0733C23.4339 51.2 23.6741 51.3438 23.9034 51.5039C24.8671 52.1763 26.0169 52.5307 27.1919 52.5175C30.1826 52.4888 32.661 50.1009 32.794 47.1137C32.9207 44.2705 30.9496 41.866 28.2995 41.3131Z" fill="url(#paint33_linear_329_3640)"/>
<path id="Vector_35" d="M53.9687 45.1257C57.4862 45.1257 60.3377 42.2742 60.3377 38.7567C60.3377 35.2391 57.4862 32.3876 53.9687 32.3876C50.4511 32.3876 47.5996 35.2391 47.5996 38.7567C47.5996 42.2742 50.4511 45.1257 53.9687 45.1257Z" fill="url(#paint34_linear_329_3640)"/>
<path id="Vector_36" d="M56.4993 34.9073L50.1207 41.286C49.7993 41.6073 49.2595 41.51 49.0636 41.0999C48.0987 39.0793 48.4527 36.5863 50.1263 34.9128C51.7989 33.2401 54.2927 32.8855 56.3132 33.8501C56.7233 34.0461 56.8208 34.586 56.4993 34.9073Z" fill="url(#paint35_linear_329_3640)"/>
<path id="Vector_37" d="M57.8137 42.6005C56.1403 44.274 53.6472 44.628 51.6267 43.6632C51.2165 43.4673 51.1191 42.9275 51.4405 42.6061L57.8192 36.2275C58.1405 35.9061 58.6805 36.0036 58.8763 36.4137C59.8409 38.4341 59.4864 40.9279 57.8137 42.6005Z" fill="url(#paint36_linear_329_3640)"/>
<path id="Vector_38" d="M52.2755 36.214C52.7442 36.6827 52.934 37.2525 52.6998 37.4868C52.4655 37.7211 51.8956 37.5312 51.427 37.0625C50.9583 36.5939 50.7684 36.024 51.0027 35.7897C51.237 35.5555 51.8068 35.7455 52.2755 36.214Z" fill="url(#paint37_linear_329_3640)"/>
<path id="Vector_39" d="M50.5697 38.3416C51.1846 38.5888 51.5829 39.0385 51.4591 39.346C51.3355 39.6535 50.7369 39.7023 50.1219 39.4549C49.507 39.2077 49.1089 38.758 49.2325 38.4505C49.3561 38.1431 49.9549 38.0943 50.5697 38.3416Z" fill="url(#paint38_linear_329_3640)"/>
<path id="Vector_40" d="M53.5542 35.3565C53.8014 35.9715 54.2511 36.3697 54.5586 36.246C54.866 36.1224 54.9148 35.5237 54.6675 34.9088C54.4203 34.2939 53.9706 33.8957 53.6631 34.0193C53.3558 34.1429 53.307 34.7416 53.5542 35.3565Z" fill="url(#paint39_linear_329_3640)"/>
<path id="Vector_41" d="M56.5118 40.4504C56.0432 39.9817 55.4733 39.7919 55.239 40.0261C55.0048 40.2604 55.1946 40.8303 55.6633 41.2989C56.132 41.7676 56.7018 41.9575 56.9361 41.7232C57.1704 41.4889 56.9804 40.9191 56.5118 40.4504Z" fill="url(#paint40_linear_329_3640)"/>
<path id="Vector_42" d="M54.3844 42.1565C54.1372 41.5416 53.6875 41.1433 53.38 41.2671C53.0725 41.3907 53.0237 41.9893 53.2711 42.6043C53.5183 43.2192 53.968 43.6173 54.2755 43.4937C54.5829 43.3701 54.6317 42.7713 54.3844 42.1565Z" fill="url(#paint41_linear_329_3640)"/>
<path id="Vector_43" d="M57.369 39.1715C56.7541 38.9243 56.3558 38.4745 56.4796 38.1671C56.6032 37.8596 57.2018 37.8108 57.8168 38.0581C58.4317 38.3053 58.8298 38.7551 58.7062 39.0625C58.5826 39.3699 57.984 39.4187 57.369 39.1715Z" fill="url(#paint42_linear_329_3640)"/>
<path id="Vector_44" d="M49.4651 34.2531C46.9779 36.7403 46.9777 40.7731 49.4651 43.2603C51.9524 45.7476 55.9851 45.7475 58.4723 43.2603C58.9958 42.7377 59.4241 42.1278 59.7379 41.458L51.2673 32.9875C50.5975 33.3013 49.9876 33.7295 49.4651 34.2531Z" fill="url(#paint43_linear_329_3640)"/>
<path id="Vector_45" d="M47.5996 38.7567C47.5996 42.2741 50.4511 45.1257 53.9687 45.1257C57.4863 45.1257 60.3377 42.2741 60.3377 38.7567C60.3384 38.017 60.21 37.2829 59.9583 36.5873H47.9791C47.7274 37.2829 47.599 38.017 47.5996 38.7567Z" fill="url(#paint44_linear_329_3640)"/>
<path id="Vector_46" d="M42.8005 38.2543C36.9098 38.2543 32.1338 43.0303 32.1338 48.9209C32.1338 54.8116 36.9098 59.5876 42.8005 59.5876C48.6911 59.5876 53.4671 54.8116 53.4671 48.9209C53.4671 43.0303 48.6911 38.2543 42.8005 38.2543ZM42.8005 55.9876C38.8978 55.9876 35.7338 52.8236 35.7338 48.9209C35.7338 45.0183 38.8978 41.8543 42.8005 41.8543C46.7031 41.8543 49.8671 45.0183 49.8671 48.9209C49.8671 52.8236 46.7031 55.9876 42.8005 55.9876Z" fill="url(#paint45_linear_329_3640)"/>
<path id="Vector_47" d="M42.8001 39.8543C37.7921 39.8543 33.7334 43.9129 33.7334 48.9209C33.7334 53.9289 37.7921 57.9876 42.8001 57.9876C47.8081 57.9876 51.8667 53.9289 51.8667 48.9209C51.8667 43.9129 47.8081 39.8543 42.8001 39.8543ZM42.8001 55.9876C38.8974 55.9876 35.7334 52.8236 35.7334 48.9209C35.7334 45.0183 38.8974 41.8543 42.8001 41.8543C46.7027 41.8543 49.8667 45.0183 49.8667 48.9209C49.8667 52.8236 46.7027 55.9876 42.8001 55.9876Z" fill="url(#paint46_linear_329_3640)"/>
<path id="Vector_48" d="M22.428 47.9601C23.6481 49.1803 25.3914 49.4153 26.3216 48.4852C27.2517 47.5551 27.0168 45.8117 25.7965 44.5916C24.5764 43.3715 22.833 43.1364 21.9029 44.0665C20.9728 44.9967 21.2077 46.74 22.428 47.9601Z" fill="url(#paint47_linear_329_3640)"/>
<path id="Vector_49" d="M25.7961 44.5916C27.0162 45.8117 27.2513 47.5549 26.3211 48.4852C25.3909 49.4155 23.6477 49.1804 22.4275 47.9601C22.1728 47.7065 21.9535 47.4196 21.7754 47.1073L24.9433 43.9395C25.2555 44.1175 25.5424 44.3369 25.7961 44.5916Z" fill="url(#paint48_linear_329_3640)"/>
<path id="Vector_50" d="M26.8646 46.6471C27.0696 48.1676 26.0032 49.234 24.4826 49.0291C22.962 48.824 21.5631 47.4252 21.3582 45.9047C21.3138 45.5753 21.3292 45.2675 21.3958 44.9891L26.574 45.6873C26.7195 45.9943 26.8202 46.3177 26.8646 46.6471Z" fill="url(#paint49_linear_329_3640)"/>
<path id="Vector_51" d="M31.9687 51.5876C35.4862 51.5876 38.3377 48.7361 38.3377 45.2185C38.3377 41.701 35.4862 38.8495 31.9687 38.8495C28.4511 38.8495 25.5996 41.701 25.5996 45.2185C25.5996 48.7361 28.4511 51.5876 31.9687 51.5876Z" fill="url(#paint50_linear_329_3640)"/>
<path id="Vector_52" d="M31.0359 40.7079V49.7287C31.0359 50.1832 30.5852 50.496 30.1567 50.3445C28.0457 49.5981 26.5332 47.5849 26.5332 45.2183C26.5332 42.8528 28.0457 40.8387 30.1567 40.092C30.5852 39.9405 31.0359 40.2533 31.0359 40.7079Z" fill="url(#paint51_linear_329_3640)"/>
<path id="Vector_53" d="M37.405 45.2183C37.405 47.5849 35.8925 49.5981 33.7815 50.3445C33.353 50.496 32.9023 50.1832 32.9023 49.7287V40.7079C32.9023 40.2533 33.353 39.9405 33.7815 40.092C35.8925 40.8387 37.405 42.8528 37.405 45.2183Z" fill="url(#paint52_linear_329_3640)"/>
<path id="Vector_54" d="M28.9734 45.8183C29.6362 45.8183 30.1734 45.5496 30.1734 45.2183C30.1734 44.8869 29.6362 44.6183 28.9734 44.6183C28.3107 44.6183 27.7734 44.8869 27.7734 45.2183C27.7734 45.5496 28.3107 45.8183 28.9734 45.8183Z" fill="url(#paint53_linear_329_3640)"/>
<path id="Vector_55" d="M29.2715 47.3291C29.8811 47.0691 30.4807 47.1055 30.6107 47.4103C30.7407 47.7151 30.3519 48.1729 29.7421 48.4329C29.1324 48.6929 28.5329 48.6565 28.4029 48.3517C28.2731 48.0468 28.6619 47.5891 29.2715 47.3291Z" fill="url(#paint54_linear_329_3640)"/>
<path id="Vector_56" d="M29.2715 43.1075C29.8811 43.3675 30.4807 43.3311 30.6107 43.0263C30.7407 42.7215 30.3519 42.2636 29.7421 42.0036C29.1324 41.7436 28.5329 41.78 28.4029 42.0848C28.2731 42.3897 28.6619 42.8476 29.2715 43.1075Z" fill="url(#paint55_linear_329_3640)"/>
<path id="Vector_57" d="M34.9646 45.8183C35.6274 45.8183 36.1646 45.5496 36.1646 45.2183C36.1646 44.8869 35.6274 44.6183 34.9646 44.6183C34.3019 44.6183 33.7646 44.8869 33.7646 45.2183C33.7646 45.5496 34.3019 45.8183 34.9646 45.8183Z" fill="url(#paint56_linear_329_3640)"/>
<path id="Vector_58" d="M34.667 47.3291C34.0574 47.0691 33.4578 47.1055 33.3278 47.4103C33.1978 47.7151 33.5866 48.1729 34.1963 48.4329C34.8059 48.6929 35.4055 48.6565 35.5355 48.3517C35.6654 48.0468 35.2766 47.5891 34.667 47.3291Z" fill="url(#paint57_linear_329_3640)"/>
<path id="Vector_59" d="M34.667 43.1075C34.0574 43.3675 33.4578 43.3311 33.3278 43.0263C33.1978 42.7215 33.5866 42.2636 34.1963 42.0036C34.8059 41.7436 35.4055 41.78 35.5355 42.0848C35.6654 42.3897 35.2766 42.8476 34.667 43.1075Z" fill="url(#paint58_linear_329_3640)"/>
<path id="Vector_60" d="M25.5996 45.2185C25.5996 48.736 28.4511 51.5876 31.9687 51.5876C35.4861 51.5876 38.3377 48.736 38.3377 45.2185C38.3384 44.4789 38.21 43.7447 37.9583 43.0492H25.9791C25.7274 43.7447 25.599 44.4789 25.5996 45.2185Z" fill="url(#paint59_linear_329_3640)"/>
<path id="Vector_61" d="M27.4658 49.7221C29.953 52.2093 33.9858 52.2095 36.473 49.7221C38.9603 47.2348 38.9602 43.2021 36.473 40.7149C35.9505 40.1914 35.3406 39.7631 34.6707 39.4493L26.2002 47.9199C26.514 48.5897 26.9423 49.1996 27.4658 49.7221Z" fill="url(#paint60_linear_329_3640)"/>
<path id="Vector_62" d="M32.3946 50.5625C32.261 49.4475 32.6217 48.2849 33.4765 47.4301L34.242 46.6647C35.0968 45.8099 36.2594 45.4492 37.3744 45.5828C37.9409 45.6507 38.5076 45.4611 38.911 45.0576C39.99 43.9787 39.3709 42.126 37.8592 41.9184C35.804 41.6363 33.6452 42.2855 32.064 43.8667L30.6784 45.2523C29.0972 46.8335 28.448 48.9921 28.7301 51.0475C28.9377 52.5592 30.7902 53.1783 31.8693 52.0993C32.2729 51.6957 32.4625 51.1291 32.3946 50.5625Z" fill="url(#paint61_linear_329_3640)"/>
<path id="Vector_63" d="M32.3954 50.5625C32.2618 49.4475 32.6225 48.2849 33.4773 47.4301L34.2428 46.6647C35.0976 45.8099 36.2602 45.4492 37.3752 45.5828C37.9417 45.6507 38.5084 45.4611 38.9118 45.0576C39.4001 44.5693 39.5396 43.9231 39.4072 43.3421C39.358 43.3315 39.308 43.3221 39.2566 43.3151C37.2014 43.0329 35.0426 43.6821 33.4614 45.2633L32.0758 46.6489C30.4946 48.2301 29.8454 50.3888 30.1276 52.444C30.1346 52.4953 30.1438 52.5453 30.1546 52.5945C30.7356 52.7271 31.3818 52.5873 31.8701 52.0992C32.2737 51.6957 32.4633 51.1291 32.3954 50.5625Z" fill="url(#paint62_linear_329_3640)"/>
<path id="Vector_64" d="M55.8137 39.4609C56.9287 39.3275 58.0913 39.688 58.9461 40.5428L59.7115 41.3083C60.5663 42.1631 60.927 43.3257 60.7934 44.4407C60.7255 45.0072 60.9151 45.5739 61.3186 45.9773C62.3975 47.0563 64.2502 46.4372 64.4578 44.9255C64.7399 42.8703 64.0907 40.7115 62.5095 39.1303L61.1239 37.7447C59.5427 36.1635 57.3841 35.5143 55.3287 35.7964C53.817 36.004 53.1979 37.8565 54.2769 38.9356C54.6805 39.3393 55.2471 39.5288 55.8137 39.4609Z" fill="url(#paint63_linear_329_3640)"/>
<path id="Vector_65" d="M55.8137 39.4609C56.9287 39.3273 58.0913 39.688 58.9461 40.5428L59.7115 41.3083C60.5663 42.1631 60.927 43.3257 60.7934 44.4407C60.7255 45.0072 60.9151 45.5739 61.3186 45.9773C61.8069 46.4656 62.4531 46.6051 63.0341 46.4727C63.0447 46.4235 63.0541 46.3735 63.0611 46.3221C63.3433 44.2669 62.6941 42.1081 61.1129 40.5269L59.7273 39.1413C58.1461 37.5601 55.9874 36.9109 53.9322 37.1931C53.8809 37.2001 53.8309 37.2093 53.7817 37.2201C53.6493 37.8011 53.7889 38.4473 54.277 38.9356C54.6803 39.3392 55.247 39.5288 55.8137 39.4609Z" fill="url(#paint64_linear_329_3640)"/>
<path id="Vector_66" d="M61.47 43.5573C61.3388 43.5299 61.2211 43.458 61.1369 43.3537C61.0526 43.2495 61.0071 43.1192 61.0079 42.9852V42.98C61.0079 40.8873 59.3115 39.1909 57.2188 39.1909C55.4159 39.1909 53.9079 40.4505 53.5248 42.1376C53.4723 42.3692 53.2788 42.54 53.0443 42.578C51.2296 42.8721 49.8471 44.4552 49.8664 46.3573C49.8877 48.4504 51.6341 50.1451 53.7269 50.1063C54.1439 50.0989 54.5568 50.0225 54.9488 49.8803C56.1484 49.4444 57.4817 49.6456 58.5287 50.3757C59.1735 50.8258 59.9429 51.063 60.7292 51.054C62.7301 51.0349 64.3884 49.4372 64.4773 47.4383C64.562 45.5363 63.2435 43.9273 61.47 43.5573Z" fill="url(#paint65_linear_329_3640)"/>
<path id="Vector_67" d="M61.4703 43.5573C61.339 43.5299 61.2213 43.458 61.1371 43.3537C61.0529 43.2495 61.0073 43.1193 61.0081 42.9852V42.98C61.0081 41.1721 59.7419 39.6601 58.0479 39.2821V50.0877C58.2146 50.1726 58.3754 50.2688 58.5289 50.3757C59.1737 50.8258 59.9431 51.063 60.7293 51.054C62.7303 51.0349 64.3885 49.4372 64.4775 47.4383C64.5623 45.5363 63.2437 43.9273 61.4703 43.5573Z" fill="url(#paint66_linear_329_3640)"/>
<path id="Vector_68" d="M49.8674 46.3573C49.8887 48.4504 51.6351 50.1451 53.7279 50.1063C54.1449 50.0989 54.5578 50.0225 54.9498 49.8803C56.1494 49.4444 57.4827 49.6456 58.5297 50.3757C59.1744 50.8258 59.9438 51.063 60.73 51.054C62.731 51.0349 64.3893 49.4372 64.4782 47.4383C64.5028 46.9062 64.4149 46.375 64.2202 45.8792H49.8925C49.8741 46.0379 49.8658 46.1976 49.8674 46.3573Z" fill="url(#paint67_linear_329_3640)"/>
<path id="Vector_69" d="M61.0869 43.2792C60.9592 45.2232 59.3947 46.7749 57.4453 46.8815C57.4661 46.7184 57.4769 46.5521 57.4769 46.3833C57.4769 44.2488 55.7464 42.5183 53.6119 42.5183C53.4649 42.5182 53.3179 42.5265 53.1719 42.5432C53.3469 42.474 53.4828 42.3257 53.5255 42.1375C53.9087 40.4507 55.4167 39.1909 57.2195 39.1909C59.312 39.1909 61.0087 40.8872 61.0087 42.9801V42.9852C61.0084 43.0884 61.0354 43.1898 61.0869 43.2792Z" fill="url(#paint68_linear_329_3640)"/>
<path id="Vector_70" d="M64.0087 49.0932C63.2555 49.0341 62.5002 49.0046 61.7447 49.0049C59.4966 49.0049 57.4056 49.2601 55.6602 49.698C56.6558 49.5429 57.6852 49.7876 58.5287 50.3757C59.1734 50.8258 59.9428 51.063 60.7291 51.054C62.1314 51.0407 63.3652 50.252 64.0087 49.0932Z" fill="url(#paint69_linear_329_3640)"/>
<path id="Vector_71" d="M61.4704 43.5572C61.3904 43.5407 61.3149 43.5074 61.2487 43.4595C61.1825 43.4117 61.1273 43.3504 61.0865 43.2796C60.9722 45.0183 59.7083 46.4433 58.0479 46.8005V50.0879C58.2147 50.1726 58.3754 50.2688 58.5288 50.3759C59.1736 50.8259 59.9429 51.063 60.7292 51.0541C62.7303 51.0349 64.3887 49.4372 64.4777 47.4384C64.5625 45.5361 63.2436 43.9272 61.4704 43.5572Z" fill="url(#paint70_linear_329_3640)"/>
<path id="Vector_72" d="M52.0632 48.2268C50.843 49.4469 49.0997 49.682 48.1696 48.7519C47.2393 47.8216 47.4744 46.0784 48.6946 44.8583C49.9148 43.6381 51.6581 43.4031 52.5882 44.3332C53.5184 45.2633 53.2833 47.0067 52.0632 48.2268Z" fill="url(#paint71_linear_329_3640)"/>
<path id="Vector_73" d="M48.6945 44.8583C47.4744 46.0784 47.2393 47.8216 48.1695 48.7519C49.0996 49.6821 50.8429 49.4471 52.0631 48.2268C52.3178 47.9731 52.5371 47.6863 52.7152 47.374L49.5473 44.2061C49.2351 44.3842 48.9482 44.6036 48.6945 44.8583Z" fill="url(#paint72_linear_329_3640)"/>
<path id="Vector_74" d="M47.6249 46.9137C47.4198 48.4343 48.4863 49.5007 50.0069 49.2957C51.5274 49.0907 52.9263 47.6919 53.1313 46.1713C53.1757 45.842 53.1602 45.5341 53.0937 45.2557L47.9154 45.954C47.7699 46.2609 47.6693 46.5844 47.6249 46.9137Z" fill="url(#paint73_linear_329_3640)"/>
<path id="Vector_75" d="M17.1619 41.4315C17.3383 40.8929 17.4397 40.3092 17.4503 39.6985C17.4985 36.9233 15.6559 34.6408 13.3349 34.6005C12.4533 34.5852 11.6297 34.896 10.9445 35.4391C10.5729 35.7336 10.0447 35.7311 9.69606 35.4097C7.88966 33.7451 5.38033 33.3365 3.59406 34.5756C1.80779 35.8147 1.31126 38.308 2.23766 40.5832C2.41646 41.0224 2.23393 41.5179 1.82779 41.7628C1.07899 42.2144 0.499526 42.8768 0.204993 43.708C-0.570474 45.8961 0.921926 48.4216 3.53819 49.3487C4.11406 49.5527 4.69619 49.6623 5.26246 49.6856C5.69139 49.7033 6.04006 50.0551 6.01606 50.4836C6.00539 50.6743 6.01286 50.8675 6.03979 51.0617C6.30793 52.992 8.39619 54.2971 10.7042 53.9765L10.733 53.9724C12.6099 53.7009 14.5045 54.326 15.8071 55.7043L22.4429 62.7252C22.7414 63.0411 23.2515 62.6927 23.0659 62.2996L18.9803 53.6523C18.1571 51.9099 18.2003 49.8581 19.1803 48.1988C19.2127 48.144 19.2443 48.0881 19.2749 48.0316C20.3837 45.9821 19.8929 43.5689 18.1789 42.6416C18.0088 42.5496 17.8303 42.4743 17.6457 42.4168C17.2355 42.2892 17.0283 41.8395 17.1619 41.4315Z" fill="url(#paint74_linear_329_3640)"/>
<path id="Vector_76" d="M13.3351 34.6005C12.4535 34.5852 11.6299 34.896 10.9447 35.4391C10.5731 35.7336 10.0449 35.7311 9.69627 35.4097C7.9056 33.7596 5.4248 33.3447 3.6416 34.5444L22.9508 62.7664C23.0828 62.6671 23.1553 62.4889 23.066 62.2996L18.9804 53.6523C18.1572 51.9099 18.2004 49.8581 19.1803 48.1988C19.2127 48.144 19.2443 48.0881 19.2748 48.0316C20.3836 45.9821 19.8928 43.5689 18.1788 42.6416C18.0088 42.5496 17.8302 42.4743 17.6456 42.4168C17.2357 42.2892 17.0285 41.8393 17.1621 41.4315C17.3385 40.8929 17.4399 40.3092 17.4505 39.6985C17.4987 36.9232 15.6561 34.6408 13.3351 34.6005Z" fill="url(#paint75_linear_329_3640)"/>
<path id="Vector_77" d="M6.03966 51.0616C6.07417 51.309 6.13961 51.5511 6.23446 51.7823L15.9147 52.4829L18.8034 43.094C18.6155 42.9169 18.4055 42.7649 18.1786 42.6417C18.0086 42.5497 17.83 42.4744 17.6454 42.4169C17.2355 42.2893 17.0283 41.8395 17.1619 41.4316C17.3383 40.8931 17.4397 40.3093 17.4503 39.6987C17.4985 36.9235 15.6559 34.6409 13.3349 34.6007C12.4533 34.5853 11.6297 34.8961 10.9445 35.4392C10.5729 35.7337 10.0447 35.7312 9.69606 35.4099C7.88966 33.7452 5.38033 33.3367 3.59406 34.5757C1.80779 35.8148 1.31126 38.3081 2.23766 40.5833C2.41646 41.0225 2.23393 41.518 1.82779 41.7629C1.07899 42.2145 0.499526 42.8769 0.204993 43.7081C-0.570474 45.8963 0.921926 48.4217 3.53819 49.3488C4.11406 49.5528 4.69619 49.6624 5.26246 49.6857C5.69139 49.7035 6.04006 50.0552 6.01606 50.4837C6.00515 50.6767 6.01305 50.8702 6.03966 51.0616Z" fill="url(#paint76_linear_329_3640)"/>
<path id="Vector_78" d="M13.3351 34.6005C12.4535 34.5852 11.6299 34.896 10.9447 35.4391C10.5731 35.7336 10.0449 35.7311 9.69628 35.4097C7.88988 33.7451 5.38054 33.3365 3.59428 34.5756C1.80801 35.8147 1.31148 38.308 2.23788 40.5832C2.41668 41.0224 2.23414 41.5179 1.82801 41.7628C1.07921 42.2144 0.499742 42.8768 0.205209 43.708C-0.0193248 44.3417 -0.0526582 45.0037 0.0754752 45.6471L11.8193 46.4971L15.2896 35.2177C14.7096 34.8357 14.0449 34.6128 13.3351 34.6005Z" fill="url(#paint77_linear_329_3640)"/>
<path id="Vector_79" d="M7.72366 40.5109L9.37752 35.1356C7.60326 33.704 5.27766 33.4077 3.59406 34.5755C1.93312 35.7276 1.38806 37.964 2.06446 40.1013L7.72366 40.5109Z" fill="url(#paint78_linear_329_3640)"/>
<path id="Vector_80" d="M7.67987 46.3943C8.79493 46.2608 9.95747 46.6213 10.8123 47.4761L11.5777 48.2416C12.4325 49.0964 12.7932 50.2591 12.6596 51.374C12.5917 51.9405 12.7813 52.5072 13.1848 52.9107C14.2637 53.9896 16.1164 53.3705 16.324 51.8588C16.6061 49.8036 15.9569 47.6448 14.3757 46.0636L12.9901 44.678C11.4089 43.0968 9.25027 42.4476 7.19493 42.7297C5.6832 42.9373 5.06413 44.7899 6.14307 45.8689C6.54667 46.2727 7.11333 46.4621 7.67987 46.3943Z" fill="url(#paint79_linear_329_3640)"/>
<path id="Vector_81" d="M7.67993 46.3943C8.79499 46.2607 9.95753 46.6213 10.8123 47.4761L11.5778 48.2416C12.4326 49.0964 12.7933 50.2591 12.6597 51.374C12.5918 51.9405 12.7814 52.5072 13.1849 52.9107C13.6731 53.3989 14.3194 53.5384 14.9003 53.406C14.911 53.3568 14.9203 53.3068 14.9274 53.2555C15.2095 51.2003 14.5603 49.0415 12.9791 47.4603L11.5935 46.0747C10.0123 44.4935 7.85366 43.8443 5.79846 44.1264C5.74713 44.1335 5.69713 44.1427 5.64793 44.1535C5.51539 44.7344 5.65513 45.3807 6.14326 45.8689C6.54673 46.2727 7.11339 46.4621 7.67993 46.3943Z" fill="url(#paint80_linear_329_3640)"/>
<path id="Vector_82" d="M53.3937 63.7604H14.6063C8.03893 63.7604 2.21866 59.5308 0.190659 53.2844C-0.615474 50.8013 1.23546 48.2543 3.84613 48.2543H64.1539C66.7645 48.2543 68.6155 50.8013 67.8093 53.2844C65.7812 59.5308 59.9611 63.7604 53.3937 63.7604Z" fill="url(#paint81_linear_329_3640)"/>
<path id="Vector_83" d="M0.0205078 52.4659C0.0476881 52.7441 0.104819 53.0185 0.190908 53.2844V53.2845C2.21891 59.5309 8.03917 63.7604 14.6065 63.7604H53.394C59.9613 63.7604 65.7816 59.5308 67.8096 53.2844C67.8956 53.0185 67.9527 52.744 67.98 52.4659H0.0205078Z" fill="url(#paint82_linear_329_3640)"/>
<path id="Vector_84" d="M64.1536 48.2543H31.8984V63.7604H53.3935C59.9608 63.7604 65.7811 59.5308 67.8091 53.2844C68.6152 50.8013 66.7643 48.2543 64.1536 48.2543Z" fill="url(#paint83_linear_329_3640)"/>
</g>
</g>
<defs>
<linearGradient id="paint0_linear_329_3640" x1="46.0367" y1="19.1824" x2="51.555" y2="24.7006" gradientUnits="userSpaceOnUse">
<stop stop-color="#F89580"/>
<stop offset="1" stop-color="#C4573A"/>
</linearGradient>
<linearGradient id="paint1_linear_329_3640" x1="40.3791" y1="36.4673" x2="34.4265" y2="21.6553" gradientUnits="userSpaceOnUse">
<stop stop-color="#F89580"/>
<stop offset="1" stop-color="#C4573A"/>
</linearGradient>
<linearGradient id="paint2_linear_329_3640" x1="39.218" y1="34.1107" x2="40.9483" y2="39.7171" gradientUnits="userSpaceOnUse">
<stop stop-color="#C4573A" stop-opacity="0"/>
<stop offset="0.243" stop-color="#BF5539" stop-opacity="0.243"/>
<stop offset="0.522" stop-color="#B15036" stop-opacity="0.522"/>
<stop offset="0.818" stop-color="#9A4631" stop-opacity="0.818"/>
<stop offset="1" stop-color="#883F2E"/>
</linearGradient>
<linearGradient id="paint3_linear_329_3640" x1="9.42194" y1="28.7432" x2="22.4871" y2="41.8085" gradientUnits="userSpaceOnUse">
<stop stop-color="#FFFAF8"/>
<stop offset="1" stop-color="#FFDFCF"/>
</linearGradient>
<linearGradient id="paint4_linear_329_3640" x1="19.778" y1="39.0987" x2="9.21759" y2="28.5384" gradientUnits="userSpaceOnUse">
<stop stop-color="#FFFAF8"/>
<stop offset="1" stop-color="#FFDFCF"/>
</linearGradient>
<linearGradient id="paint5_linear_329_3640" x1="11.5573" y1="31.2204" x2="16.0017" y2="35.0427" gradientUnits="userSpaceOnUse">
<stop stop-color="#FFA78F" stop-opacity="0"/>
<stop offset="0.939" stop-color="#FFA78F" stop-opacity="0.939"/>
<stop offset="1" stop-color="#FFA78F"/>
</linearGradient>
<linearGradient id="paint6_linear_329_3640" x1="48.9469" y1="31.6011" x2="60.7056" y2="43.3597" gradientUnits="userSpaceOnUse">
<stop stop-color="#FFFAF8"/>
<stop offset="1" stop-color="#FFDFCF"/>
</linearGradient>
<linearGradient id="paint7_linear_329_3640" x1="58.2663" y1="40.9209" x2="48.7619" y2="31.4165" gradientUnits="userSpaceOnUse">
<stop stop-color="#FFFAF8"/>
<stop offset="1" stop-color="#FFDFCF"/>
</linearGradient>
<linearGradient id="paint8_linear_329_3640" x1="54.5107" y1="30.2343" x2="53.1773" y2="35.3009" gradientUnits="userSpaceOnUse">
<stop stop-color="#FFA78F" stop-opacity="0"/>
<stop offset="0.939" stop-color="#FFA78F" stop-opacity="0.939"/>
<stop offset="1" stop-color="#FFA78F"/>
</linearGradient>
<linearGradient id="paint9_linear_329_3640" x1="41.351" y1="33.0175" x2="41.3509" y2="36.5893" gradientUnits="userSpaceOnUse">
<stop stop-color="#5A5A5A"/>
<stop offset="1" stop-color="#444444"/>
</linearGradient>
<linearGradient id="paint10_linear_329_3640" x1="41.2171" y1="34.6695" x2="39.1482" y2="36.7384" gradientUnits="userSpaceOnUse">
<stop stop-color="#433F43" stop-opacity="0"/>
<stop offset="0.317" stop-color="#3B373B" stop-opacity="0.317"/>
<stop offset="0.822" stop-color="#242324" stop-opacity="0.822"/>
<stop offset="1" stop-color="#1A1A1A"/>
</linearGradient>
<linearGradient id="paint11_linear_329_3640" x1="41.3696" y1="34.6091" x2="41.7696" y2="36.3869" gradientUnits="userSpaceOnUse">
<stop stop-color="#433F43" stop-opacity="0"/>
<stop offset="0.317" stop-color="#3B373B" stop-opacity="0.317"/>
<stop offset="0.822" stop-color="#242324" stop-opacity="0.822"/>
<stop offset="1" stop-color="#1A1A1A"/>
</linearGradient>
<linearGradient id="paint12_linear_329_3640" x1="41.5278" y1="31.4704" x2="40.9056" y2="49.3371" gradientUnits="userSpaceOnUse">
<stop stop-color="#A2E62E"/>
<stop offset="0.123" stop-color="#97DE30"/>
<stop offset="0.34" stop-color="#79CB36"/>
<stop offset="0.623" stop-color="#4AAB3F"/>
<stop offset="0.961" stop-color="#09804C"/>
<stop offset="1" stop-color="#017B4E"/>
</linearGradient>
<linearGradient id="paint13_linear_329_3640" x1="36.7553" y1="43.34" x2="40.9775" y2="53.4289" gradientUnits="userSpaceOnUse">
<stop stop-color="#026841" stop-opacity="0"/>
<stop offset="0.324" stop-color="#046842" stop-opacity="0.324"/>
<stop offset="0.551" stop-color="#0E6546" stop-opacity="0.551"/>
<stop offset="0.748" stop-color="#1D614C" stop-opacity="0.748"/>
<stop offset="0.926" stop-color="#335C54" stop-opacity="0.926"/>
<stop offset="1" stop-color="#3E5959"/>
</linearGradient>
<linearGradient id="paint14_linear_329_3640" x1="45.1621" y1="38.2645" x2="37.9621" y2="55.4645" gradientUnits="userSpaceOnUse">
<stop stop-color="#026841" stop-opacity="0"/>
<stop offset="0.324" stop-color="#046842" stop-opacity="0.324"/>
<stop offset="0.551" stop-color="#0E6546" stop-opacity="0.551"/>
<stop offset="0.748" stop-color="#1D614C" stop-opacity="0.748"/>
<stop offset="0.926" stop-color="#335C54" stop-opacity="0.926"/>
<stop offset="1" stop-color="#3E5959"/>
</linearGradient>
<linearGradient id="paint15_linear_329_3640" x1="47.01" y1="35.33" x2="40.21" y2="49.8633" gradientUnits="userSpaceOnUse">
<stop stop-color="#026841" stop-opacity="0"/>
<stop offset="0.324" stop-color="#046842" stop-opacity="0.324"/>
<stop offset="0.551" stop-color="#0E6546" stop-opacity="0.551"/>
<stop offset="0.748" stop-color="#1D614C" stop-opacity="0.748"/>
<stop offset="0.926" stop-color="#335C54" stop-opacity="0.926"/>
<stop offset="1" stop-color="#3E5959"/>
</linearGradient>
<linearGradient id="paint16_linear_329_3640" x1="48.2569" y1="33.9915" x2="44.0348" y2="43.1471" gradientUnits="userSpaceOnUse">
<stop stop-color="#026841" stop-opacity="0"/>
<stop offset="0.324" stop-color="#046842" stop-opacity="0.324"/>
<stop offset="0.551" stop-color="#0E6546" stop-opacity="0.551"/>
<stop offset="0.748" stop-color="#1D614C" stop-opacity="0.748"/>
<stop offset="0.926" stop-color="#335C54" stop-opacity="0.926"/>
<stop offset="1" stop-color="#3E5959"/>
</linearGradient>
<linearGradient id="paint17_linear_329_3640" x1="24.5558" y1="27.9495" x2="42.3346" y2="45.7283" gradientUnits="userSpaceOnUse">
<stop stop-color="#FFFAF8"/>
<stop offset="1" stop-color="#FFDFCF"/>
</linearGradient>
<linearGradient id="paint18_linear_329_3640" x1="30.121" y1="34.2352" x2="30.121" y2="44.0313" gradientUnits="userSpaceOnUse">
<stop stop-color="#FFA78F" stop-opacity="0"/>
<stop offset="0.939" stop-color="#FFA78F" stop-opacity="0.939"/>
<stop offset="1" stop-color="#FFA78F"/>
</linearGradient>
<linearGradient id="paint19_linear_329_3640" x1="29.9722" y1="33.3659" x2="37.1079" y2="40.5016" gradientUnits="userSpaceOnUse">
<stop stop-color="#FFA78F" stop-opacity="0"/>
<stop offset="0.939" stop-color="#FFA78F" stop-opacity="0.939"/>
<stop offset="1" stop-color="#FFA78F"/>
</linearGradient>
<linearGradient id="paint20_linear_329_3640" x1="27.6601" y1="33.0465" x2="33.45" y2="38.8365" gradientUnits="userSpaceOnUse">
<stop stop-color="#FEF0AE"/>
<stop offset="1" stop-color="#FFBF51"/>
</linearGradient>
<linearGradient id="paint21_linear_329_3640" x1="30.121" y1="35.5881" x2="30.121" y2="43.0804" gradientUnits="userSpaceOnUse">
<stop stop-color="#FEA613" stop-opacity="0"/>
<stop offset="0.177" stop-color="#FDA116" stop-opacity="0.177"/>
<stop offset="0.394" stop-color="#FA921D" stop-opacity="0.394"/>
<stop offset="0.632" stop-color="#F4792A" stop-opacity="0.633"/>
<stop offset="0.885" stop-color="#ED573B" stop-opacity="0.885"/>
<stop offset="1" stop-color="#E94444"/>
</linearGradient>
<linearGradient id="paint22_linear_329_3640" x1="30.2286" y1="35.6178" x2="35.8053" y2="41.1944" gradientUnits="userSpaceOnUse">
<stop stop-color="#FEA613" stop-opacity="0"/>
<stop offset="0.177" stop-color="#FDA116" stop-opacity="0.177"/>
<stop offset="0.394" stop-color="#FA921D" stop-opacity="0.394"/>
<stop offset="0.632" stop-color="#F4792A" stop-opacity="0.633"/>
<stop offset="0.885" stop-color="#ED573B" stop-opacity="0.885"/>
<stop offset="1" stop-color="#E94444"/>
</linearGradient>
<linearGradient id="paint23_linear_329_3640" x1="14.1136" y1="32.7526" x2="14.1136" y2="36.3243" gradientUnits="userSpaceOnUse">
<stop stop-color="#5A5A5A"/>
<stop offset="1" stop-color="#444444"/>
</linearGradient>
<linearGradient id="paint24_linear_329_3640" x1="14.2479" y1="34.4045" x2="16.3167" y2="36.4733" gradientUnits="userSpaceOnUse">
<stop stop-color="#433F43" stop-opacity="0"/>
<stop offset="0.317" stop-color="#3B373B" stop-opacity="0.317"/>
<stop offset="0.822" stop-color="#242324" stop-opacity="0.822"/>
<stop offset="1" stop-color="#1A1A1A"/>
</linearGradient>
<linearGradient id="paint25_linear_329_3640" x1="14.0964" y1="34.3424" x2="13.6964" y2="36.1203" gradientUnits="userSpaceOnUse">
<stop stop-color="#433F43" stop-opacity="0"/>
<stop offset="0.317" stop-color="#3B373B" stop-opacity="0.317"/>
<stop offset="0.822" stop-color="#242324" stop-opacity="0.822"/>
<stop offset="1" stop-color="#1A1A1A"/>
</linearGradient>
<linearGradient id="paint26_linear_329_3640" x1="16.1943" y1="33.5268" x2="19.4537" y2="36.7861" gradientUnits="userSpaceOnUse">
<stop stop-color="#FFA1AE"/>
<stop offset="1" stop-color="#E41F2D"/>
</linearGradient>
<linearGradient id="paint27_linear_329_3640" x1="15.9677" y1="33.3071" x2="19.2171" y2="36.5565" gradientUnits="userSpaceOnUse">
<stop stop-color="#C41926" stop-opacity="0"/>
<stop offset="0.176" stop-color="#C01A27" stop-opacity="0.176"/>
<stop offset="0.376" stop-color="#B21E29" stop-opacity="0.376"/>
<stop offset="0.589" stop-color="#9B242C" stop-opacity="0.589"/>
<stop offset="0.808" stop-color="#7B2D31" stop-opacity="0.808"/>
<stop offset="1" stop-color="#593636"/>
</linearGradient>
<linearGradient id="paint28_linear_329_3640" x1="19.5638" y1="41.1275" x2="25.3402" y2="53.6348" gradientUnits="userSpaceOnUse">
<stop stop-color="#A2E62E"/>
<stop offset="0.123" stop-color="#97DE30"/>
<stop offset="0.34" stop-color="#79CB36"/>
<stop offset="0.623" stop-color="#4AAB3F"/>
<stop offset="0.961" stop-color="#09804C"/>
<stop offset="1" stop-color="#017B4E"/>
</linearGradient>
<linearGradient id="paint29_linear_329_3640" x1="27.9498" y1="44.8456" x2="33.9774" y2="46.9553" gradientUnits="userSpaceOnUse">
<stop stop-color="#026841" stop-opacity="0"/>
<stop offset="0.324" stop-color="#046842" stop-opacity="0.324"/>
<stop offset="0.551" stop-color="#0E6546" stop-opacity="0.551"/>
<stop offset="0.748" stop-color="#1D614C" stop-opacity="0.748"/>
<stop offset="0.926" stop-color="#335C54" stop-opacity="0.926"/>
<stop offset="1" stop-color="#3E5959"/>
</linearGradient>
<linearGradient id="paint30_linear_329_3640" x1="21.6215" y1="48.7901" x2="21.2196" y2="52.9091" gradientUnits="userSpaceOnUse">
<stop stop-color="#026841" stop-opacity="0"/>
<stop offset="0.324" stop-color="#046842" stop-opacity="0.324"/>
<stop offset="0.551" stop-color="#0E6546" stop-opacity="0.551"/>
<stop offset="0.748" stop-color="#1D614C" stop-opacity="0.748"/>
<stop offset="0.926" stop-color="#335C54" stop-opacity="0.926"/>
<stop offset="1" stop-color="#3E5959"/>
</linearGradient>
<linearGradient id="paint31_linear_329_3640" x1="20.65" y1="40.7959" x2="15.359" y2="41.834" gradientUnits="userSpaceOnUse">
<stop stop-color="#026841" stop-opacity="0"/>
<stop offset="0.324" stop-color="#046842" stop-opacity="0.324"/>
<stop offset="0.551" stop-color="#0E6546" stop-opacity="0.551"/>
<stop offset="0.748" stop-color="#1D614C" stop-opacity="0.748"/>
<stop offset="0.926" stop-color="#335C54" stop-opacity="0.926"/>
<stop offset="1" stop-color="#3E5959"/>
</linearGradient>
<linearGradient id="paint32_linear_329_3640" x1="24.7089" y1="49.7284" x2="19.2505" y2="48.1209" gradientUnits="userSpaceOnUse">
<stop stop-color="#026841" stop-opacity="0"/>
<stop offset="0.324" stop-color="#046842" stop-opacity="0.324"/>
<stop offset="0.551" stop-color="#0E6546" stop-opacity="0.551"/>
<stop offset="0.748" stop-color="#1D614C" stop-opacity="0.748"/>
<stop offset="0.926" stop-color="#335C54" stop-opacity="0.926"/>
<stop offset="1" stop-color="#3E5959"/>
</linearGradient>
<linearGradient id="paint33_linear_329_3640" x1="27.9923" y1="43.7285" x2="27.9923" y2="40.2445" gradientUnits="userSpaceOnUse">
<stop stop-color="#026841" stop-opacity="0"/>
<stop offset="0.324" stop-color="#046842" stop-opacity="0.324"/>
<stop offset="0.551" stop-color="#0E6546" stop-opacity="0.551"/>
<stop offset="0.748" stop-color="#1D614C" stop-opacity="0.748"/>
<stop offset="0.926" stop-color="#335C54" stop-opacity="0.926"/>
<stop offset="1" stop-color="#3E5959"/>
</linearGradient>
<linearGradient id="paint34_linear_329_3640" x1="53.9667" y1="35.2757" x2="53.9666" y2="43.4639" gradientUnits="userSpaceOnUse">
<stop stop-color="#FFA1AE"/>
<stop offset="1" stop-color="#E41F2D"/>
</linearGradient>
<linearGradient id="paint35_linear_329_3640" x1="50.8122" y1="29.4819" x2="53.6407" y2="41.1256" gradientUnits="userSpaceOnUse">
<stop stop-color="#C41926" stop-opacity="0"/>
<stop offset="0.176" stop-color="#C01A27" stop-opacity="0.176"/>
<stop offset="0.376" stop-color="#B21E29" stop-opacity="0.376"/>
<stop offset="0.589" stop-color="#9B242C" stop-opacity="0.589"/>
<stop offset="0.808" stop-color="#7B2D31" stop-opacity="0.808"/>
<stop offset="1" stop-color="#593636"/>
</linearGradient>
<linearGradient id="paint36_linear_329_3640" x1="54.0107" y1="35.2634" x2="56.297" y2="44.5736" gradientUnits="userSpaceOnUse">
<stop stop-color="#C41926" stop-opacity="0"/>
<stop offset="0.176" stop-color="#C01A27" stop-opacity="0.176"/>
<stop offset="0.376" stop-color="#B21E29" stop-opacity="0.376"/>
<stop offset="0.589" stop-color="#9B242C" stop-opacity="0.589"/>
<stop offset="0.808" stop-color="#7B2D31" stop-opacity="0.808"/>
<stop offset="1" stop-color="#593636"/>
</linearGradient>
<linearGradient id="paint37_linear_329_3640" x1="50.6741" y1="36.9349" x2="52.7972" y2="36.4134" gradientUnits="userSpaceOnUse">
<stop stop-color="#FEF0AE"/>
<stop offset="1" stop-color="#FFBF51"/>
</linearGradient>
<linearGradient id="paint38_linear_329_3640" x1="49.3813" y1="39.6073" x2="51.1296" y2="38.2948" gradientUnits="userSpaceOnUse">
<stop stop-color="#FEF0AE"/>
<stop offset="1" stop-color="#FFBF51"/>
</linearGradient>
<linearGradient id="paint39_linear_329_3640" x1="54.8238" y1="34.1589" x2="53.5113" y2="35.9072" gradientUnits="userSpaceOnUse">
<stop stop-color="#FEF0AE"/>
<stop offset="1" stop-color="#FFBF51"/>
</linearGradient>
<linearGradient id="paint40_linear_329_3640" x1="55.8052" y1="42.0523" x2="56.3265" y2="39.9291" gradientUnits="userSpaceOnUse">
<stop stop-color="#FEF0AE"/>
<stop offset="1" stop-color="#FFBF51"/>
</linearGradient>
<linearGradient id="paint41_linear_329_3640" x1="53.1061" y1="43.3451" x2="54.4187" y2="41.5967" gradientUnits="userSpaceOnUse">
<stop stop-color="#FEF0AE"/>
<stop offset="1" stop-color="#FFBF51"/>
</linearGradient>
<linearGradient id="paint42_linear_329_3640" x1="58.5613" y1="37.9083" x2="56.8128" y2="39.2209" gradientUnits="userSpaceOnUse">
<stop stop-color="#FEF0AE"/>
<stop offset="1" stop-color="#FFBF51"/>
</linearGradient>
<linearGradient id="paint43_linear_329_3640" x1="53.9097" y1="38.813" x2="48.6118" y2="44.1109" gradientUnits="userSpaceOnUse">
<stop stop-color="#C41926" stop-opacity="0"/>
<stop offset="0.176" stop-color="#C01A27" stop-opacity="0.176"/>
<stop offset="0.376" stop-color="#B21E29" stop-opacity="0.376"/>
<stop offset="0.589" stop-color="#9B242C" stop-opacity="0.589"/>
<stop offset="0.808" stop-color="#7B2D31" stop-opacity="0.808"/>
<stop offset="1" stop-color="#593636"/>
</linearGradient>
<linearGradient id="paint44_linear_329_3640" x1="53.9687" y1="38.8372" x2="53.9687" y2="46.7237" gradientUnits="userSpaceOnUse">
<stop stop-color="#C41926" stop-opacity="0"/>
<stop offset="0.176" stop-color="#C01A27" stop-opacity="0.176"/>
<stop offset="0.376" stop-color="#B21E29" stop-opacity="0.376"/>
<stop offset="0.589" stop-color="#9B242C" stop-opacity="0.589"/>
<stop offset="0.808" stop-color="#7B2D31" stop-opacity="0.808"/>
<stop offset="1" stop-color="#593636"/>
</linearGradient>
<linearGradient id="paint45_linear_329_3640" x1="38.2227" y1="44.3432" x2="51.2879" y2="57.4085" gradientUnits="userSpaceOnUse">
<stop stop-color="#FFFAF8"/>
<stop offset="1" stop-color="#FFDFCF"/>
</linearGradient>
<linearGradient id="paint46_linear_329_3640" x1="48.5778" y1="54.6987" x2="38.0174" y2="44.1383" gradientUnits="userSpaceOnUse">
<stop stop-color="#FFFAF8"/>
<stop offset="1" stop-color="#FFDFCF"/>
</linearGradient>
<linearGradient id="paint47_linear_329_3640" x1="24.1144" y1="44.7525" x2="24.1145" y2="48.3244" gradientUnits="userSpaceOnUse">
<stop stop-color="#5A5A5A"/>
<stop offset="1" stop-color="#444444"/>
</linearGradient>
<linearGradient id="paint48_linear_329_3640" x1="24.2478" y1="46.4045" x2="26.3167" y2="48.4734" gradientUnits="userSpaceOnUse">
<stop stop-color="#433F43" stop-opacity="0"/>
<stop offset="0.317" stop-color="#3B373B" stop-opacity="0.317"/>
<stop offset="0.822" stop-color="#242324" stop-opacity="0.822"/>
<stop offset="1" stop-color="#1A1A1A"/>
</linearGradient>
<linearGradient id="paint49_linear_329_3640" x1="24.0964" y1="46.3424" x2="23.6964" y2="48.1203" gradientUnits="userSpaceOnUse">
<stop stop-color="#433F43" stop-opacity="0"/>
<stop offset="0.317" stop-color="#3B373B" stop-opacity="0.317"/>
<stop offset="0.822" stop-color="#242324" stop-opacity="0.822"/>
<stop offset="1" stop-color="#1A1A1A"/>
</linearGradient>
<linearGradient id="paint50_linear_329_3640" x1="29.5077" y1="42.7577" x2="35.2977" y2="48.5476" gradientUnits="userSpaceOnUse">
<stop stop-color="#FFA1AE"/>
<stop offset="1" stop-color="#E41F2D"/>
</linearGradient>
<linearGradient id="paint51_linear_329_3640" x1="23.186" y1="40.8968" x2="33.4193" y2="47.1301" gradientUnits="userSpaceOnUse">
<stop stop-color="#C41926" stop-opacity="0"/>
<stop offset="0.176" stop-color="#C01A27" stop-opacity="0.176"/>
<stop offset="0.376" stop-color="#B21E29" stop-opacity="0.376"/>
<stop offset="0.589" stop-color="#9B242C" stop-opacity="0.589"/>
<stop offset="0.808" stop-color="#7B2D31" stop-opacity="0.808"/>
<stop offset="1" stop-color="#593636"/>
</linearGradient>
<linearGradient id="paint52_linear_329_3640" x1="29.5358" y1="42.7231" x2="37.7358" y2="47.6897" gradientUnits="userSpaceOnUse">
<stop stop-color="#C41926" stop-opacity="0"/>
<stop offset="0.176" stop-color="#C01A27" stop-opacity="0.176"/>
<stop offset="0.376" stop-color="#B21E29" stop-opacity="0.376"/>
<stop offset="0.589" stop-color="#9B242C" stop-opacity="0.589"/>
<stop offset="0.808" stop-color="#7B2D31" stop-opacity="0.808"/>
<stop offset="1" stop-color="#593636"/>
</linearGradient>
<linearGradient id="paint53_linear_329_3640" x1="28.3502" y1="46.2473" x2="29.4829" y2="44.3773" gradientUnits="userSpaceOnUse">
<stop stop-color="#FEF0AE"/>
<stop offset="1" stop-color="#FFBF51"/>
</linearGradient>
<linearGradient id="paint54_linear_329_3640" x1="29.3422" y1="49.0562" x2="29.6511" y2="46.8919" gradientUnits="userSpaceOnUse">
<stop stop-color="#FEF0AE"/>
<stop offset="1" stop-color="#FFBF51"/>
</linearGradient>
<linearGradient id="paint55_linear_329_3640" x1="29.3582" y1="41.3824" x2="29.6672" y2="43.5468" gradientUnits="userSpaceOnUse">
<stop stop-color="#FEF0AE"/>
<stop offset="1" stop-color="#FFBF51"/>
</linearGradient>
<linearGradient id="paint56_linear_329_3640" x1="89.4166" y1="46.2473" x2="90.5491" y2="44.3773" gradientUnits="userSpaceOnUse">
<stop stop-color="#FEF0AE"/>
<stop offset="1" stop-color="#FFBF51"/>
</linearGradient>
<linearGradient id="paint57_linear_329_3640" x1="34.5945" y1="49.0699" x2="34.2856" y2="46.9056" gradientUnits="userSpaceOnUse">
<stop stop-color="#FEF0AE"/>
<stop offset="1" stop-color="#FFBF51"/>
</linearGradient>
<linearGradient id="paint58_linear_329_3640" x1="34.5755" y1="41.3664" x2="34.2667" y2="43.5307" gradientUnits="userSpaceOnUse">
<stop stop-color="#FEF0AE"/>
<stop offset="1" stop-color="#FFBF51"/>
</linearGradient>
<linearGradient id="paint59_linear_329_3640" x1="31.9687" y1="45.2992" x2="31.9687" y2="52.7916" gradientUnits="userSpaceOnUse">
<stop stop-color="#C41926" stop-opacity="0"/>
<stop offset="0.176" stop-color="#C01A27" stop-opacity="0.176"/>
<stop offset="0.376" stop-color="#B21E29" stop-opacity="0.376"/>
<stop offset="0.589" stop-color="#9B242C" stop-opacity="0.589"/>
<stop offset="0.808" stop-color="#7B2D31" stop-opacity="0.808"/>
<stop offset="1" stop-color="#593636"/>
</linearGradient>
<linearGradient id="paint60_linear_329_3640" x1="32.0773" y1="45.3288" x2="37.654" y2="50.9054" gradientUnits="userSpaceOnUse">
<stop stop-color="#C41926" stop-opacity="0"/>
<stop offset="0.176" stop-color="#C01A27" stop-opacity="0.176"/>
<stop offset="0.376" stop-color="#B21E29" stop-opacity="0.376"/>
<stop offset="0.589" stop-color="#9B242C" stop-opacity="0.589"/>
<stop offset="0.808" stop-color="#7B2D31" stop-opacity="0.808"/>
<stop offset="1" stop-color="#593636"/>
</linearGradient>
<linearGradient id="paint61_linear_329_3640" x1="30.6997" y1="43.8826" x2="35.7667" y2="48.9496" gradientUnits="userSpaceOnUse">
<stop stop-color="#FEF0AE"/>
<stop offset="1" stop-color="#FFBF51"/>
</linearGradient>
<linearGradient id="paint62_linear_329_3640" x1="34.6841" y1="47.866" x2="31.4348" y2="44.6167" gradientUnits="userSpaceOnUse">
<stop stop-color="#FEA613" stop-opacity="0"/>
<stop offset="0.177" stop-color="#FDA116" stop-opacity="0.177"/>
<stop offset="0.394" stop-color="#FA921D" stop-opacity="0.394"/>
<stop offset="0.632" stop-color="#F4792A" stop-opacity="0.633"/>
<stop offset="0.885" stop-color="#ED573B" stop-opacity="0.885"/>
<stop offset="1" stop-color="#E94444"/>
</linearGradient>
<linearGradient id="paint63_linear_329_3640" x1="62.4945" y1="37.7647" x2="57.4275" y2="42.8316" gradientUnits="userSpaceOnUse">
<stop stop-color="#FEF0AE"/>
<stop offset="1" stop-color="#FFBF51"/>
</linearGradient>
<linearGradient id="paint64_linear_329_3640" x1="58.5109" y1="41.7481" x2="61.7602" y2="38.4988" gradientUnits="userSpaceOnUse">
<stop stop-color="#FEA613" stop-opacity="0"/>
<stop offset="0.177" stop-color="#FDA116" stop-opacity="0.177"/>
<stop offset="0.394" stop-color="#FA921D" stop-opacity="0.394"/>
<stop offset="0.632" stop-color="#F4792A" stop-opacity="0.633"/>
<stop offset="0.885" stop-color="#ED573B" stop-opacity="0.885"/>
<stop offset="1" stop-color="#E94444"/>
</linearGradient>
<linearGradient id="paint65_linear_329_3640" x1="55.6245" y1="43.4331" x2="59.4897" y2="51.8019" gradientUnits="userSpaceOnUse">
<stop stop-color="#A2E62E"/>
<stop offset="0.123" stop-color="#97DE30"/>
<stop offset="0.34" stop-color="#79CB36"/>
<stop offset="0.623" stop-color="#4AAB3F"/>
<stop offset="0.961" stop-color="#09804C"/>
<stop offset="1" stop-color="#017B4E"/>
</linearGradient>
<linearGradient id="paint66_linear_329_3640" x1="61.2364" y1="45.9208" x2="65.2696" y2="47.3324" gradientUnits="userSpaceOnUse">
<stop stop-color="#026841" stop-opacity="0"/>
<stop offset="0.324" stop-color="#046842" stop-opacity="0.324"/>
<stop offset="0.551" stop-color="#0E6546" stop-opacity="0.551"/>
<stop offset="0.748" stop-color="#1D614C" stop-opacity="0.748"/>
<stop offset="0.926" stop-color="#335C54" stop-opacity="0.926"/>
<stop offset="1" stop-color="#3E5959"/>
</linearGradient>
<linearGradient id="paint67_linear_329_3640" x1="57.1746" y1="46.7432" x2="57.1746" y2="48.7896" gradientUnits="userSpaceOnUse">
<stop stop-color="#026841" stop-opacity="0"/>
<stop offset="0.324" stop-color="#046842" stop-opacity="0.324"/>
<stop offset="0.551" stop-color="#0E6546" stop-opacity="0.551"/>
<stop offset="0.748" stop-color="#1D614C" stop-opacity="0.748"/>
<stop offset="0.926" stop-color="#335C54" stop-opacity="0.926"/>
<stop offset="1" stop-color="#3E5959"/>
</linearGradient>
<linearGradient id="paint68_linear_329_3640" x1="56.3525" y1="43.2111" x2="52.8124" y2="43.9057" gradientUnits="userSpaceOnUse">
<stop stop-color="#026841" stop-opacity="0"/>
<stop offset="0.324" stop-color="#046842" stop-opacity="0.324"/>
<stop offset="0.551" stop-color="#0E6546" stop-opacity="0.551"/>
<stop offset="0.748" stop-color="#1D614C" stop-opacity="0.748"/>
<stop offset="0.926" stop-color="#335C54" stop-opacity="0.926"/>
<stop offset="1" stop-color="#3E5959"/>
</linearGradient>
<linearGradient id="paint69_linear_329_3640" x1="59.0676" y1="49.188" x2="55.4154" y2="48.1124" gradientUnits="userSpaceOnUse">
<stop stop-color="#026841" stop-opacity="0"/>
<stop offset="0.324" stop-color="#046842" stop-opacity="0.324"/>
<stop offset="0.551" stop-color="#0E6546" stop-opacity="0.551"/>
<stop offset="0.748" stop-color="#1D614C" stop-opacity="0.748"/>
<stop offset="0.926" stop-color="#335C54" stop-opacity="0.926"/>
<stop offset="1" stop-color="#3E5959"/>
</linearGradient>
<linearGradient id="paint70_linear_329_3640" x1="61.2648" y1="45.1735" x2="61.2648" y2="42.8423" gradientUnits="userSpaceOnUse">
<stop stop-color="#026841" stop-opacity="0"/>
<stop offset="0.324" stop-color="#046842" stop-opacity="0.324"/>
<stop offset="0.551" stop-color="#0E6546" stop-opacity="0.551"/>
<stop offset="0.748" stop-color="#1D614C" stop-opacity="0.748"/>
<stop offset="0.926" stop-color="#335C54" stop-opacity="0.926"/>
<stop offset="1" stop-color="#3E5959"/>
</linearGradient>
<linearGradient id="paint71_linear_329_3640" x1="50.3743" y1="45.0175" x2="50.3743" y2="48.5893" gradientUnits="userSpaceOnUse">
<stop stop-color="#5A5A5A"/>
<stop offset="1" stop-color="#444444"/>
</linearGradient>
<linearGradient id="paint72_linear_329_3640" x1="50.2405" y1="46.6695" x2="48.1717" y2="48.7383" gradientUnits="userSpaceOnUse">
<stop stop-color="#433F43" stop-opacity="0"/>
<stop offset="0.317" stop-color="#3B373B" stop-opacity="0.317"/>
<stop offset="0.822" stop-color="#242324" stop-opacity="0.822"/>
<stop offset="1" stop-color="#1A1A1A"/>
</linearGradient>
<linearGradient id="paint73_linear_329_3640" x1="50.393" y1="46.6091" x2="50.793" y2="48.3869" gradientUnits="userSpaceOnUse">
<stop stop-color="#433F43" stop-opacity="0"/>
<stop offset="0.317" stop-color="#3B373B" stop-opacity="0.317"/>
<stop offset="0.822" stop-color="#242324" stop-opacity="0.822"/>
<stop offset="1" stop-color="#1A1A1A"/>
</linearGradient>
<linearGradient id="paint74_linear_329_3640" x1="10.7779" y1="31.4704" x2="11.4002" y2="49.3371" gradientUnits="userSpaceOnUse">
<stop stop-color="#A2E62E"/>
<stop offset="0.123" stop-color="#97DE30"/>
<stop offset="0.34" stop-color="#79CB36"/>
<stop offset="0.623" stop-color="#4AAB3F"/>
<stop offset="0.961" stop-color="#09804C"/>
<stop offset="1" stop-color="#017B4E"/>
</linearGradient>
<linearGradient id="paint75_linear_329_3640" x1="15.5504" y1="43.34" x2="11.3281" y2="53.4289" gradientUnits="userSpaceOnUse">
<stop stop-color="#026841" stop-opacity="0"/>
<stop offset="0.324" stop-color="#046842" stop-opacity="0.324"/>
<stop offset="0.551" stop-color="#0E6546" stop-opacity="0.551"/>
<stop offset="0.748" stop-color="#1D614C" stop-opacity="0.748"/>
<stop offset="0.926" stop-color="#335C54" stop-opacity="0.926"/>
<stop offset="1" stop-color="#3E5959"/>
</linearGradient>
<linearGradient id="paint76_linear_329_3640" x1="7.14339" y1="38.2645" x2="14.3434" y2="55.4645" gradientUnits="userSpaceOnUse">
<stop stop-color="#026841" stop-opacity="0"/>
<stop offset="0.324" stop-color="#046842" stop-opacity="0.324"/>
<stop offset="0.551" stop-color="#0E6546" stop-opacity="0.551"/>
<stop offset="0.748" stop-color="#1D614C" stop-opacity="0.748"/>
<stop offset="0.926" stop-color="#335C54" stop-opacity="0.926"/>
<stop offset="1" stop-color="#3E5959"/>
</linearGradient>
<linearGradient id="paint77_linear_329_3640" x1="5.29521" y1="35.33" x2="12.0952" y2="49.8633" gradientUnits="userSpaceOnUse">
<stop stop-color="#026841" stop-opacity="0"/>
<stop offset="0.324" stop-color="#046842" stop-opacity="0.324"/>
<stop offset="0.551" stop-color="#0E6546" stop-opacity="0.551"/>
<stop offset="0.748" stop-color="#1D614C" stop-opacity="0.748"/>
<stop offset="0.926" stop-color="#335C54" stop-opacity="0.926"/>
<stop offset="1" stop-color="#3E5959"/>
</linearGradient>
<linearGradient id="paint78_linear_329_3640" x1="4.04832" y1="33.9915" x2="8.27046" y2="43.1471" gradientUnits="userSpaceOnUse">
<stop stop-color="#026841" stop-opacity="0"/>
<stop offset="0.324" stop-color="#046842" stop-opacity="0.324"/>
<stop offset="0.551" stop-color="#0E6546" stop-opacity="0.551"/>
<stop offset="0.748" stop-color="#1D614C" stop-opacity="0.748"/>
<stop offset="0.926" stop-color="#335C54" stop-opacity="0.926"/>
<stop offset="1" stop-color="#3E5959"/>
</linearGradient>
<linearGradient id="paint79_linear_329_3640" x1="14.3607" y1="44.698" x2="9.29377" y2="49.7649" gradientUnits="userSpaceOnUse">
<stop stop-color="#FEF0AE"/>
<stop offset="1" stop-color="#FFBF51"/>
</linearGradient>
<linearGradient id="paint80_linear_329_3640" x1="10.3773" y1="48.6814" x2="13.6266" y2="45.4321" gradientUnits="userSpaceOnUse">
<stop stop-color="#FEA613" stop-opacity="0"/>
<stop offset="0.177" stop-color="#FDA116" stop-opacity="0.177"/>
<stop offset="0.394" stop-color="#FA921D" stop-opacity="0.394"/>
<stop offset="0.632" stop-color="#F4792A" stop-opacity="0.633"/>
<stop offset="0.885" stop-color="#ED573B" stop-opacity="0.885"/>
<stop offset="1" stop-color="#E94444"/>
</linearGradient>
<linearGradient id="paint81_linear_329_3640" x1="33.8705" y1="51.2991" x2="36.2084" y2="65.6185" gradientUnits="userSpaceOnUse">
<stop stop-color="#EAF9FA"/>
<stop offset="1" stop-color="#B3DAFE"/>
</linearGradient>
<linearGradient id="paint82_linear_329_3640" x1="34.0002" y1="57.9056" x2="34.0002" y2="63.5519" gradientUnits="userSpaceOnUse">
<stop stop-color="#B3DAFE" stop-opacity="0"/>
<stop offset="0.133" stop-color="#ACD8FE" stop-opacity="0.133"/>
<stop offset="0.321" stop-color="#9AD1FE" stop-opacity="0.321"/>
<stop offset="0.542" stop-color="#7BC5FE" stop-opacity="0.542"/>
<stop offset="0.786" stop-color="#51B6FE" stop-opacity="0.786"/>
<stop offset="1" stop-color="#26A6FE"/>
</linearGradient>
<linearGradient id="paint83_linear_329_3640" x1="56.7452" y1="60.8011" x2="61.9227" y2="63.8293" gradientUnits="userSpaceOnUse">
<stop stop-color="#B3DAFE" stop-opacity="0"/>
<stop offset="0.133" stop-color="#ACD8FE" stop-opacity="0.133"/>
<stop offset="0.321" stop-color="#9AD1FE" stop-opacity="0.321"/>
<stop offset="0.542" stop-color="#7BC5FE" stop-opacity="0.542"/>
<stop offset="0.786" stop-color="#51B6FE" stop-opacity="0.786"/>
<stop offset="1" stop-color="#26A6FE"/>
</linearGradient>
<clipPath id="clip0_329_3640">
<rect width="68" height="68" fill="white"/>
</clipPath>
</defs>
</svg>
