<svg width="24" height="24" viewBox="0 0 24 24" fill="none" xmlns="http://www.w3.org/2000/svg">
<g id="noodles">
<path id="Vector (Stroke)" fill-rule="evenodd" clip-rule="evenodd" d="M22.9756 1.7807C23.0968 2.31952 22.7583 2.85459 22.2195 2.97583L17 4.15022V11.0002H22C22.5523 11.0002 23 11.4479 23 12.0002C23 14.9572 22.1064 17.7174 20.2355 19.7487C18.3522 21.7936 15.5698 23.0002 12 23.0002C8.43014 23.0002 5.6477 21.7936 3.76441 19.7487C1.89352 17.7174 0.999973 14.9572 0.999973 12.0002C0.999973 11.4479 1.44769 11.0002 1.99997 11.0002H2.99997V7.30022L2.21948 7.47583C1.68067 7.59706 1.1456 7.25854 1.02436 6.71973C0.90313 6.18091 1.24165 5.64584 1.78046 5.52461L2.99997 5.25022V5.00022C2.99997 4.44793 3.44769 4.00022 3.99997 4.00022C4.48528 4.00022 4.88985 4.34593 4.98083 4.80452L6.99997 4.35022V4.00022C6.99997 3.44793 7.44769 3.00022 7.99997 3.00022C8.51888 3.00022 8.94547 3.39545 8.99514 3.9013L11 3.45022V3.00022C11 2.44793 11.4477 2.00022 12 2.00022C12.5523 2.00022 13 2.44793 13 3.00022L15 2.55022V2.00022C15 1.44793 15.4477 1.00022 16 1.00022C16.5523 1.00022 17 1.44793 17 2.00022V2.10022L21.7805 1.02461C22.3193 0.903374 22.8543 1.24189 22.9756 1.7807ZM15 4.60022L13 5.05022V11.0002H15V4.60022ZM3.04033 13.0002C3.21648 15.1471 3.96647 17.0159 5.23555 18.3938C6.68559 19.9683 8.90315 21.0002 12 21.0002C15.0968 21.0002 17.3144 19.9683 18.7644 18.3938C20.0335 17.0159 20.7835 15.1471 20.9596 13.0002H3.04033ZM4.99997 11.0002H6.99997V6.40022L4.99997 6.85022V11.0002ZM8.99997 5.95022V11.0002H11V5.50022L8.99997 5.95022Z" fill="#FF6839"/>
<path id="Vector (Stroke)_2" d="M5.2355 18.3936C3.96643 17.0157 3.21644 15.1468 3.04028 13H20.9596C20.7834 15.1468 20.0334 17.0157 18.7644 18.3936C17.3143 19.9681 15.0967 21 11.9999 21C8.90311 21 6.68554 19.9681 5.2355 18.3936Z" fill="#FFEBE5"/>
</g>
</svg>
