<svg width="72" height="72" viewBox="0 0 72 72" fill="none" xmlns="http://www.w3.org/2000/svg">
<g id="Frame">
<g clip-path="url(#clip0_295_775)">
<g id="Clip path group">
<g id="Group">
<g id="Group_2">
<g id="Group_3">
<path id="Vector" d="M-2.2924 48.824C-2.11915 48.4685 -1.77412 48.2278 -1.38063 48.1879C-0.987148 48.1479 -0.60083 48.3142 -0.359615 48.6277C2.26018 52.0314 8.76492 60.4827 11.6493 64.2303C11.9148 64.5753 11.9613 65.0413 11.769 65.432C11.5768 65.8227 11.2127 66.0241 10.7772 66.0241C9.08194 66.0241 6.47888 66.0254 5.15862 66.0254C4.44931 66.0254 4.12578 65.7406 3.69314 65.1785C2.03901 63.0294 -2.16628 57.5657 -3.98848 55.1983C-4.51764 54.5107 -4.61203 53.5828 -4.23182 52.8028C-3.68606 51.683 -2.88794 50.0458 -2.2924 48.824Z" fill="#EBF5FF"/>
</g>
<g id="Group_4">
<path id="Vector_2" d="M7.65328 59.0348L11.6405 64.2152C11.8662 64.5201 11.9631 65.1 11.7997 65.4453C11.6364 65.7906 11.24 66.0251 10.8701 66.0251C9.42992 66.0251 6.19462 66.0103 5.07292 66.0103C4.47031 66.0103 4.05936 65.7108 3.69184 65.214L-0.950195 59.0703L6.95729 59.0348H7.65328Z" fill="#D6EAFF"/>
</g>
<g id="Group_5">
<path id="Vector_3" d="M6.68114 57.7101L11.6876 64.1965C11.8894 64.4586 12.0717 65.0052 11.8266 65.4512C11.6673 65.7411 11.3236 66.0345 10.9928 66.0345L6.53418 66.1111L6.68114 57.7101Z" fill="url(#paint0_linear_295_775)"/>
</g>
</g>
<g id="Group_6">
<g id="Group_7">
<path id="Vector_4" d="M66.5861 7.97742C67.3028 7.97742 67.9789 8.31022 68.4161 8.87817C69.9638 10.8891 73.698 15.7405 75.4009 17.953C75.9356 18.6478 76.031 19.5853 75.6468 20.3733C75.0641 21.5688 74.1927 23.3566 73.5558 24.663C73.3806 25.0222 73.0321 25.2654 72.6345 25.3058C72.2369 25.3462 71.8467 25.178 71.603 24.8613C69.0472 21.5408 62.8507 13.4902 60.0385 9.83634C59.7702 9.4877 59.7232 9.01687 59.9175 8.6221C60.1117 8.22732 60.5135 7.97742 60.9534 7.97742H66.5861Z" fill="#EBF5FF"/>
</g>
<g id="Group_8">
<path id="Vector_5" d="M71.1774 12.4634L71.1701 24.1751L61.3457 11.5283L70.4742 11.5526L71.1774 12.4634Z" fill="#B3D8FF"/>
</g>
<g id="Group_9">
<path id="Vector_6" d="M67.328 19.276L64.3262 15.4163L67.3308 15.4192L67.328 19.276Z" fill="#80C0FF"/>
</g>
</g>
<g id="Mask group">
<mask id="mask0_295_775" style="mask-type:alpha" maskUnits="userSpaceOnUse" x="-3" y="8" width="78" height="59">
<g id="Group_10">
<g id="__lottie_element_1720">
<g id="Group_11">
<g id="Group_12">
<path id="Vector_7" d="M9.2782 10.4837C10.0183 8.96522 11.5596 8.00195 13.2487 8.00195H51.1348C52.5058 8.00195 53.7991 8.6384 54.6352 9.72485C58.4315 14.6572 69.337 28.8262 73.5292 34.2728C74.552 35.6016 74.734 37.395 73.9994 38.9023C71.2793 44.4829 64.6665 58.0489 61.9366 63.6496C61.1964 65.168 59.6552 66.1313 57.966 66.1313C50.2903 66.1313 28.8066 66.1313 21.8898 66.1313C20.5184 66.1313 19.2247 65.4942 18.3886 64.4072C14.4385 59.2716 2.75456 44.0814 -1.60846 38.4092C-2.63045 37.0804 -2.81235 35.2877 -2.07782 33.7809C0.524406 28.4422 6.6661 15.8424 9.2782 10.4837Z" fill="#EBF5FF"/>
</g>
</g>
</g>
</g>
</mask>
<g mask="url(#mask0_295_775)">
<g id="Group_13">
<g id="Group_14">
<g id="Group_15">
<path id="Vector_8" d="M8.10393 9.32381C8.87791 7.73595 10.4896 6.72864 12.256 6.72864H51.8741C53.3078 6.72864 54.6602 7.39418 55.5345 8.5303C59.5045 13.6881 70.9085 28.5049 75.2924 34.2006C76.362 35.5901 76.5523 37.4655 75.7841 39.0417C72.9396 44.8774 66.0245 59.0636 63.1698 64.9204C62.3958 66.5082 60.7841 67.5155 59.0177 67.5155C50.991 67.5155 28.5251 67.5155 21.2921 67.5155C19.858 67.5155 18.5051 66.8493 17.6308 65.7126C13.5001 60.3423 1.28204 44.4576 -3.28045 38.5261C-4.34917 37.1365 -4.53938 35.2619 -3.77127 33.6862C-1.05007 28.1034 5.37241 14.9275 8.10393 9.32381Z" fill="#EBF5FF"/>
</g>
<g id="Group_16">
<path id="Vector_9" d="M43.1867 68.7558H21.3395C19.9047 68.7558 18.5511 68.0626 17.6764 66.8795L12.6973 60.1455H43.1867V68.7558Z" fill="#D6EAFF"/>
</g>
</g>
</g>
</g>
</g>
<g id="Mask group_2">
<mask id="mask1_295_775" style="mask-type:alpha" maskUnits="userSpaceOnUse" x="-3" y="8" width="78" height="59">
<g id="Group_17">
<g id="__lottie_element_1726">
<g id="Group_18">
<g id="Group_19">
<path id="Vector_10" d="M9.2782 10.4837C10.0183 8.96522 11.5596 8.00195 13.2487 8.00195H51.1348C52.5058 8.00195 53.7991 8.6384 54.6352 9.72485C58.4315 14.6572 69.337 28.8262 73.5292 34.2728C74.552 35.6016 74.734 37.395 73.9994 38.9023C71.2793 44.4829 64.6665 58.0489 61.9366 63.6496C61.1964 65.168 59.6552 66.1313 57.966 66.1313C50.2903 66.1313 28.8066 66.1313 21.8898 66.1313C20.5184 66.1313 19.2247 65.4942 18.3886 64.4072C14.4385 59.2716 2.75456 44.0814 -1.60846 38.4092C-2.63045 37.0804 -2.81235 35.2877 -2.07782 33.7809C0.524406 28.4422 6.6661 15.8424 9.2782 10.4837Z" fill="#EBF5FF"/>
</g>
</g>
</g>
</g>
</mask>
<g mask="url(#mask1_295_775)">
<g id="Group_20">
<g id="Group_21">
<g id="Group_22">
<path id="Vector_11" d="M35.3586 46.5743H2.04021L-4.24113 38.408C-5.26219 37.0804 -5.44393 35.2892 -4.71006 33.7838L6.11193 11.5819H35.3586V46.5743Z" fill="#80C0FF"/>
</g>
<g id="Group_23">
<path id="Vector_12" d="M34.22 46.5743H27.402L10.0272 11.582H16.8452L34.22 46.5743ZM-0.152344 25.5802L3.95482 17.1543L18.5628 46.5743H10.2719L-0.152344 25.5802Z" fill="#B3D8FF"/>
</g>
</g>
</g>
</g>
</g>
<g id="Mask group_3">
<mask id="mask2_295_775" style="mask-type:alpha" maskUnits="userSpaceOnUse" x="-3" y="8" width="78" height="59">
<g id="Group_24">
<g id="__lottie_element_1732">
<g id="Group_25">
<g id="Group_26">
<path id="Vector_13" d="M9.2782 10.4837C10.0183 8.96522 11.5596 8.00195 13.2487 8.00195H51.1348C52.5058 8.00195 53.7991 8.6384 54.6352 9.72485C58.4315 14.6572 69.337 28.8262 73.5292 34.2728C74.552 35.6016 74.734 37.395 73.9994 38.9023C71.2793 44.4829 64.6665 58.0489 61.9366 63.6496C61.1964 65.168 59.6552 66.1313 57.966 66.1313C50.2903 66.1313 28.8066 66.1313 21.8898 66.1313C20.5184 66.1313 19.2247 65.4942 18.3886 64.4072C14.4385 59.2716 2.75456 44.0814 -1.60846 38.4092C-2.63045 37.0804 -2.81235 35.2877 -2.07782 33.7809C0.524406 28.4422 6.6661 15.8424 9.2782 10.4837Z" fill="#EBF5FF"/>
</g>
</g>
</g>
</g>
</mask>
<g mask="url(#mask2_295_775)">
<g id="Group_27">
<g id="Group_28">
<g id="Group_29">
<path id="Vector_14" d="M42.7637 11.582L57.4938 11.5641L71.1617 28.9588V47.3213L61.9162 65.8922C61.1767 67.4093 59.6369 68.3717 57.9493 68.3717H48.9385H42.7683L42.7637 11.582Z" fill="#B3D8FF"/>
</g>
<g id="Group_30">
<path id="Vector_15" d="M70.0098 41.1043C70.0098 40.9051 69.9307 40.7141 69.7899 40.5733C69.649 40.4323 69.4581 40.3533 69.2589 40.3533H69.2587C69.0595 40.3533 68.8685 40.4325 68.7277 40.5733C68.5867 40.7141 68.5078 40.9051 68.5078 41.1043C68.5078 42.3362 68.5078 44.7721 68.5078 46.0039C68.5078 46.2031 68.5869 46.3941 68.7277 46.5349C68.8685 46.6757 69.0595 46.7549 69.2587 46.7549H69.2589C69.4581 46.7549 69.6491 46.6757 69.7899 46.5349C69.9307 46.3941 70.0098 46.2031 70.0098 46.0039C70.0098 44.7721 70.0098 42.3362 70.0098 41.1043Z" fill="#80C0FF"/>
</g>
<g id="Group_31">
<path id="Vector_16" d="M55.5796 68.3717H46.6121L46.6074 44.9518H55.575L55.5796 68.3717ZM67.3422 54.7616L61.9166 65.8922C61.2397 67.2809 59.8922 68.2049 58.3746 68.3513L58.3701 44.9518H67.3376L67.3422 54.7616ZM55.575 42.1566H46.6074V15.4253H55.575V42.1566ZM60.808 15.4285L67.3422 24.1432L67.3376 42.1566H58.3701V15.4252H58.9857L60.808 15.4285Z" fill="#80C0FF"/>
</g>
</g>
</g>
</g>
</g>
<g id="Group_32">
<g id="Group_33">
<path id="Vector_17" d="M44.26 32.4423C44.3012 32.3918 44.3441 32.3422 44.3887 32.2936C45.6064 30.9684 47.6709 30.8809 48.9961 32.0987C50.3213 33.3163 50.4088 35.3808 49.1911 36.7061L41.408 45.1764L36.8581 40.9958L44.26 32.4423Z" fill="url(#paint1_linear_295_775)"/>
</g>
</g>
<g id="Group_34">
<g id="Group_35">
<path id="Vector_18" d="M45.1211 32.8228C45.1211 32.1423 45.5522 31.5363 46.1951 31.3132C47.9615 30.7001 51.58 29.5464 51.58 29.5464H56.2646L62.3656 31.3432V54.2603H45.1211V32.8228Z" fill="#3367BA"/>
</g>
</g>
<g id="Group_36">
<g id="Group_37">
<path id="Vector_19" d="M49.3608 23.6223C49.3608 23.6223 46.5023 22.4211 46.6063 19.0359C46.6063 19.0359 48.8772 17.6782 50.488 16.609C52.5174 15.2621 55.6054 16.1742 56.1948 18.3906C56.1948 18.3906 57.4275 18.8021 57.8623 20.3919C58.2295 21.7347 56.9187 23.6223 56.9187 23.6223H49.3608Z" fill="#3367BA"/>
</g>
<g id="Group_38">
<path id="Vector_20" d="M56.2436 25.4583L56.2643 29.5464C56.2643 29.5464 54.4132 30.9061 53.4176 31.6079C53.2563 31.7216 53.0555 31.7648 52.8616 31.7276C52.6676 31.6904 52.4972 31.576 52.3893 31.4105C52.0347 30.8665 51.5797 30.1687 51.5797 30.1687V28.7113C50.8852 28.7988 50.1859 28.5901 49.6527 28.1364C49.1195 27.6827 48.8017 27.0256 48.7769 26.326C48.7023 24.2136 48.6113 21.644 48.6113 21.644C52.5176 22.2496 53.8487 20.13 53.8487 20.13C54.3107 21.6299 54.7805 22.584 55.1799 23.1895C55.4079 22.9927 55.7049 22.8736 56.0295 22.8736C56.7476 22.8736 57.3305 23.4565 57.3305 24.1747C57.3305 24.8199 56.8599 25.356 56.2436 25.4583Z" fill="#FF9D81"/>
</g>
<g id="Group_39">
<path id="Vector_21" d="M51.5791 28.7114C51.5791 28.7114 52.786 28.6322 53.6678 28.0702C53.6678 28.0702 53.7631 29.7529 51.5791 30.1686V28.7114Z" fill="#FF6A45"/>
</g>
</g>
<g id="Mask group_4">
<mask id="mask3_295_775" style="mask-type:alpha" maskUnits="userSpaceOnUse" x="-3" y="8" width="78" height="59">
<g id="Group_40">
<g id="__lottie_element_1748">
<g id="Group_41">
<g id="Group_42">
<path id="Vector_22" d="M9.2782 10.4837C10.0183 8.96522 11.5596 8.00195 13.2487 8.00195H51.1348C52.5058 8.00195 53.7991 8.6384 54.6352 9.72485C58.4315 14.6572 69.337 28.8262 73.5292 34.2728C74.552 35.6016 74.734 37.395 73.9994 38.9023C71.2793 44.4829 64.6665 58.0489 61.9366 63.6496C61.1964 65.168 59.6552 66.1313 57.966 66.1313C50.2903 66.1313 28.8066 66.1313 21.8898 66.1313C20.5184 66.1313 19.2247 65.4942 18.3886 64.4072C14.4385 59.2716 2.75456 44.0814 -1.60846 38.4092C-2.63045 37.0804 -2.81235 35.2877 -2.07782 33.7809C0.524406 28.4422 6.6661 15.8424 9.2782 10.4837Z" fill="#EBF5FF"/>
</g>
</g>
</g>
</g>
</mask>
<g mask="url(#mask3_295_775)">
<g id="Group_43">
<g id="Group_44">
<g id="Group_45">
<path id="Vector_23" d="M53.2931 58.9005L52.0883 67.2162H44.4258L45.2163 54.3286L53.2931 58.9005Z" fill="#FFC44C"/>
</g>
<g id="Group_46">
<path id="Vector_24" d="M47.2694 58.9113C46.685 58.9113 46.1259 58.6729 45.7211 58.2514C45.3163 57.8299 45.1011 57.2615 45.1248 56.6777V54.2711H62.3692L62.8442 65.2162L60.8858 67.2715H54.9227C54.9227 67.2715 53.9394 60.7398 53.7199 59.2757C53.6886 59.0662 53.5086 58.9113 53.2968 58.9113H47.2694Z" fill="#FFC44C"/>
</g>
</g>
</g>
</g>
</g>
<g id="Group_47">
<g id="Group_48">
<path id="Vector_25" d="M24.9255 35.8875C24.9256 35.6846 25.0062 35.4899 25.1497 35.3465C25.2932 35.2031 25.4879 35.1225 25.6908 35.1226C28.4554 35.1236 37.7644 35.1268 37.7644 35.1268L37.7588 51.3124L25.6852 51.3082C25.4822 51.3081 25.2876 51.2274 25.1442 51.0839C25.0008 50.9403 24.9203 50.7456 24.9204 50.5427C24.9213 47.8188 24.9246 38.6114 24.9255 35.8875Z" fill="url(#paint2_linear_295_775)"/>
</g>
<g id="Group_49">
<path id="Vector_26" d="M36.029 35.8913C36.0291 35.6884 36.1098 35.4937 36.2534 35.3503C36.3969 35.2069 36.5916 35.1263 36.7945 35.1264C39.383 35.1273 47.795 35.1302 50.3836 35.1311C50.5865 35.1312 50.7811 35.2119 50.9246 35.3555C51.068 35.499 51.1486 35.6937 51.1485 35.8966C51.1475 38.6205 51.1443 47.8279 51.1434 50.5518C51.1433 50.7547 51.0626 50.9494 50.919 51.0928C50.7755 51.2362 50.5808 51.3168 50.3779 51.3167C47.7894 51.3158 39.3774 51.3129 36.7888 51.312C36.5859 51.3119 36.3913 51.2312 36.2478 51.0876C36.1044 50.9441 36.0238 50.7494 36.0239 50.5465C36.0248 47.8226 36.0281 38.6152 36.029 35.8913Z" fill="url(#paint3_linear_295_775)"/>
</g>
<g id="Group_50">
<path id="Vector_27" d="M41.1387 35.1279L46.0355 35.1296L46.0339 39.519L41.1371 39.5173L41.1387 35.1279Z" fill="url(#paint4_linear_295_775)"/>
</g>
</g>
<g id="Group_51">
<g id="Group_52">
<path id="Vector_28" d="M65.021 46.0063C65.0396 47.7114 63.725 49.1304 61.9653 49.1291C58.5393 49.1681 58.7352 43.4377 58.7352 43.4377L58.7168 42.9851L61.8982 42.9506L64.9875 42.917L65.021 46.0063Z" fill="url(#paint5_linear_295_775)"/>
</g>
<g id="Group_53">
<path id="Vector_29" d="M64.9674 40.9717L64.9885 42.9169L58.7178 42.985L58.6387 41.0404L64.9674 40.9717Z" fill="url(#paint6_linear_295_775)"/>
</g>
<g id="Group_54">
<path id="Vector_30" d="M58.6382 41.0402L58.3833 34.771C58.3787 34.706 58.376 34.6404 58.3753 34.5745C58.3557 32.7748 59.8008 31.298 61.6005 31.2784C63.4001 31.2589 64.8769 32.704 64.8965 34.5036L64.9667 40.9715L58.6382 41.0402Z" fill="url(#paint7_linear_295_775)"/>
</g>
</g>
<g id="Group_55">
<g id="Group_56">
<path id="Vector_31" d="M64.9744 45.6693C65.1871 47.3612 63.9863 48.9073 62.2945 49.12L51.7693 50.4434C51.7693 50.4434 50.0814 50.7423 49.5342 50.8392C49.4221 50.859 49.3078 50.8631 49.1945 50.8512C48.7611 50.8062 47.6048 50.6859 46.9339 50.6161C46.6347 50.5849 46.3891 50.3658 46.3241 50.0722C46.191 49.471 45.9639 48.4463 45.8069 47.7373C45.7614 47.5316 45.8001 47.3164 45.9147 47.1397C46.0292 46.9629 46.2099 46.8396 46.4163 46.7972L48.6904 46.3301L48.3574 44.9576C48.2965 44.7065 48.4144 44.4461 48.6434 44.3263C48.6645 44.3154 48.6857 44.3042 48.7067 44.2933C48.9222 44.1806 49.1859 44.219 49.3601 44.3888L50.8897 45.8785L51.1877 45.8173L58.4367 43.8338C58.4367 43.8338 60.0721 43.4412 61.1231 43.2188C64.7444 42.453 64.9744 45.6693 64.9744 45.6693Z" fill="url(#paint8_linear_295_775)"/>
</g>
</g>
<g id="Mask group_5">
<mask id="mask4_295_775" style="mask-type:alpha" maskUnits="userSpaceOnUse" x="-3" y="8" width="78" height="59">
<g id="Group_57">
<g id="__lottie_element_1777">
<g id="Group_58">
<g id="Group_59">
<path id="Vector_32" d="M9.2782 10.4837C10.0183 8.96522 11.5596 8.00195 13.2487 8.00195H51.1348C52.5058 8.00195 53.7991 8.6384 54.6352 9.72485C58.4315 14.6572 69.337 28.8262 73.5292 34.2728C74.552 35.6016 74.734 37.395 73.9994 38.9023C71.2793 44.4829 64.6665 58.0489 61.9366 63.6496C61.1964 65.168 59.6552 66.1313 57.966 66.1313C50.2903 66.1313 28.8066 66.1313 21.8898 66.1313C20.5184 66.1313 19.2247 65.4942 18.3886 64.4072C14.4385 59.2716 2.75456 44.0814 -1.60846 38.4092C-2.63045 37.0804 -2.81235 35.2877 -2.07782 33.7809C0.524406 28.4422 6.6661 15.8424 9.2782 10.4837Z" fill="#EBF5FF"/>
</g>
</g>
</g>
</g>
</mask>
<g mask="url(#mask4_295_775)">
<g id="Group_60">
<g id="Group_61">
<g id="Group_62">
<path id="Vector_33" d="M15.0509 59.3671L14.7144 61.6124L11.668 57.6517L15.0509 59.3671Z" fill="url(#paint9_linear_295_775)"/>
</g>
<g id="Group_63">
<path id="Vector_34" d="M24.0684 67.883H21.9137C20.5434 67.883 19.251 67.2464 18.4157 66.1604L14.0628 60.7651L13.9782 60.083C13.9276 59.6742 13.5801 59.3672 13.1682 59.3672H12.9876L8.58984 53.8942L23.644 53.9052L24.0569 66.1052L24.0684 67.883Z" fill="url(#paint10_linear_295_775)"/>
</g>
</g>
</g>
</g>
</g>
<g id="Group_64">
<g id="Group_65">
<path id="Vector_35" d="M5.08357 33.9671C5.39647 32.1948 7.08951 31.01 8.8618 31.3229C10.6341 31.6358 11.8188 33.3288 11.5059 35.1011C11.4944 35.1661 11.481 35.2303 11.4659 35.2937L9.87226 42.9753L16.5567 43.3432L16.9619 47.9881L6.39419 48.91C4.69544 49.0582 3.1961 47.7993 3.04792 46.1007C3.02205 45.8041 3.03901 45.5137 3.0937 45.2355L5.08357 33.9671Z" fill="url(#paint11_linear_295_775)"/>
</g>
</g>
<g id="Mask group_6">
<mask id="mask5_295_775" style="mask-type:alpha" maskUnits="userSpaceOnUse" x="-3" y="8" width="78" height="59">
<g id="Group_66">
<g id="__lottie_element_1788">
<g id="Group_67">
<g id="Group_68">
<path id="Vector_36" d="M9.2782 10.4837C10.0183 8.96522 11.5596 8.00195 13.2487 8.00195H51.1348C52.5058 8.00195 53.7991 8.6384 54.6352 9.72485C58.4315 14.6572 69.337 28.8262 73.5292 34.2728C74.552 35.6016 74.734 37.395 73.9994 38.9023C71.2793 44.4829 64.6665 58.0489 61.9366 63.6496C61.1964 65.168 59.6552 66.1313 57.966 66.1313C50.2903 66.1313 28.8066 66.1313 21.8898 66.1313C20.5184 66.1313 19.2247 65.4942 18.3886 64.4072C14.4385 59.2716 2.75456 44.0814 -1.60846 38.4092C-2.63045 37.0804 -2.81235 35.2877 -2.07782 33.7809C0.524406 28.4422 6.6661 15.8424 9.2782 10.4837Z" fill="#EBF5FF"/>
</g>
</g>
</g>
</g>
</mask>
<g mask="url(#mask5_295_775)">
<g id="Group_69">
<g id="Group_70">
<g id="Group_71">
<path id="Vector_37" d="M23.6436 32.8975C23.6436 32.1812 23.1668 31.5524 22.4772 31.3589C20.6362 30.8424 17.2632 29.896 17.2632 29.896H12.5784C12.5784 29.896 10.3306 30.4225 8.5463 30.8405C7.28857 31.1352 6.3991 32.2569 6.3991 33.5488C6.3991 37.0519 6.39844 53.9309 6.39844 53.9309L10.345 53.9053H23.6436C23.6436 53.9053 23.6436 37.5353 23.6436 32.8975Z" fill="url(#paint12_linear_295_775)"/>
</g>
</g>
</g>
</g>
</g>
<g id="Group_72">
<g id="Group_73">
<path id="Vector_38" d="M12.5998 26.817C12.5998 26.817 10.8552 25.2725 10.8594 21.7306H17.9588L15.4584 26.817H12.5998Z" fill="url(#paint13_linear_295_775)"/>
</g>
<g id="Group_74">
<path id="Vector_39" d="M17.132 22.6717L18.16 20.23L20.2649 21.4048C20.2649 21.4048 20.1661 24.1946 20.0872 26.4261C20.0624 27.1257 19.7447 27.7828 19.2115 28.2365C18.6783 28.6902 17.9789 28.8989 17.2844 28.8114V29.9193H12.5996L12.62 26.8405H15.3769L16.1464 25.0129C15.6931 24.779 15.3769 24.3024 15.3769 23.7736C15.3769 23.0554 15.9599 22.5116 16.678 22.5597C16.8376 22.5704 16.9907 22.6094 17.132 22.6717Z" fill="#FF9D81"/>
</g>
<g id="Group_75">
<g id="Group_76">
<path id="Vector_40" d="M18.4473 21.8057C18.4473 21.0139 19.089 20.3722 19.8807 20.3722C20.3193 20.3722 20.8017 20.3722 21.2402 20.3722C22.0319 20.3722 22.6737 21.0139 22.6737 21.8057V21.8058H18.4473V21.8057Z" fill="url(#paint14_linear_295_775)"/>
</g>
<g id="Group_77">
<path id="Vector_41" d="M20.2029 20.0048C20.2029 19.0757 19.8338 18.1848 19.1769 17.5278C18.5199 16.8709 17.629 16.5018 16.6999 16.5018H14.333C13.4039 16.5018 12.513 16.8709 11.8561 17.5278C11.1991 18.1848 10.8301 19.0757 10.8301 20.0048V21.8058H20.2029V20.0048Z" fill="url(#paint15_linear_295_775)"/>
</g>
<g id="Group_78">
<path id="Vector_42" d="M15.7061 16.5018H16.6991C17.6282 16.5018 18.5191 16.8709 19.1761 17.5278C19.833 18.1848 20.2021 19.0757 20.2021 20.0048V21.8058H19.209V20.0048C19.209 19.0757 18.8399 18.1848 18.183 17.5278C17.5261 16.8709 16.6351 16.5018 15.7061 16.5018Z" fill="url(#paint16_linear_295_775)"/>
</g>
</g>
<g id="Group_79">
<path id="Vector_43" d="M17.2643 28.788L15.9941 28.5719L17.0273 29.9332H17.2643V28.788Z" fill="url(#paint17_linear_295_775)"/>
</g>
<g id="Group_80">
<path id="Vector_44" d="M12.1024 29.291C12.1595 29.1617 12.2876 29.0782 12.4289 29.0782H17.2636L17.9556 30.09H11.75C11.75 30.09 11.9715 29.5878 12.1024 29.291Z" fill="url(#paint18_linear_295_775)"/>
</g>
</g>
<g id="Group_81">
<g id="Group_82">
<path id="Vector_45" d="M35.3984 44.1475L36.7307 42.479C36.8825 42.2889 37.1393 42.218 37.3672 42.303C37.3894 42.3113 37.4118 42.3197 37.4341 42.3279C37.6762 42.4183 37.8256 42.6619 37.7964 42.9187L37.6367 44.322L39.9515 44.5026C40.1614 44.5189 40.3559 44.6188 40.4916 44.7799C40.6273 44.9411 40.6926 45.1497 40.673 45.3595C40.6054 46.0825 40.5076 47.1276 40.4503 47.7406C40.4223 48.0401 40.2057 48.288 39.9128 48.3561C39.2558 48.5088 38.1236 48.772 37.6991 48.8707C37.5882 48.8965 37.4742 48.9068 37.3604 48.901C36.8054 48.8729 35.0934 48.7863 35.0934 48.7863L35.0951 44.1238L35.3984 44.1475Z" fill="url(#paint19_linear_295_775)"/>
</g>
<g id="Group_83">
<path id="Vector_46" d="M18.5282 35.3794C18.0631 33.6409 19.0968 31.8516 20.8354 31.3865C22.5739 30.9214 24.363 31.9551 24.8283 33.6936C24.8453 33.7574 24.8604 33.8212 24.8734 33.8851L27.0156 42.9659L35.0945 44.1236L35.0929 48.7862L24.485 48.7824C23.036 48.7819 21.8188 47.7818 21.4864 46.4349L18.5282 35.3794Z" fill="url(#paint20_linear_295_775)"/>
</g>
</g>
<g id="Group_84">
<g id="Group_85">
<path id="Vector_47" d="M27.0488 55.2025C28.7772 54.999 30.579 55.5572 31.9076 56.8786C33.2363 58.1999 33.8043 59.9987 33.6103 61.7282C31.8819 61.9317 30.0801 61.3735 28.7514 60.0521C27.4228 58.7307 26.8547 56.932 27.0488 55.2025Z" fill="#26B782"/>
</g>
</g>
<g id="Group_86">
<g id="Group_87">
<path id="Vector_48" d="M39.8022 55.1855C38.073 54.9867 36.2724 55.5499 34.9472 56.8751C33.622 58.2003 33.0588 60.0008 33.2576 61.73C34.9868 61.9288 36.7874 61.3656 38.1126 60.0404C39.4378 58.7152 40.001 56.9147 39.8022 55.1855Z" fill="#AAF750"/>
</g>
</g>
<g id="Group_88">
<g id="Group_89">
<path id="Vector_49" d="M33.6092 52.4747C34.9726 53.5569 35.8474 55.2283 35.8474 57.1025C35.8474 58.9766 34.9726 60.6481 33.6092 61.7302C32.2459 60.6481 31.3711 58.9766 31.3711 57.1025C31.3711 55.2283 32.2459 53.5569 33.6092 52.4747Z" fill="#7CE854"/>
</g>
</g>
<g id="Mask group_7">
<mask id="mask6_295_775" style="mask-type:alpha" maskUnits="userSpaceOnUse" x="-3" y="8" width="78" height="59">
<g id="Group_90">
<g id="__lottie_element_1813">
<g id="Group_91">
<g id="Group_92">
<path id="Vector_50" d="M9.2782 10.4837C10.0183 8.96522 11.5596 8.00195 13.2487 8.00195H51.1348C52.5058 8.00195 53.7991 8.6384 54.6352 9.72485C58.4315 14.6572 69.337 28.8262 73.5292 34.2728C74.552 35.6016 74.734 37.395 73.9994 38.9023C71.2793 44.4829 64.6665 58.0489 61.9366 63.6496C61.1964 65.168 59.6552 66.1313 57.966 66.1313C50.2903 66.1313 28.8066 66.1313 21.8898 66.1313C20.5184 66.1313 19.2247 65.4942 18.3886 64.4072C14.4385 59.2716 2.75456 44.0814 -1.60846 38.4092C-2.63045 37.0804 -2.81235 35.2877 -2.07782 33.7809C0.524406 28.4422 6.6661 15.8424 9.2782 10.4837Z" fill="#EBF5FF"/>
</g>
</g>
</g>
</g>
</mask>
<g mask="url(#mask6_295_775)">
<g id="Group_93">
<g id="Group_94">
<g id="Group_95">
<path id="Vector_51" d="M40.382 61.8969C40.382 61.6284 40.2753 61.3709 40.0854 61.1811C39.8956 60.9912 39.6381 60.8845 39.3696 60.8845C36.8037 60.8845 30.0674 60.8845 27.5016 60.8845C27.233 60.8845 26.9756 60.9912 26.7857 61.1811C26.5958 61.3709 26.4892 61.6284 26.4892 61.8969C26.4892 63.2265 26.4873 67.2605 26.4873 67.2605H40.38L40.382 61.8969Z" fill="url(#paint21_linear_295_775)"/>
</g>
</g>
</g>
</g>
</g>
</g>
</g>
</g>
</g>
<defs>
<linearGradient id="paint0_linear_295_775" x1="-45636.7" y1="78937.3" x2="-45636.7" y2="78937.3" gradientUnits="userSpaceOnUse">
<stop stop-color="#3361AE"/>
<stop offset="0.5" stop-color="#28549D"/>
<stop offset="1" stop-color="#1D478B"/>
</linearGradient>
<linearGradient id="paint1_linear_295_775" x1="-50336.9" y1="34009.6" x2="-50336.9" y2="34009.6" gradientUnits="userSpaceOnUse">
<stop stop-color="white"/>
<stop offset="0.5" stop-color="#E5F7FF"/>
<stop offset="1" stop-color="#CCEEFF"/>
</linearGradient>
<linearGradient id="paint2_linear_295_775" x1="84.6569" y1="96.5694" x2="71.3283" y2="83.2314" gradientUnits="userSpaceOnUse">
<stop stop-color="#FFCA80"/>
<stop offset="0.5" stop-color="#EA9C48"/>
<stop offset="1" stop-color="#D46E11"/>
</linearGradient>
<linearGradient id="paint3_linear_295_775" x1="-44050.4" y1="-67794.2" x2="-44050.4" y2="-67794.2" gradientUnits="userSpaceOnUse">
<stop stop-color="#FFDBA9"/>
<stop offset="0.5" stop-color="#EBB176"/>
<stop offset="1" stop-color="#D78842"/>
</linearGradient>
<linearGradient id="paint4_linear_295_775" x1="-13462.8" y1="-11818.3" x2="-13462.8" y2="-11818.2" gradientUnits="userSpaceOnUse">
<stop stop-color="white"/>
<stop offset="0.5" stop-color="#E5F7FF"/>
<stop offset="1" stop-color="#CCEEFF"/>
</linearGradient>
<linearGradient id="paint5_linear_295_775" x1="-31059.2" y1="110482" x2="-65.8247" y2="38.4576" gradientUnits="userSpaceOnUse">
<stop stop-color="white"/>
<stop offset="0.5" stop-color="#EFFAFF"/>
<stop offset="1" stop-color="#DFF5FF"/>
</linearGradient>
<linearGradient id="paint6_linear_295_775" x1="-5675.26" y1="16444.5" x2="-5675.26" y2="16444.5" gradientUnits="userSpaceOnUse">
<stop stop-color="white"/>
<stop offset="0.5" stop-color="#EFFAFF"/>
<stop offset="1" stop-color="#DFF5FF"/>
</linearGradient>
<linearGradient id="paint7_linear_295_775" x1="61.6533" y1="36.1427" x2="61.3861" y2="45.3065" gradientUnits="userSpaceOnUse">
<stop stop-color="white"/>
<stop offset="0.5" stop-color="#EFFAFF"/>
<stop offset="1" stop-color="#DFF5FF"/>
</linearGradient>
<linearGradient id="paint8_linear_295_775" x1="60.9421" y1="57.1319" x2="61.4066" y2="46.0922" gradientUnits="userSpaceOnUse">
<stop stop-color="#FFBEAE"/>
<stop offset="0.23" stop-color="#FFB9A7"/>
<stop offset="0.46" stop-color="#FFB39F"/>
<stop offset="0.73" stop-color="#FFA48B"/>
<stop offset="1" stop-color="#FF9678"/>
</linearGradient>
<linearGradient id="paint9_linear_295_775" x1="-45907.4" y1="79208.8" x2="-45907.4" y2="79208.8" gradientUnits="userSpaceOnUse">
<stop stop-color="#3361AE"/>
<stop offset="0.5" stop-color="#28549D"/>
<stop offset="1" stop-color="#1D478B"/>
</linearGradient>
<linearGradient id="paint10_linear_295_775" x1="-28286.3" y1="49286.3" x2="-28286.3" y2="49286.3" gradientUnits="userSpaceOnUse">
<stop stop-color="#396FC6"/>
<stop offset="0.5" stop-color="#2C5DAC"/>
<stop offset="1" stop-color="#1F4B93"/>
</linearGradient>
<linearGradient id="paint11_linear_295_775" x1="9.81189" y1="32.1187" x2="5.45609" y2="48.4756" gradientUnits="userSpaceOnUse">
<stop stop-color="#FFC44C"/>
<stop offset="0.5" stop-color="#FFA532"/>
<stop offset="1" stop-color="#FF8618"/>
</linearGradient>
<linearGradient id="paint12_linear_295_775" x1="17.3852" y1="24.2645" x2="16.9526" y2="61.2459" gradientUnits="userSpaceOnUse">
<stop offset="0.5" stop-color="#FF6666"/>
<stop offset="0.75" stop-color="#F94669"/>
<stop offset="1" stop-color="#F4256B"/>
</linearGradient>
<linearGradient id="paint13_linear_295_775" x1="14.4598" y1="19.7197" x2="14.1522" y2="29.787" gradientUnits="userSpaceOnUse">
<stop stop-color="#396FC6"/>
<stop offset="0.5" stop-color="#2C5DAC"/>
<stop offset="1" stop-color="#1F4B93"/>
</linearGradient>
<linearGradient id="paint14_linear_295_775" x1="-4425.57" y1="-28006.6" x2="-4425.57" y2="-28006.5" gradientUnits="userSpaceOnUse">
<stop stop-color="#FFC44C"/>
<stop offset="0.5" stop-color="#FFA532"/>
<stop offset="1" stop-color="#FF8618"/>
</linearGradient>
<linearGradient id="paint15_linear_295_775" x1="15.5769" y1="16.1749" x2="15.5726" y2="22.3762" gradientUnits="userSpaceOnUse">
<stop offset="0.51" stop-color="#FF6666"/>
<stop offset="0.75" stop-color="#F94669"/>
<stop offset="1" stop-color="#F4256B"/>
</linearGradient>
<linearGradient id="paint16_linear_295_775" x1="-19260" y1="9879.7" x2="-19260" y2="9879.75" gradientUnits="userSpaceOnUse">
<stop stop-color="white"/>
<stop offset="0.5" stop-color="#E5F7FF"/>
<stop offset="1" stop-color="#CCEEFF"/>
</linearGradient>
<linearGradient id="paint17_linear_295_775" x1="6761.85" y1="-4900.36" x2="-65.8653" y2="37.0671" gradientUnits="userSpaceOnUse">
<stop stop-color="#FF653F"/>
<stop offset="0.5" stop-color="#FF6F4A"/>
<stop offset="1" stop-color="#FF7A55"/>
</linearGradient>
<linearGradient id="paint18_linear_295_775" x1="9256.92" y1="59101.1" x2="-65.8682" y2="37.0684" gradientUnits="userSpaceOnUse">
<stop stop-color="#FFC44C"/>
<stop offset="0.5" stop-color="#FFA532"/>
<stop offset="1" stop-color="#FF8618"/>
</linearGradient>
<linearGradient id="paint19_linear_295_775" x1="37.7629" y1="40.7525" x2="37.2234" y2="47.8041" gradientUnits="userSpaceOnUse">
<stop stop-color="#FFBEAE"/>
<stop offset="0.23" stop-color="#FFB9A7"/>
<stop offset="0.46" stop-color="#FFB39F"/>
<stop offset="0.73" stop-color="#FFA48B"/>
<stop offset="1" stop-color="#FF9678"/>
</linearGradient>
<linearGradient id="paint20_linear_295_775" x1="22.5153" y1="35.5053" x2="23.5911" y2="53.1339" gradientUnits="userSpaceOnUse">
<stop stop-color="#FFC44C"/>
<stop offset="0.5" stop-color="#FFA532"/>
<stop offset="1" stop-color="#FF8618"/>
</linearGradient>
<linearGradient id="paint21_linear_295_775" x1="-11347.7" y1="32513" x2="-11347.7" y2="32513" gradientUnits="userSpaceOnUse">
<stop stop-color="white"/>
<stop offset="0.5" stop-color="#E5F7FF"/>
<stop offset="1" stop-color="#CCEEFF"/>
</linearGradient>
<clipPath id="clip0_295_775">
<path d="M0 12C0 5.37258 5.37258 0 12 0H60C66.6274 0 72 5.37258 72 12V60C72 66.6274 66.6274 72 60 72H12C5.37258 72 0 66.6274 0 60V12Z" fill="white"/>
</clipPath>
</defs>
</svg>
