<svg width="132" height="132" viewBox="0 0 132 132" fill="none" xmlns="http://www.w3.org/2000/svg">
<g clip-path="url(#clip0_428_2300)">
<path d="M63.1645 5.6709C32.4513 5.6709 6.86211 27.593 1.18018 56.6425L80.523 129.584C106.967 122.042 126.329 97.7002 126.329 68.8355C126.329 33.9506 98.0494 5.6709 63.1645 5.6709Z" fill="#4826B2"/>
<path d="M68.5153 43.5866C66.8323 37.0087 58.7901 34.5353 53.6968 39.0251L42.9653 48.4847L44.2603 58.8452H67.9566C69.874 53.0911 69.6136 47.8794 68.5153 43.5866Z" fill="#FEF156"/>
<path d="M9.94073 43.5866C8.84245 47.8794 8.58206 53.0911 10.4994 58.8449H34.1957L35.4907 48.4845L24.7593 39.0251C19.6659 34.5353 11.6235 37.0087 9.94073 43.5866Z" fill="#FFC242"/>
<path d="M40.7988 44.4555H37.6571C33.0954 44.4555 29.3633 48.1879 29.3633 52.7493V57.706L39.228 64.8884L49.0929 57.706V52.7493C49.0926 48.1879 45.3605 44.4555 40.7988 44.4555ZM86.0655 4.17746C84.5666 2.92063 82.9218 1.92161 81.1771 1.2085L79.324 2.64039L79.4214 5.50443H79.4217C80.7216 6.03526 81.9534 6.78524 83.0842 7.73321C85.3001 9.59127 86.8287 11.9603 87.3889 14.4044C87.8947 16.6125 87.5281 18.5985 86.3553 19.9971C86.1724 20.2155 85.9713 20.418 85.7541 20.6024L85.7538 20.6027L86.1854 23.0527L88.7592 24.1389C89.1755 23.7851 89.5611 23.3968 89.9118 22.9779C92.0401 20.4398 92.7506 17.0268 91.9122 13.3677C91.1279 9.94473 89.0513 6.68082 86.0655 4.17746Z" fill="#FFDA4C"/>
<path d="M83.3653 17.3341C85.3458 15.8038 87.9796 15.7055 90.0236 16.8781L95.0372 13.155L92.7659 8.76341L82.7339 8.15085C78.8497 7.91366 75.3894 10.5872 74.6386 14.4056L71.7753 28.9695C71.5617 30.0559 71.5828 31.1754 71.8373 32.2529C72.0917 33.3305 72.5735 34.3412 73.2505 35.2173L100.407 70.3649C103.03 73.7597 107.908 74.3855 111.303 71.7625L122.439 63.1582L109.266 39.4392L90.086 27.2506C87.5171 28.7717 84.1583 28.1762 82.2861 25.753C80.2589 23.13 80.7423 19.3608 83.3653 17.3341Z" fill="#FC51A3"/>
<path d="M97.549 9.05529L92.7661 8.76318C91.2233 10.5186 89.2067 13.5709 90.0234 16.8778C90.7055 17.2691 91.3037 17.791 91.7838 18.4136C93.8105 21.0366 93.3271 24.8056 90.7041 26.8322C90.5067 26.9841 90.3 27.1236 90.0853 27.2499C90.0964 28.796 90.4661 30.4942 91.6172 31.9844L95.2111 36.6358L98.7447 37.5384L97.4281 43.3993C97.5542 43.7442 97.7325 44.0677 97.9566 44.3586C98.9484 45.6422 100.636 46.0699 102.078 45.5231L107.719 52.8246L110.941 53.0247L110.469 56.3835L113.4 60.1764C115.584 63.0038 119.199 64.0732 122.439 63.1575L128.981 58.1028C132.376 55.4798 133.002 50.6015 130.379 47.2066L103.222 12.0596C102.545 11.1834 101.689 10.4621 100.711 9.94391C99.7321 9.42577 98.6541 9.12279 97.549 9.05529Z" fill="#FD77A6"/>
<path d="M110.718 52.7361L110.054 55.8463L110.469 56.3839C111.289 57.4448 112.813 57.6402 113.874 56.8206C114.935 56.001 115.13 54.4766 114.311 53.4157L113.825 52.7869L110.718 52.7361ZM95.648 33.2313C95.3957 33.4261 95.1843 33.6688 95.0258 33.9454C94.8673 34.222 94.7649 34.5271 94.7243 34.8433C94.6838 35.1594 94.7059 35.4805 94.7894 35.7882C94.873 36.0958 95.0163 36.384 95.2113 36.6362L95.697 37.265L98.7446 37.5388L99.468 34.2055L99.0527 33.668C98.8578 33.4157 98.6152 33.2043 98.3386 33.0458C98.0621 32.8873 97.757 32.7849 97.4408 32.7443C97.1246 32.7038 96.8036 32.7259 96.496 32.8095C96.1883 32.893 95.9002 33.0363 95.648 33.2313Z" fill="#BBF0F9"/>
<path d="M104.217 42.3784L102.336 43.8314C101.351 44.5925 99.9305 44.4102 99.1692 43.4249C98.4078 42.4395 98.5901 41.0187 99.5752 40.2576L103.791 37.0002C104.852 36.1806 105.048 34.6561 104.228 33.5952C103.408 32.5343 101.884 32.3389 100.823 33.1585L99.4682 34.2055L95.6969 37.2649C93.4202 39.7683 93.1884 43.6247 95.3275 46.3933C97.7257 49.4971 102.201 50.071 105.305 47.6733L107.185 46.2203C108.17 45.4593 109.591 45.6415 110.353 46.6266C111.114 47.612 110.932 49.0328 109.946 49.7939L105.73 53.0513C104.67 53.8712 104.474 55.3953 105.294 56.4562C106.113 57.5171 107.638 57.7126 108.699 56.893L110.053 55.846L113.825 52.7865C116.102 50.2832 116.333 46.4268 114.194 43.6582C111.796 40.5546 107.32 39.9805 104.217 42.3784Z" fill="#E8F8FC"/>
<path d="M88.4121 24.4202C83.8308 27.96 76.3228 27.1603 70.7285 22.4694C67.7428 19.966 65.6666 16.7021 64.8821 13.2786C64.0437 9.61973 64.7542 6.20655 66.8824 3.66839C70.0326 -0.0887145 75.6434 -1.05319 81.1774 1.2086C81.7456 1.44236 82.198 1.89199 82.4352 2.45885C82.6723 3.02571 82.675 3.6635 82.4425 4.2323C82.21 4.80111 81.7614 5.25447 81.1951 5.49292C80.6288 5.73138 79.991 5.73546 79.4217 5.50427C75.7922 4.02082 72.2663 4.47121 70.4382 6.64973C69.2662 8.04785 68.8993 10.0338 69.4051 12.2419C69.9651 14.686 71.4937 17.055 73.7098 18.9131C77.6706 22.2342 82.9674 22.9736 85.7538 20.6025C86.7366 19.7711 88.195 19.8918 89.0244 20.8681C89.4229 21.337 89.6188 21.945 89.569 22.5584C89.5192 23.1717 89.2278 23.7402 88.7589 24.1387C88.6454 24.2356 88.5297 24.3292 88.4121 24.4202Z" fill="#FEF156"/>
<path d="M0.600586 77.545C2.48726 91.2222 8.75468 103.498 17.9377 112.918L25.2106 72.3232L0.600586 77.545Z" fill="#1D8DF2"/>
<path d="M94.6299 94.1982L96.4889 97.3123C96.7608 97.7677 97.2025 98.0964 97.7167 98.2262C98.2309 98.356 98.7756 98.2761 99.231 98.0043L106.299 93.7852C106.754 93.5133 107.083 93.0716 107.213 92.5573C107.343 92.043 107.263 91.4983 106.991 91.0429L105.132 87.9287C104.86 87.4734 104.418 87.1447 103.904 87.0149C103.39 86.8851 102.845 86.9649 102.39 87.2368L95.3218 91.4559C94.8664 91.7278 94.5377 92.1695 94.408 92.6838C94.2782 93.198 94.358 93.7428 94.6299 94.1982Z" fill="#FEF156"/>
<path d="M48.899 28.8532L50.7743 25.7489C50.9102 25.5241 51.0004 25.2748 51.0398 25.0151C51.0793 24.7555 51.0672 24.4906 51.0043 24.2357C50.9414 23.9807 50.8288 23.7406 50.6731 23.5292C50.5174 23.3177 50.3216 23.1389 50.0968 23.0032L43.0513 18.7467C42.8265 18.6109 42.5772 18.5206 42.3176 18.4812C42.0579 18.4417 41.7931 18.4538 41.5381 18.5167C41.2831 18.5796 41.0431 18.6922 40.8316 18.8479C40.6201 19.0036 40.4414 19.1994 40.3056 19.4242L38.4303 22.5285C38.2945 22.7533 38.2042 23.0026 38.1648 23.2622C38.1253 23.5219 38.1374 23.7867 38.2003 24.0417C38.2632 24.2967 38.3758 24.5368 38.5315 24.7482C38.6872 24.9597 38.883 25.1384 39.1078 25.2742L46.1533 29.5307C46.3781 29.6665 46.6274 29.7567 46.887 29.7962C47.1467 29.8357 47.4115 29.8236 47.6665 29.7607C47.9215 29.6977 48.1615 29.5852 48.373 29.4295C48.5845 29.2738 48.7632 29.078 48.899 28.8532Z" fill="#FD77A6"/>
<path d="M118.655 21.5213L115.257 20.2537C115.011 20.1618 114.749 20.1194 114.486 20.1287C114.224 20.138 113.966 20.199 113.727 20.3081C113.488 20.4171 113.273 20.5722 113.094 20.7644C112.915 20.9566 112.776 21.1822 112.684 21.4283L109.806 29.1405C109.715 29.3865 109.672 29.6482 109.681 29.9107C109.691 30.1732 109.752 30.4312 109.861 30.6701C109.97 30.909 110.125 31.1241 110.317 31.3031C110.509 31.482 110.735 31.6214 110.981 31.7132L114.379 32.9808C114.625 33.0727 114.887 33.1151 115.149 33.1058C115.412 33.0965 115.67 33.0355 115.909 32.9264C116.148 32.8174 116.363 32.6623 116.542 32.4701C116.721 32.2779 116.86 32.0523 116.952 31.8062L119.829 24.094C119.921 23.848 119.963 23.5863 119.954 23.3238C119.945 23.0613 119.884 22.8033 119.775 22.5644C119.666 22.3255 119.511 22.1104 119.318 21.9314C119.126 21.7525 118.901 21.6131 118.655 21.5213Z" fill="#95DB76"/>
<path d="M17.9375 77.545V112.918C21.3729 116.445 25.2072 119.561 29.363 122.201L39.2277 70.6924L17.9375 77.545Z" fill="#27A6FF"/>
<path d="M29.3633 122.201C35.335 125.991 41.9858 128.808 49.0929 130.425L59.8414 69.0615L29.3633 77.5448V122.201Z" fill="#FFDA4C"/>
<path d="M66.9379 69.0617L49.0927 77.545V130.425C53.7097 131.474 58.4298 132.002 63.1646 132C69.1848 132 75.0077 131.157 80.5231 129.584V77.545L66.9379 69.0617ZM15.7789 77.545H0.600446C0.201413 74.659 0.000793554 71.749 6.69253e-07 68.8356C-0.000593667 64.7427 0.394668 60.6594 1.18027 56.6426H15.7789L22.7641 66.6155L15.7789 77.545Z" fill="#27A6FF"/>
<path d="M29.3629 56.6426H15.7791C14.0115 56.6426 12.5654 58.0887 12.5654 59.8562V74.3316C12.5654 76.0989 14.0112 77.545 15.7785 77.5452H29.3629L36.65 67.6277L29.3629 56.6426Z" fill="#02C0FC"/>
<path d="M49.0929 56.6426H29.3633V77.545H49.0929L56.9394 67.6275L49.0929 56.6426Z" fill="#FEF156"/>
<path d="M81.5697 56.6426H49.0928V77.545H81.5694C83.337 77.545 84.7831 76.0989 84.7831 74.3314V59.856C84.7831 58.0886 83.337 56.6426 81.5697 56.6426ZM70.6815 112.918H60.0333C58.3317 112.918 56.9396 114.311 56.9396 116.012V119.107C56.9396 120.809 58.3317 122.201 60.0333 122.201H70.6815C72.383 122.201 73.7752 120.809 73.7752 119.107V116.012C73.7752 114.31 72.383 112.918 70.6815 112.918Z" fill="#02C0FC"/>
</g>
<defs>
<clipPath id="clip0_428_2300">
<rect width="132" height="132" fill="white"/>
</clipPath>
</defs>
</svg>
