<svg width="20" height="19" viewBox="0 0 20 19" fill="none" xmlns="http://www.w3.org/2000/svg">
<path fill-rule="evenodd" clip-rule="evenodd" d="M3.75004 7.91667C3.75004 7.45643 4.12314 7.08333 4.58337 7.08333H12.9167C13.3769 7.08333 13.75 7.45643 13.75 7.91667V14.5833C13.75 15.0436 13.3769 15.4167 12.9167 15.4167H4.58337C4.12314 15.4167 3.75004 15.0436 3.75004 14.5833V7.91667ZM5.41671 8.75V13.75H12.0834V8.75H5.41671Z" fill="#6839FF"/>
<path d="M15.8334 6.66667C16.2936 6.66667 16.6667 7.03976 16.6667 7.5V7.91667C16.6667 8.3769 16.2936 8.75 15.8334 8.75C15.3731 8.75 15 8.3769 15 7.91667V7.5C15 7.03976 15.3731 6.66667 15.8334 6.66667Z" fill="#6839FF"/>
<path d="M16.6667 10.4167C16.6667 9.95643 16.2936 9.58333 15.8334 9.58333C15.3731 9.58333 15 9.95643 15 10.4167V10.8333C15 11.2936 15.3731 11.6667 15.8334 11.6667C16.2936 11.6667 16.6667 11.2936 16.6667 10.8333V10.4167Z" fill="#6839FF"/>
<path fill-rule="evenodd" clip-rule="evenodd" d="M14.7298 1.44763C15.0691 1.13664 15.092 0.609501 14.781 0.270235C14.47 -0.0690313 13.9429 -0.0919507 13.6036 0.219043L9.59245 3.89593L6.36369 1.23219C6.00868 0.939307 5.48345 0.989671 5.19056 1.34469C4.89768 1.6997 4.94804 2.22493 5.30306 2.51782L7.30166 4.16667H2.50004C1.57957 4.16667 0.833374 4.91284 0.833374 5.83333V16.6667C0.833374 17.5872 1.57957 18.3333 2.50004 18.3333H17.5C18.4205 18.3333 19.1667 17.5872 19.1667 16.6667V5.83333C19.1667 4.91285 18.4205 4.16667 17.5 4.16667H11.7636L14.7298 1.44763ZM17.5 5.83333V16.6667H2.50004V5.83333H17.5Z" fill="#6839FF"/>
</svg>
