<svg width="25" height="24" viewBox="0 0 25 24" fill="none" xmlns="http://www.w3.org/2000/svg">
<path d="M20.2806 7.71938L15.0306 2.46938C14.9609 2.39975 14.8782 2.34454 14.7871 2.3069C14.6961 2.26926 14.5985 2.24992 14.5 2.25H5.5C5.10218 2.25 4.72064 2.40804 4.43934 2.68934C4.15804 2.97064 4 3.35218 4 3.75V20.25C4 20.6478 4.15804 21.0294 4.43934 21.3107C4.72064 21.592 5.10218 21.75 5.5 21.75H19C19.3978 21.75 19.7794 21.592 20.0607 21.3107C20.342 21.0294 20.5 20.6478 20.5 20.25V8.25C20.5001 8.15148 20.4807 8.05391 20.4431 7.96286C20.4055 7.87182 20.3503 7.78908 20.2806 7.71938ZM15.25 4.81031L17.9397 7.5H15.25V4.81031ZM19 20.25H5.5V3.75H13.75V8.25C13.75 8.44891 13.829 8.63968 13.9697 8.78033C14.1103 8.92098 14.3011 9 14.5 9H19V20.25ZM16 12.75C16 12.9489 15.921 13.1397 15.7803 13.2803C15.6397 13.421 15.4489 13.5 15.25 13.5H9.25C9.05109 13.5 8.86032 13.421 8.71967 13.2803C8.57902 13.1397 8.5 12.9489 8.5 12.75C8.5 12.5511 8.57902 12.3603 8.71967 12.2197C8.86032 12.079 9.05109 12 9.25 12H15.25C15.4489 12 15.6397 12.079 15.7803 12.2197C15.921 12.3603 16 12.5511 16 12.75ZM16 15.75C16 15.9489 15.921 16.1397 15.7803 16.2803C15.6397 16.421 15.4489 16.5 15.25 16.5H9.25C9.05109 16.5 8.86032 16.421 8.71967 16.2803C8.57902 16.1397 8.5 15.9489 8.5 15.75C8.5 15.5511 8.57902 15.3603 8.71967 15.2197C8.86032 15.079 9.05109 15 9.25 15H15.25C15.4489 15 15.6397 15.079 15.7803 15.2197C15.921 15.3603 16 15.5511 16 15.75Z" fill="#6B7280"/>
</svg>
