<svg width="26" height="26" viewBox="0 0 26 26" fill="none" xmlns="http://www.w3.org/2000/svg">
<path d="M0 4C0 1.79086 1.79086 0 4 0H22C24.2091 0 26 1.79086 26 4V22C26 24.2091 24.2091 26 22 26H4C1.79086 26 0 24.2091 0 22V4Z" fill="#F9FAFB"/>
<path d="M13.625 12.9546V21.125C13.625 21.2907 13.5592 21.4497 13.4419 21.5669C13.3247 21.6841 13.1658 21.75 13 21.75C12.8342 21.75 12.6753 21.6841 12.5581 21.5669C12.4409 21.4497 12.375 21.2907 12.375 21.125V12.9546C11.2803 12.7966 10.286 12.2298 9.59232 11.3683C8.89864 10.5068 8.55703 9.41445 8.63624 8.31121C8.71545 7.20796 9.2096 6.17566 10.0192 5.42206C10.8289 4.66847 11.8939 4.24951 13 4.24951C14.1061 4.24951 15.1711 4.66847 15.9808 5.42206C16.7904 6.17566 17.2846 7.20796 17.3638 8.31121C17.443 9.41445 17.1014 10.5068 16.4077 11.3683C15.714 12.2298 14.7198 12.7966 13.625 12.9546Z" fill="#0C111C"/>
</svg>
