<svg width="24" height="24" viewBox="0 0 24 24" fill="none" xmlns="http://www.w3.org/2000/svg">
<path d="M12.2316 16.0664L12.3075 17.416L8.82468 21.3285L8.75391 16.9662L12.2316 16.0664Z" fill="url(#paint0_linear_2939_514)"/>
<path d="M1.9248 16.0918L12.3074 17.4161L11.9738 11.2998L1.9248 13.6351V16.0918Z" fill="url(#paint1_linear_2939_514)"/>
<path d="M18.4792 14.0089L17.4177 14.0948C17.3671 14.0982 17.3267 14.1201 17.2963 14.1605C17.2627 14.201 17.2509 14.2464 17.261 14.297L17.4632 15.3332C17.4733 15.3888 17.4581 15.4444 17.4126 15.4899C17.3722 15.5304 17.3166 15.5455 17.261 15.5354L16.2146 15.3433C16.1641 15.3332 16.1186 15.3433 16.0781 15.3737C16.0377 15.4074 16.0141 15.4495 16.0074 15.5L15.9366 16.5515C15.9316 16.6121 15.9012 16.6576 15.8507 16.6879C15.8001 16.7183 15.7395 16.7233 15.6889 16.693L14.7285 16.2381C14.6813 16.2145 14.6341 16.2128 14.587 16.233C14.5398 16.2532 14.5078 16.2886 14.4909 16.3391L14.1472 17.3349C14.127 17.3906 14.0815 17.4259 14.0259 17.4411C13.9703 17.4613 13.9147 17.4462 13.8692 17.4057L13.0604 16.7183C13.02 16.6846 12.9745 16.6711 12.9239 16.6778C12.8734 16.6846 12.8329 16.7098 12.8026 16.7536L12.2162 17.6231C12.1809 17.6736 12.1303 17.6989 12.0697 17.6989C12.009 17.6989 11.9585 17.6736 11.9281 17.6231L11.3266 16.7486C11.2963 16.7081 11.2558 16.6846 11.2053 16.6778C11.1514 16.6711 11.1059 16.6846 11.0688 16.7183L10.2752 17.4057C10.2297 17.4462 10.1741 17.4563 10.1134 17.4411C10.0578 17.4259 10.0123 17.3906 9.99718 17.3349L9.63829 16.329C9.62144 16.2819 9.58943 16.2482 9.54225 16.2279C9.49507 16.2077 9.44789 16.2094 9.40071 16.233L8.45546 16.693C8.39986 16.7183 8.34425 16.7183 8.2937 16.6879C8.2381 16.6576 8.20777 16.6121 8.20272 16.5515L8.12184 15.4899C8.11847 15.4394 8.09488 15.3989 8.05107 15.3686C8.01064 15.3349 7.96514 15.3231 7.91459 15.3332L6.8834 15.5354C6.82275 15.5455 6.76714 15.5304 6.72671 15.4849C6.68627 15.4444 6.66605 15.3888 6.67616 15.3332L6.8733 14.2869C6.88004 14.2363 6.86825 14.1908 6.83792 14.1504C6.80759 14.11 6.76546 14.0864 6.71155 14.0796L5.66519 14.0089C5.60453 14.0038 5.55399 13.9735 5.52366 13.9229C5.49333 13.8724 5.49333 13.8117 5.5186 13.7612L5.9786 12.8008C5.99881 12.7536 5.99881 12.7064 5.9786 12.6592C5.95838 12.6121 5.92468 12.58 5.8775 12.5632L4.88169 12.2195C4.82609 12.1992 4.78565 12.1538 4.77049 12.0981C4.75533 12.0425 4.76543 11.9869 4.80587 11.9414L5.49839 11.1327C5.53209 11.0922 5.54556 11.0467 5.53882 10.9962C5.52871 10.9456 5.50344 10.9052 5.463 10.8749L4.58852 10.2885C4.54302 10.2531 4.5127 10.2026 4.5127 10.1419C4.5127 10.0813 4.53797 10.0307 4.58852 10.0004L5.463 9.39887C5.50681 9.36854 5.53208 9.3281 5.53882 9.27755C5.54556 9.22363 5.53209 9.17814 5.49839 9.14107L4.80587 8.34241C4.77049 8.30197 4.75533 8.24637 4.77049 8.18571C4.78565 8.13011 4.82609 8.08461 4.88169 8.06945L5.88255 7.71056C5.92973 7.69371 5.96343 7.66169 5.98365 7.61451C6.00387 7.56734 6.00218 7.52016 5.9786 7.47298L5.5186 6.52773C5.49333 6.47212 5.49839 6.41652 5.52366 6.36597C5.55399 6.31037 5.60453 6.28004 5.66519 6.27498L6.72165 6.19411C6.7722 6.19074 6.81432 6.16715 6.84802 6.12334C6.87835 6.0829 6.88846 6.03741 6.87835 5.98686L6.68121 4.95568C6.6711 4.89502 6.68627 4.83941 6.72671 4.79898C6.76714 4.75854 6.82275 4.73832 6.8834 4.74843L7.9247 4.94557C7.97862 4.95231 8.0258 4.94051 8.06624 4.91018C8.10667 4.87985 8.12858 4.83773 8.13195 4.78381L8.20777 3.73746C8.21283 3.6768 8.24315 3.62626 8.2937 3.59593C8.34425 3.5656 8.39986 3.5656 8.45546 3.59087L9.41588 4.05086C9.45969 4.07108 9.50686 4.07108 9.55741 4.05086C9.60459 4.03064 9.6366 3.99694 9.65345 3.94976L9.99718 2.95396C10.0174 2.89836 10.0578 2.85792 10.1134 2.84276C10.1741 2.82759 10.2297 2.8377 10.2752 2.87814L11.084 3.57065C11.121 3.60435 11.1665 3.61783 11.2204 3.61109C11.271 3.60098 11.3098 3.57571 11.3367 3.53527L11.9281 2.66078C11.9635 2.61529 12.0141 2.58496 12.0697 2.58496C12.1303 2.58496 12.1809 2.61024 12.2162 2.66078L12.8178 3.53527C12.8481 3.57908 12.8885 3.60435 12.9391 3.61109C12.9896 3.61783 13.0351 3.60435 13.0756 3.57065L13.8692 2.87814C13.9147 2.84276 13.9703 2.82759 14.0259 2.84276C14.0865 2.85792 14.127 2.89836 14.1472 2.95396L14.501 3.95482C14.5179 4.002 14.5499 4.0357 14.5971 4.05592C14.6476 4.07614 14.6965 4.07445 14.7437 4.05086L15.6889 3.59087C15.7395 3.5656 15.8001 3.57065 15.8507 3.59593C15.9012 3.62626 15.9316 3.6768 15.9366 3.73746L16.0225 4.79392C16.0259 4.84447 16.0478 4.88659 16.0883 4.92029C16.1287 4.95062 16.1742 4.96073 16.2247 4.95062L17.261 4.75348C17.3166 4.73832 17.3722 4.75854 17.4177 4.79898C17.4581 4.83941 17.4733 4.89502 17.4632 4.95568L17.2711 5.99697C17.261 6.05089 17.2711 6.09807 17.3014 6.1385C17.3351 6.17894 17.3772 6.20085 17.4278 6.20422L18.4792 6.28004C18.5398 6.28509 18.5853 6.31542 18.6157 6.36597C18.646 6.41652 18.651 6.47212 18.6207 6.52773L18.1658 7.48814C18.1422 7.53195 18.1405 7.57913 18.1607 7.62968C18.1809 7.67686 18.2163 7.70887 18.2669 7.72572L19.2627 8.06945C19.3183 8.08967 19.3537 8.13011 19.3688 8.18571C19.389 8.24637 19.3739 8.30197 19.3334 8.34746L18.646 9.15624C18.6123 9.19331 18.5988 9.2388 18.6056 9.29272C18.6123 9.34327 18.6376 9.38202 18.6814 9.40898L19.5508 10.0004C19.6014 10.0358 19.6266 10.0863 19.6266 10.1419C19.6266 10.2026 19.6014 10.2531 19.5508 10.2885L18.6763 10.89C18.6359 10.9204 18.6123 10.9608 18.6056 11.0114C18.5988 11.0619 18.6123 11.1074 18.646 11.1478L19.3334 11.9414C19.3739 11.9869 19.384 12.0425 19.3688 12.0981C19.3537 12.1588 19.3183 12.1992 19.2627 12.2195L18.2618 12.5733C18.2113 12.5902 18.1759 12.6222 18.1557 12.6693C18.1355 12.7199 18.1371 12.7688 18.1607 12.8159L18.6207 13.7612C18.646 13.8117 18.646 13.8724 18.6157 13.9229C18.5853 13.9735 18.5398 14.0038 18.4792 14.0089Z" fill="url(#paint2_linear_2939_514)"/>
<path d="M18.358 13.776L17.9435 12.9217C17.8879 12.8105 17.8879 12.6892 17.9334 12.578C17.9789 12.4668 18.0648 12.3859 18.176 12.3455L19.0859 12.0219L18.4591 11.3042C18.3832 11.2132 18.3479 11.0969 18.363 10.9806C18.3782 10.8593 18.4389 10.7582 18.54 10.6875L19.3336 10.1466L18.545 9.61079C18.4439 9.54508 18.3782 9.44398 18.363 9.32266C18.3479 9.20135 18.3832 9.08509 18.4591 8.9941L19.0859 8.2662L18.1861 7.95281C18.0699 7.91742 17.9839 7.83149 17.9384 7.72028C17.8929 7.60908 17.8929 7.48776 17.9435 7.38161L18.358 6.51218L17.4127 6.44647C17.2914 6.43636 17.1853 6.38075 17.1094 6.28471C17.0387 6.18867 17.0083 6.07241 17.0286 5.95615L17.2055 5.01089L16.2754 5.19287C16.1541 5.21309 16.0378 5.18781 15.9418 5.11199C15.8457 5.04122 15.7851 4.93507 15.78 4.81376L15.7042 3.85839L14.8499 4.27289C14.7387 4.32344 14.6174 4.32849 14.5062 4.283C14.395 4.23751 14.3141 4.15157 14.2737 4.03531L13.9502 3.1305L13.2324 3.75224C13.1414 3.83312 13.0251 3.8685 12.9089 3.85334C12.7876 3.83817 12.6865 3.77246 12.6157 3.67642L12.0748 2.88281L11.539 3.67137C11.4733 3.76741 11.3722 3.83312 11.2509 3.84828C11.1296 3.86345 11.0133 3.83312 10.9223 3.75224L10.1944 3.1305L9.88103 4.0252C9.84565 4.14146 9.75972 4.2274 9.64851 4.27794C9.5373 4.32344 9.41598 4.31838 9.30983 4.26784L8.4404 3.85334L8.37469 4.80365C8.36458 4.92496 8.30898 5.03111 8.21294 5.10188C8.11689 5.1777 8.00063 5.20298 7.88437 5.18276L6.93912 5.00584L7.1211 5.94098C7.14131 6.05724 7.11604 6.17856 7.04022 6.2746C6.96945 6.37064 6.8633 6.42625 6.74198 6.43636L5.78662 6.51218L6.20111 7.36645C6.25166 7.4726 6.25672 7.59391 6.21123 7.70512C6.16573 7.81632 6.0798 7.90226 5.96354 7.9427L5.05872 8.26115L5.68047 8.97893C5.76135 9.06992 5.79673 9.18618 5.78157 9.3075C5.7664 9.42376 5.70069 9.52991 5.60465 9.59562L4.81104 10.1415L5.59959 10.6723C5.69563 10.7431 5.76135 10.8442 5.77651 10.9604C5.79168 11.0817 5.76135 11.198 5.68047 11.289L5.05872 12.0219L5.95343 12.3303C6.06969 12.3707 6.15562 12.4516 6.20617 12.5628C6.25167 12.674 6.24661 12.7953 6.19606 12.9065L5.78157 13.7709L6.73187 13.8366C6.85319 13.8467 6.95934 13.9023 7.03011 13.9984C7.10593 14.0944 7.1312 14.2107 7.11098 14.332L6.93406 15.2773L7.86921 15.0953C7.98547 15.07 8.10679 15.1003 8.20283 15.1711C8.29887 15.2469 8.35447 15.3531 8.36458 15.4744L8.4404 16.4298L9.29467 16.0153C9.40082 15.9597 9.52214 15.9597 9.63334 16.0051C9.74455 16.0506 9.83048 16.1366 9.87092 16.2478L10.1894 17.1576L10.9072 16.5308C10.9981 16.455 11.1144 16.4196 11.2357 16.4348C11.352 16.45 11.4581 16.5106 11.5238 16.6117L12.0698 17.4053L12.6005 16.6168C12.6713 16.5157 12.7724 16.45 12.8937 16.4348C13.01 16.4196 13.1262 16.455 13.2172 16.5308L13.9502 17.1576L14.2585 16.2579C14.2989 16.1416 14.3798 16.0557 14.491 16.0102C14.6022 15.9647 14.7236 15.9647 14.8348 16.0153L15.6991 16.4298L15.7649 15.4845C15.775 15.3632 15.8306 15.257 15.9266 15.1812C16.0226 15.1104 16.1389 15.0801 16.2602 15.1003L17.2055 15.2773L17.0235 14.3472C16.9982 14.2258 17.0286 14.1096 17.0993 14.0135C17.1751 13.9175 17.2813 13.8568 17.4026 13.8518L18.358 13.776Z" fill="url(#paint3_linear_2939_514)"/>
<g style="mix-blend-mode:multiply">
<path d="M14.3429 7.15085C14.3934 6.85261 14.3783 6.53921 14.2721 6.22076C13.9183 5.11375 12.695 4.41113 11.5425 4.64871C10.6933 4.82057 10.1221 5.45748 10.021 6.22076V6.22581L10.016 6.24603C10.0109 6.27636 10.0109 6.31175 10.0109 6.34207L9.97046 6.83745C9.9654 6.99415 10.0109 7.30755 10.0513 7.46425C10.0513 7.47099 10.053 7.47773 10.0564 7.48447C10.0766 7.55186 10.1002 7.61758 10.1272 7.6816C10.1373 7.70688 10.1524 7.73215 10.1625 7.75743C9.13136 7.79787 8.16083 8.48027 7.84238 9.47101C7.73117 9.80969 7.71601 10.1433 7.77161 10.4567C7.76824 10.4567 7.76656 10.4584 7.76656 10.4618C7.81205 10.7499 7.85754 11.0633 7.9738 11.3413V11.3464C7.97717 11.3531 7.98054 11.3598 7.98391 11.3666C8.00919 11.4222 8.03446 11.4778 8.06985 11.5283C8.11028 11.5957 8.15578 11.6614 8.20632 11.7255C8.20969 11.7322 8.21306 11.7389 8.21643 11.7457V11.7406C8.27372 11.8114 8.33607 11.8788 8.40346 11.9428V11.9479C8.41357 11.958 8.42368 11.963 8.42874 11.9681C8.4894 12.022 8.55174 12.0726 8.61577 12.1197C8.61914 12.1231 8.62419 12.1265 8.63093 12.1299C8.68822 12.1703 8.74888 12.209 8.8129 12.2461C8.8129 12.2461 8.81459 12.2478 8.81796 12.2512C8.88199 12.2882 8.95107 12.3219 9.02521 12.3523C9.02521 12.3523 9.02689 12.3523 9.03026 12.3523C9.08755 12.3759 9.14652 12.3978 9.20718 12.418C9.21055 12.4213 9.21392 12.423 9.21729 12.423C9.24762 12.4331 9.27795 12.4382 9.30828 12.4483C9.34872 12.4584 9.3841 12.4685 9.41948 12.4786V12.4736C9.42959 12.4786 9.44476 12.4837 9.45487 12.4837C9.46161 12.4871 9.46666 12.4887 9.47003 12.4887C9.41948 12.5494 9.37904 12.605 9.35377 12.6505H9.34872C9.34535 12.6572 9.34198 12.664 9.33861 12.6707C9.29817 12.7381 9.26278 12.8055 9.23246 12.8729C9.22235 12.8982 9.21224 12.9285 9.19707 12.9588C9.18191 12.9942 9.16674 13.0347 9.15158 13.0751C9.12125 13.1661 9.09429 13.2588 9.0707 13.3531C9.06059 13.4104 9.05048 13.466 9.04037 13.5199C9.04037 13.5334 9.03869 13.5469 9.03532 13.5604C9.03195 13.5907 9.02858 13.6227 9.02521 13.6564C9.01847 13.7305 9.0151 13.8064 9.0151 13.8839C9.0151 13.899 9.0151 13.9142 9.0151 13.9243C9.01847 13.9749 9.02184 14.0254 9.02521 14.076C9.02521 14.0962 9.02521 14.1215 9.02521 14.1417L9.03026 14.1366C9.037 14.204 9.04543 14.2697 9.05554 14.3338V14.3388C9.05891 14.3523 9.06227 14.3658 9.06564 14.3793C9.07238 14.4197 9.08081 14.4601 9.09092 14.5006C9.09597 14.5208 9.10103 14.541 9.10609 14.5663L9.11114 14.5612C9.12462 14.6219 9.14147 14.6809 9.16169 14.7381C9.1718 14.7634 9.17685 14.7786 9.18696 14.8039C9.20044 14.8376 9.21392 14.8713 9.2274 14.905C9.23414 14.9184 9.23919 14.9319 9.24256 14.9454V14.9403C9.26952 14.9943 9.29648 15.0482 9.32344 15.1021C9.33861 15.1375 9.35882 15.1678 9.37904 15.2032C9.39421 15.2285 9.40937 15.2537 9.42454 15.279C9.42454 15.279 9.42622 15.2807 9.42959 15.2841C9.45992 15.3312 9.49362 15.3784 9.53069 15.4256H9.52564C9.53238 15.4323 9.53743 15.4374 9.5408 15.4408C9.55765 15.4644 9.57618 15.4879 9.5964 15.5115C9.61662 15.5368 9.63684 15.5621 9.66212 15.5874C9.69919 15.6312 9.73962 15.6733 9.78343 15.7137H9.77838C9.79354 15.7289 9.81376 15.7441 9.82893 15.7592C9.85251 15.7794 9.87779 15.8013 9.90475 15.8249C9.91486 15.835 9.92497 15.8452 9.94013 15.8553C9.97552 15.8856 10.0109 15.9159 10.0513 15.9412C10.0614 15.9513 10.0716 15.9564 10.0817 15.9614V15.9665C10.112 15.9867 10.1474 16.0069 10.1777 16.0271C10.208 16.0423 10.2333 16.0625 10.2586 16.0777C10.262 16.0777 10.267 16.0794 10.2737 16.0827C10.3277 16.1131 10.3833 16.1417 10.4406 16.1687C10.4439 16.1687 10.4456 16.1703 10.4456 16.1737C10.5198 16.204 10.5922 16.231 10.663 16.2546C10.6663 16.258 10.668 16.2596 10.668 16.2596H10.6731C10.7405 16.2799 10.8096 16.2984 10.8803 16.3152C10.941 16.3287 11.0016 16.3388 11.0623 16.3456C11.0758 16.3456 11.0909 16.3473 11.1078 16.3506C11.128 16.3506 11.1482 16.3523 11.1685 16.3557L11.1735 16.3506C11.2679 16.3574 11.3605 16.3574 11.4515 16.3506V16.3557C11.4583 16.3557 11.465 16.354 11.4717 16.3506C11.5526 16.3473 11.6318 16.3372 11.7093 16.3203C11.77 16.3051 11.8306 16.29 11.8913 16.2698C11.898 16.2664 11.9048 16.2647 11.9115 16.2647L11.9166 16.2596C12.1996 16.1586 12.4625 15.9766 12.7102 15.8148C12.7102 15.8115 12.7119 15.8081 12.7152 15.8047C12.9831 15.6328 13.2207 15.3902 13.3926 15.0819C14.0093 14.0001 13.6756 12.5241 12.6546 11.7861C12.4473 11.6345 12.2249 11.5283 11.9974 11.4626C12.0547 11.3817 12.1053 11.2992 12.1491 11.2149C12.1693 11.1846 12.1845 11.1442 12.1996 11.1088C12.2148 11.0784 12.23 11.0532 12.2401 11.0228C12.2704 10.9554 12.2957 10.8847 12.3159 10.8105C12.3193 10.8038 12.3226 10.7971 12.326 10.7903V10.7853C12.3664 10.6235 12.4119 10.2899 12.4069 10.1231L12.3664 9.59738C12.3664 9.562 12.3614 9.52662 12.3614 9.49629L12.3563 9.47101C12.3395 9.34633 12.3108 9.22501 12.2704 9.10707C12.321 9.10707 12.3732 9.10538 12.4271 9.10201C12.4423 9.10201 12.4625 9.10201 12.4827 9.09696C12.513 9.09696 12.5451 9.09359 12.5787 9.08685C12.5922 9.08685 12.6074 9.08685 12.6242 9.08685V9.08179C12.6647 9.07674 12.7102 9.07168 12.7506 9.06157C12.7658 9.06157 12.7759 9.05652 12.786 9.05146V9.05652C12.8214 9.04641 12.8568 9.0363 12.8921 9.02619C12.9174 9.02113 12.9478 9.01102 12.9781 9.00597C12.9815 9.0026 12.9848 9.00091 12.9882 9.00091C13.0455 8.9807 13.1011 8.95879 13.155 8.9352V8.94026C13.1584 8.93689 13.1601 8.9352 13.1601 8.9352C13.2275 8.90824 13.2932 8.87623 13.3572 8.83916C13.3572 8.83916 13.3589 8.83916 13.3622 8.83916C13.4195 8.80546 13.4768 8.76839 13.5341 8.72795H13.5291C13.5358 8.72458 13.5409 8.72121 13.5442 8.71784C13.6049 8.67404 13.6639 8.62686 13.7211 8.57631C13.7262 8.57125 13.7363 8.56114 13.7414 8.55609V8.55103C13.8054 8.49038 13.8644 8.42635 13.9183 8.35895V8.36401C13.925 8.35727 13.9301 8.35053 13.9334 8.34379C13.9806 8.2865 14.0227 8.22584 14.0598 8.16181C14.0901 8.11126 14.1154 8.06072 14.1407 8.00511C14.1441 7.99837 14.1457 7.99332 14.1457 7.98995V7.98489C14.257 7.72204 14.3024 7.42886 14.3429 7.1559C14.3429 7.15253 14.3429 7.15085 14.3429 7.15085Z" fill="#C2C7CC"/>
</g>
<path d="M11.9415 11.4773C12.9677 12.2153 12.9272 14.5455 12.6543 14.7477C12.3864 14.9449 12.3965 15.1167 12.3156 15.2077C12.0123 15.4099 11.6787 15.6424 11.3147 15.7183C10.7688 15.8295 10.1724 15.7132 9.65676 15.3391C8.63569 14.6011 8.31218 13.1352 8.94403 12.0687C9.02997 11.9322 9.26249 11.6491 9.39391 11.5329L9.9095 11.1234C9.91456 11.1285 11.1024 10.8707 11.9415 11.4773Z" fill="url(#paint4_linear_2939_514)"/>
<path fill-rule="evenodd" clip-rule="evenodd" d="M12.4879 14.9099L11.5173 15.658C11.4533 15.6849 11.3859 15.7051 11.3151 15.7186C11.2309 15.7355 11.145 15.7473 11.0573 15.754L12.4019 14.7077L12.5485 14.8391C12.5249 14.8627 12.5047 14.8863 12.4879 14.9099ZM10.7743 15.754C10.6799 15.7473 10.5839 15.7338 10.4862 15.7136L12.2351 14.3538L12.3918 14.4954L10.7743 15.754ZM10.2738 15.658C10.1963 15.6344 10.1205 15.6041 10.0464 15.567L12.4019 13.7321L12.5637 13.8787L10.2738 15.658ZM9.87452 15.4811C9.81049 15.444 9.74646 15.4035 9.68243 15.3597L11.4213 14.0101L11.578 14.1516L9.87452 15.4811ZM9.54595 15.2536C9.48866 15.2098 9.43475 15.1626 9.3842 15.1121L11.4769 13.4844L11.6336 13.6259L9.54595 15.2536ZM9.26794 14.9857C9.22076 14.9351 9.17695 14.8812 9.13651 14.8239L11.5325 12.9536L11.6892 13.1002L9.26794 14.9857ZM8.92927 14.5004L11.5881 12.4279L11.7448 12.5745L9.03542 14.6824C8.99835 14.6217 8.96297 14.5611 8.92927 14.5004ZM8.77256 14.1365L11.6387 11.9022L11.7954 12.0438L8.85344 14.3387C8.82311 14.2713 8.79615 14.2039 8.77256 14.1365ZM8.66641 13.7321L11.6943 11.3765L11.851 11.5181L8.71696 13.9595C8.69674 13.8854 8.67989 13.8096 8.66641 13.7321ZM8.62598 13.2822L11.3202 11.1794C11.4011 11.203 11.4803 11.2299 11.5578 11.2603L8.63608 13.5349C8.62934 13.4507 8.62598 13.3664 8.62598 13.2822ZM8.68158 12.7514L10.8198 11.0884C10.9141 11.0951 11.0102 11.1086 11.1079 11.1288L8.63608 13.0547C8.64282 12.9536 8.65799 12.8525 8.68158 12.7514ZM8.76245 12.4684C8.80963 12.3302 8.87198 12.1971 8.94948 12.069C8.95285 12.0623 8.95622 12.0556 8.95959 12.0488L10.193 11.0884C10.2941 11.0783 10.4154 11.0732 10.5519 11.0732L8.76245 12.4684Z" fill="url(#paint5_linear_2939_514)"/>
<path d="M12.26 11.1841C13.2861 11.9221 13.6147 13.393 13.0031 14.4798C12.3914 15.5615 11.062 15.8396 10.0409 15.1015C9.01987 14.3635 8.68625 12.8926 9.29789 11.8109C9.91458 10.7241 11.2389 10.4461 12.26 11.1841Z" fill="url(#paint6_linear_2939_514)"/>
<path style="mix-blend-mode:multiply" d="M9.50049 12.7711C9.54598 12.4678 9.66224 12.1797 9.85433 11.932C10.4407 11.1789 11.4971 11.1233 12.22 11.8107C12.5738 12.1494 12.7811 12.6094 12.8316 13.0744C12.8923 13.7063 12.4525 14.0652 11.9723 13.494C11.4264 12.8318 10.7288 12.0635 9.50049 12.7711Z" fill="url(#paint7_linear_2939_514)"/>
<path style="mix-blend-mode:multiply" d="M12.8311 13.2923C12.8261 13.6007 12.7503 13.909 12.5936 14.182C12.1134 15.0261 11.0822 15.2435 10.2886 14.6672C9.89428 14.3842 9.63143 13.9596 9.52528 13.5046C9.37869 12.8829 9.76791 12.4532 10.3088 12.9536C10.9356 13.5299 11.7191 14.187 12.8311 13.2923Z" fill="url(#paint8_linear_2939_514)"/>
<path style="mix-blend-mode:multiply" fill-rule="evenodd" clip-rule="evenodd" d="M12.2099 11.2799C12.675 11.6186 13.0086 12.1342 13.1451 12.7206C13.2765 13.312 13.1956 13.9185 12.9125 14.4139C12.6295 14.9093 12.1796 15.248 11.6488 15.3592C11.1181 15.4704 10.562 15.344 10.097 15.0053C9.62691 14.6717 9.29329 14.1511 9.16186 13.5647C9.02538 12.9733 9.11131 12.3718 9.38933 11.8713C9.6724 11.376 10.1223 11.0373 10.653 10.9261C11.1838 10.8149 11.7398 10.9413 12.2099 11.2799ZM12.8721 12.7812C12.7609 12.2707 12.4728 11.8208 12.0633 11.5327C11.6589 11.2395 11.1787 11.1283 10.7187 11.2243C10.2638 11.3254 9.86954 11.6135 9.62691 12.0432C9.38427 12.4729 9.31351 12.9986 9.42977 13.5041C9.54097 14.0146 9.83415 14.4645 10.2385 14.7576C10.6429 15.0458 11.1231 15.157 11.5831 15.0609C12.0431 14.9649 12.4323 14.6717 12.675 14.2421C12.9176 13.8124 12.9884 13.2917 12.8721 12.7812Z" fill="url(#paint9_linear_2939_514)"/>
<path fill-rule="evenodd" clip-rule="evenodd" d="M12.1743 11.341C12.6444 11.6797 12.9578 12.1851 13.0791 12.7361C13.2055 13.2871 13.1397 13.8735 12.8567 14.3739C12.5736 14.8693 12.1288 15.1827 11.6334 15.2888C11.138 15.395 10.5972 15.2888 10.1271 14.9501C9.65696 14.6064 9.34862 14.1009 9.22225 13.55C9.10093 12.999 9.16664 12.4126 9.44466 11.9122C9.72773 11.4168 10.1776 11.1034 10.6679 10.9973C11.1633 10.8962 11.7042 10.9973 12.1743 11.341ZM12.9375 12.7665C12.8213 12.2559 12.5332 11.7858 12.0984 11.4724C11.6637 11.159 11.1633 11.0579 10.7033 11.154C10.2484 11.2551 9.83388 11.5432 9.57103 12.0032C9.30818 12.4682 9.25257 13.0141 9.36378 13.5196C9.48004 14.0302 9.76817 14.5003 10.2029 14.8137C10.6427 15.1271 11.1431 15.2282 11.598 15.1321C12.053 15.0361 12.4674 14.7429 12.7303 14.2829C12.9931 13.8179 13.0538 13.277 12.9375 12.7665Z" fill="url(#paint10_linear_2939_514)"/>
<path style="mix-blend-mode:multiply" d="M10.8648 14.3186C10.8413 14.3625 10.816 14.4046 10.789 14.445C10.7385 14.5259 10.6829 14.6068 10.6222 14.6826L10.5868 14.7331L10.1875 14.4046L10.2279 14.349C10.2785 14.2782 10.329 14.2074 10.3796 14.1367C10.3998 14.103 10.4183 14.0693 10.4352 14.0356C10.2734 13.8283 10.2178 13.5402 10.2077 13.2723V13.2167L10.6071 13.1257L10.6273 13.1914C10.6728 13.3481 10.7486 13.6009 10.88 13.6918C10.9053 13.707 10.9407 13.7272 10.9558 13.6918C10.9592 13.6851 10.9626 13.6784 10.9659 13.6716C10.9963 13.5756 10.9103 13.3835 10.875 13.2925C10.7385 12.964 10.6627 12.6202 10.8345 12.2967C10.9862 12.0136 11.2642 11.9024 11.5574 11.9833C11.618 11.8721 11.6686 11.7558 11.7292 11.6497L11.7646 11.584L12.169 11.9075L12.1387 11.9631C12.0831 12.0642 12.0224 12.1703 11.9769 12.2765C12.0578 12.3928 12.1083 12.5393 12.1235 12.6859C12.1387 12.8073 12.1336 12.9589 12.073 13.065C12.0022 13.1965 11.9264 13.3077 11.805 13.3886L11.7596 13.4189L11.3855 12.964L11.4411 12.9185C11.4815 12.8831 11.522 12.8477 11.5473 12.7921C11.5776 12.7365 11.5523 12.6556 11.5018 12.6202C11.4512 12.5848 11.3905 12.6051 11.3602 12.6607C11.3097 12.7516 11.3299 12.8932 11.3804 12.9892C11.4916 13.2217 11.6433 13.525 11.613 13.7879C11.6062 13.8654 11.5843 13.9378 11.5473 14.0052C11.4007 14.2782 11.1479 14.3945 10.8648 14.3186Z" fill="url(#paint11_linear_2939_514)"/>
<path d="M11.7697 13.3223C11.8708 13.2566 11.9466 13.1656 12.0174 13.0292C12.0982 12.8775 12.0881 12.5237 11.896 12.281C11.9415 12.1799 11.987 12.0991 12.078 11.9221L11.7848 11.6846C11.6888 11.8665 11.6433 11.9626 11.5927 12.0637C11.3451 11.9778 11.0519 12.0384 10.8901 12.3366C10.7284 12.645 10.8143 12.9786 10.9356 13.2667C11.0266 13.4891 11.067 13.6307 11.0114 13.7318C10.9761 13.8025 10.9053 13.7924 10.8446 13.752C10.6879 13.6408 10.6071 13.3527 10.5666 13.2111L10.2734 13.2768C10.2785 13.4689 10.3139 13.8076 10.5211 14.03C10.4402 14.1766 10.4049 14.2271 10.2785 14.394L10.5717 14.6315C10.7031 14.4597 10.7435 14.394 10.8295 14.2373C11.0721 14.3181 11.3299 14.2575 11.4866 13.9643C11.6281 13.7014 11.5169 13.4184 11.3198 13.0241C11.2591 12.8927 11.244 12.7259 11.3046 12.6197C11.3602 12.5136 11.4664 12.5136 11.5371 12.5641C11.6231 12.6248 11.6484 12.7511 11.6029 12.832C11.5725 12.8927 11.5371 12.9331 11.4815 12.9736L11.7697 13.3223Z" fill="url(#paint12_linear_2939_514)"/>
<path style="mix-blend-mode:multiply" fill-rule="evenodd" clip-rule="evenodd" d="M10.5869 14.7325L10.4858 14.6971L10.0864 14.3686L10.1319 14.313C10.1825 14.2422 10.233 14.1714 10.2785 14.1007C10.2987 14.0703 10.3189 14.0383 10.3392 14.0046C10.1724 13.7923 10.1168 13.5042 10.1117 13.2363V13.1807L10.511 13.0947L10.6071 13.1251L10.2077 13.2161V13.2717C10.2179 13.5396 10.2735 13.8277 10.4352 14.0349C10.4184 14.0686 10.3998 14.1023 10.3796 14.136C10.3291 14.2068 10.2785 14.2776 10.228 14.3483L10.1875 14.4039L10.5869 14.7325ZM10.8598 13.6609C10.8632 13.6508 10.8666 13.6424 10.8699 13.6356C10.8952 13.5396 10.8143 13.3475 10.7789 13.2616C10.6425 12.9279 10.5666 12.5842 10.7334 12.2658C10.8851 11.9827 11.1682 11.8664 11.4613 11.9473C11.5169 11.8361 11.5725 11.7249 11.6332 11.6137L11.6534 11.5732L11.7646 11.5834L11.7292 11.644C11.6686 11.7552 11.618 11.8715 11.5574 11.9827C11.2642 11.9018 10.9862 12.013 10.8345 12.2961C10.6627 12.6145 10.7385 12.9633 10.875 13.2919C10.9104 13.3829 10.9963 13.575 10.966 13.671C10.9626 13.6777 10.9592 13.6845 10.9559 13.6912C10.9407 13.7266 10.9053 13.7064 10.88 13.6912C10.8699 13.6845 10.8598 13.6777 10.8497 13.671C10.8531 13.6676 10.8564 13.6643 10.8598 13.6609ZM11.7596 13.4183L11.6635 13.3829L11.4411 13.115C11.4209 13.0712 11.4007 13.029 11.3805 12.9886C11.3653 12.9583 11.3501 12.9229 11.3451 12.8824C11.3855 12.8471 11.4209 12.8117 11.4512 12.7611C11.4765 12.7106 11.4613 12.6449 11.426 12.6044C11.4512 12.5994 11.4765 12.6044 11.5018 12.6196C11.5523 12.655 11.5776 12.7359 11.5473 12.7915C11.522 12.8471 11.4866 12.8824 11.4411 12.9178L11.3855 12.9633L11.7596 13.4183Z" fill="url(#paint13_linear_2939_514)"/>
<path d="M11.153 4.45115C12.3055 4.21357 13.8826 5.71486 13.8472 6.02826C13.8118 6.34166 13.9382 6.4377 13.9483 6.55396C13.8977 6.88758 13.8472 7.26669 13.6652 7.55987C13.3973 8.0047 12.9424 8.34337 12.3611 8.45963C11.2035 8.69721 9.9954 7.98953 9.66178 6.88252C9.62134 6.73593 9.57079 6.39726 9.5809 6.2355L9.62639 5.62387C9.63145 5.62387 10.2026 4.64323 11.153 4.45115Z" fill="url(#paint14_linear_2939_514)"/>
<path fill-rule="evenodd" clip-rule="evenodd" d="M13.8475 6.24547L13.7565 7.38786C13.7296 7.44852 13.6992 7.50581 13.6655 7.55973C13.6251 7.63049 13.5796 7.69789 13.5291 7.76192L13.6605 6.1747L13.8424 6.15954C13.8424 6.18987 13.8441 6.21851 13.8475 6.24547ZM13.3521 7.954C13.2847 8.01466 13.214 8.07195 13.1398 8.12587L13.3117 6.06855L13.5088 6.05339L13.3521 7.954ZM12.7658 8.33311L12.9932 5.55296L13.1904 5.53779L12.968 8.23202C12.9039 8.26909 12.8365 8.30278 12.7658 8.33311ZM12.599 8.39377C12.5316 8.41736 12.4642 8.43589 12.3968 8.44937L12.5636 6.40217L12.7607 6.38195L12.599 8.39377ZM12.0379 8.49992L12.2401 6.03317L12.4372 6.01295L12.235 8.4797C12.171 8.48981 12.1053 8.49655 12.0379 8.49992ZM11.8761 8.50498C11.8087 8.50161 11.743 8.49655 11.679 8.48981L11.9115 5.66416L12.1137 5.64394L11.8761 8.50498ZM11.3251 8.43421L11.5829 5.30022L11.7801 5.28L11.5172 8.47465C11.4532 8.46117 11.3892 8.44769 11.3251 8.43421ZM11.1684 8.38366C11.101 8.36344 11.037 8.33985 10.9764 8.31289L11.2544 4.93121L11.4515 4.91605L11.1684 8.38366ZM10.6377 8.12587L10.9309 4.55716L11.128 4.54199L10.8247 8.23707C10.7607 8.20337 10.6983 8.1663 10.6377 8.12587ZM10.481 8.01971C10.417 7.97254 10.3563 7.92199 10.299 7.86807L10.5619 4.68858C10.6293 4.64814 10.6983 4.61108 10.7691 4.57738L10.481 8.01971ZM9.97045 7.49401L10.1777 4.97671C10.2417 4.91605 10.3108 4.85708 10.3849 4.79979L10.1474 7.71642C10.0833 7.64566 10.0244 7.57152 9.97045 7.49401ZM9.82386 7.26149C9.75983 7.14017 9.7076 7.0138 9.66716 6.88238C9.66716 6.87564 9.66548 6.86721 9.66211 6.8571L9.78342 5.40637C9.83903 5.33055 9.91485 5.23956 10.0008 5.14857L9.82386 7.26149Z" fill="url(#paint15_linear_2939_514)"/>
<path d="M11.1533 4.04617C12.3058 3.80859 13.524 4.51121 13.8829 5.61822C14.2367 6.72523 13.5897 7.81202 12.4372 8.04959C11.2847 8.28211 10.0614 7.57949 9.70759 6.47249C9.35376 5.36548 10.0008 4.27869 11.1533 4.04617Z" fill="url(#paint16_linear_2939_514)"/>
<path style="mix-blend-mode:multiply" d="M10.4956 6.94352C10.3186 6.72111 10.1923 6.45826 10.1417 6.17013C9.99514 5.29565 10.627 4.53237 11.5571 4.47171C12.012 4.44138 12.4568 4.58797 12.8107 4.85082C13.2808 5.20466 13.2504 5.74047 12.5529 5.70509C11.7542 5.66465 10.7887 5.65454 10.4956 6.94352Z" fill="url(#paint17_linear_2939_514)"/>
<path style="mix-blend-mode:multiply" d="M12.9577 4.9873C13.165 5.18444 13.3318 5.43213 13.4177 5.7152C13.6957 6.57452 13.1953 7.42373 12.2955 7.60571C11.8507 7.69669 11.3958 7.60571 11.0116 7.3934C10.496 7.10022 10.4505 6.55936 11.1329 6.50375C11.9215 6.43804 12.8667 6.31672 12.9577 4.9873Z" fill="url(#paint18_linear_2939_514)"/>
<path style="mix-blend-mode:multiply" fill-rule="evenodd" clip-rule="evenodd" d="M11.1833 4.14276C11.709 4.0366 12.2751 4.13265 12.7654 4.41066C13.2558 4.69373 13.6147 5.1335 13.7815 5.63899C13.9432 6.14447 13.8876 6.67017 13.6298 7.10489C13.372 7.5396 12.9373 7.84289 12.4065 7.94904C11.8808 8.06025 11.3147 7.95915 10.8244 7.68114C10.3341 7.39807 9.97517 6.9583 9.80836 6.45281C9.64661 5.94733 9.70221 5.42163 9.96001 4.98691C10.2178 4.5522 10.6525 4.24891 11.1833 4.14276ZM12.634 4.63307C12.2094 4.39044 11.7241 4.30451 11.2642 4.40055C10.8092 4.49154 10.4301 4.75439 10.2077 5.12845C9.98528 5.50756 9.93473 5.95744 10.0763 6.39721C10.2178 6.83698 10.5312 7.21609 10.9558 7.45872C11.3804 7.70136 11.8657 7.78729 12.3257 7.69125C12.7806 7.60026 13.1597 7.33741 13.3821 6.96335C13.6045 6.58424 13.65 6.13436 13.5136 5.69459C13.372 5.25482 13.0586 4.87571 12.634 4.63307Z" fill="url(#paint19_linear_2939_514)"/>
<path fill-rule="evenodd" clip-rule="evenodd" d="M11.2038 4.20381C11.7346 4.09766 12.2805 4.20381 12.7354 4.46666C13.1903 4.72951 13.5543 5.14401 13.716 5.65454C13.8829 6.16003 13.8121 6.66551 13.5745 7.06989C13.3319 7.47428 12.9174 7.78263 12.3866 7.88878C11.8559 7.99998 11.3099 7.88878 10.855 7.62593C10.4001 7.36813 10.0361 6.94858 9.87437 6.43804C9.70756 5.93256 9.77833 5.42708 10.0159 5.02269C10.2585 4.6183 10.673 4.30996 11.2038 4.20381ZM12.6646 4.58292C12.2451 4.34029 11.7396 4.23919 11.2442 4.34029C10.7539 4.44138 10.3697 4.72445 10.1473 5.09851C9.92492 5.47257 9.86427 5.93761 10.0159 6.41277C10.1676 6.88287 10.5012 7.26703 10.9258 7.50967C11.3453 7.7523 11.8508 7.85339 12.3462 7.7523C12.8365 7.6512 13.2207 7.37318 13.4431 6.99407C13.6655 6.62002 13.7262 6.15497 13.5745 5.68487C13.4229 5.20972 13.0892 4.82555 12.6646 4.58292Z" fill="url(#paint20_linear_2939_514)"/>
<path style="mix-blend-mode:multiply" d="M12.4219 6.98865C12.4354 7.03245 12.4489 7.07458 12.4623 7.11502C12.4826 7.206 12.5028 7.29194 12.5179 7.38292L12.5281 7.43853L12.0478 7.50424L12.0377 7.43853C12.0226 7.3627 12.0074 7.28183 11.9872 7.206C11.9771 7.16894 11.967 7.13355 11.9569 7.09985C11.7092 7.07963 11.4767 6.9381 11.2896 6.77634L11.2492 6.74096L11.4413 6.40734L11.4969 6.43767C11.6283 6.50338 11.8507 6.61459 11.9973 6.5792C12.0276 6.57415 12.058 6.55899 12.0478 6.52866C12.0445 6.52192 12.0411 6.51518 12.0377 6.50844C11.9922 6.42756 11.8052 6.36185 11.7243 6.33152C11.4109 6.21526 11.1228 6.04845 11.0116 5.72999C10.9156 5.44692 11.0167 5.18407 11.2542 5.03243C11.2138 4.92122 11.1734 4.81507 11.1329 4.70386L11.1127 4.63815L11.5879 4.56738L11.6081 4.62299C11.6435 4.72408 11.6788 4.83023 11.7193 4.93133C11.8507 4.95155 11.9821 5.00715 12.0933 5.08803C12.1894 5.15374 12.2905 5.25989 12.3259 5.36099C12.3714 5.49242 12.3966 5.61879 12.3764 5.75021L12.3714 5.80076L11.8204 5.77043V5.70472C11.8254 5.65417 11.8254 5.60362 11.8052 5.55307C11.785 5.49747 11.7142 5.46209 11.6586 5.47725C11.598 5.48736 11.5727 5.54297 11.5929 5.59857C11.6283 5.68956 11.7395 5.76538 11.8355 5.79065C12.063 5.86142 12.3663 5.94735 12.5281 6.13438C12.5786 6.19167 12.614 6.25401 12.6342 6.32141C12.7303 6.59437 12.6494 6.84206 12.4219 6.98865Z" fill="url(#paint21_linear_2939_514)"/>
<path d="M12.3107 5.73557C12.3259 5.62436 12.3107 5.51316 12.2652 5.37668C12.2096 5.23009 11.9619 5.01273 11.6738 4.98745C11.6334 4.89647 11.603 4.81559 11.5424 4.63867L11.1936 4.68922C11.2593 4.87119 11.2998 4.96218 11.3351 5.06328C11.1178 5.17954 10.9712 5.41712 11.0773 5.71535C11.1835 6.02369 11.4716 6.17028 11.7446 6.27644C11.9518 6.35226 12.0782 6.40786 12.1136 6.51401C12.1338 6.58478 12.0833 6.62522 12.0226 6.64038C11.8457 6.68082 11.5929 6.55445 11.4716 6.49379L11.3301 6.73137C11.4666 6.85269 11.7193 7.03972 12.0074 7.03972C12.0529 7.19136 12.0681 7.24696 12.1035 7.43399L12.4523 7.3885C12.4169 7.18631 12.3967 7.11554 12.341 6.95884C12.5483 6.84258 12.6747 6.63027 12.5736 6.33709C12.4826 6.06919 12.2147 5.96809 11.8204 5.85183C11.689 5.81645 11.5677 5.72041 11.5323 5.61425C11.4969 5.5081 11.5626 5.43228 11.6384 5.41712C11.7345 5.39184 11.8406 5.45755 11.8659 5.53843C11.8912 5.59909 11.8912 5.64964 11.8912 5.71535L12.3107 5.73557Z" fill="url(#paint22_linear_2939_514)"/>
<path style="mix-blend-mode:multiply" fill-rule="evenodd" clip-rule="evenodd" d="M12.5281 7.43905L12.4422 7.48454L11.967 7.55025L11.9519 7.48959C11.9367 7.40872 11.9216 7.32784 11.9013 7.25202C11.8946 7.21832 11.8845 7.18293 11.871 7.14587C11.6233 7.1307 11.3908 6.98411 11.2038 6.82236L11.1633 6.78697L11.3554 6.45335L11.4413 6.40786L11.2493 6.74148L11.2897 6.77686C11.4767 6.93862 11.7092 7.08015 11.9569 7.10037C11.967 7.13407 11.9772 7.16946 11.9873 7.20652C12.0075 7.28235 12.0226 7.36322 12.0378 7.43905L12.0479 7.50476L12.5281 7.43905ZM11.967 6.57467C11.9637 6.56793 11.9603 6.56119 11.9569 6.55445C11.9114 6.47357 11.7244 6.40786 11.6385 6.37753C11.3301 6.26127 11.042 6.09446 10.9308 5.77601C10.8348 5.49294 10.9308 5.23009 11.1734 5.07844C11.133 4.96724 11.0875 4.86108 11.0521 4.74988L11.037 4.70944L11.1128 4.63867L11.133 4.70438C11.1734 4.81559 11.2189 4.92174 11.2543 5.03295C11.0167 5.18459 10.9156 5.44744 11.0167 5.73051C11.1279 6.04897 11.411 6.21578 11.7244 6.33204C11.8103 6.36237 11.9923 6.42808 12.0429 6.50896C12.0462 6.5157 12.0496 6.52244 12.053 6.52918C12.0631 6.55951 12.0277 6.57467 12.0024 6.57973C11.9923 6.5831 11.9805 6.58478 11.967 6.58478C11.967 6.58141 11.967 6.57804 11.967 6.57467ZM12.3714 5.80128L12.2855 5.84678L11.962 5.83161C11.9182 5.81813 11.8761 5.80634 11.8356 5.79623C11.8053 5.78612 11.7699 5.77095 11.7396 5.75073C11.7446 5.70019 11.7396 5.64964 11.7244 5.59909C11.7042 5.5536 11.6536 5.51821 11.598 5.51821C11.6132 5.49799 11.6334 5.48283 11.6638 5.47777C11.7194 5.46261 11.7901 5.49799 11.8053 5.5536C11.8255 5.60414 11.8255 5.65469 11.8255 5.70524L11.8205 5.77095L12.3714 5.80128Z" fill="url(#paint23_linear_2939_514)"/>
<g opacity="0.48">
<path style="mix-blend-mode:multiply" d="M9.9146 11.1236C9.9146 11.1236 9.90954 11.1287 9.90954 11.1236L9.89438 11.1388C9.8691 11.159 9.83878 11.1843 9.8135 11.2045L9.39395 11.5331C9.26758 11.6443 9.05022 11.9021 8.95923 12.0487C8.9525 12.0554 8.94744 12.0621 8.94407 12.0689C8.907 12.1363 8.87162 12.2037 8.83792 12.2711C8.83455 12.2846 8.82949 12.298 8.82275 12.3115C8.83286 12.3183 8.84129 12.325 8.84803 12.3317C8.8514 12.3317 8.85308 12.3317 8.85308 12.3317C8.92048 12.3722 8.99125 12.4076 9.06539 12.4379C9.12267 12.4615 9.18165 12.4834 9.2423 12.5036C9.24904 12.5036 9.2541 12.5053 9.25747 12.5087C9.2878 12.5188 9.31813 12.5238 9.34846 12.5339C9.38384 12.544 9.41923 12.5542 9.45966 12.5643V12.5592C9.46977 12.5643 9.48494 12.5693 9.49505 12.5693C9.54054 12.5794 9.58603 12.5845 9.63153 12.5895V12.5946C9.64669 12.5946 9.66691 12.5946 9.68207 12.5996C9.71577 12.603 9.74779 12.6064 9.77812 12.6098C9.80339 12.6098 9.82361 12.6148 9.84383 12.6148V12.6098C9.90112 12.6131 9.95841 12.6148 10.0157 12.6148V12.6199C10.0511 12.6199 10.0814 12.6148 10.1168 12.6148C10.1471 12.6114 10.1758 12.6081 10.2027 12.6047C10.2095 12.6047 10.2162 12.6047 10.2229 12.6047C10.2802 12.598 10.3375 12.5912 10.3948 12.5845C10.3948 12.5811 10.3965 12.5794 10.3999 12.5794C10.4302 12.5744 10.4555 12.5693 10.4858 12.5643C10.5262 12.5542 10.5616 12.5491 10.597 12.539C10.6543 12.5221 10.7099 12.5053 10.7638 12.4884C10.7773 12.4851 10.7908 12.48 10.8042 12.4733C10.8379 12.4632 10.8716 12.4497 10.9053 12.4328C10.9256 12.4278 10.9508 12.4227 10.966 12.4126V12.4076C11.0233 12.384 11.0789 12.3587 11.1328 12.3317C11.153 12.3216 11.1682 12.3115 11.1884 12.3014C11.2255 12.2812 11.2609 12.261 11.2946 12.2408C11.308 12.234 11.3215 12.2273 11.335 12.2205V12.2155C11.3889 12.1818 11.4428 12.1447 11.4968 12.1043V12.1093C11.5119 12.0942 11.5271 12.079 11.5423 12.0689C11.5827 12.0386 11.6214 12.0065 11.6585 11.9728C11.6686 11.9627 11.6787 11.9526 11.6888 11.9476V11.9425C11.7461 11.892 11.8 11.8381 11.8506 11.7808V11.7858C11.8607 11.7757 11.8658 11.7605 11.8759 11.7504C11.923 11.6965 11.9669 11.6409 12.0073 11.5836C12.0174 11.5735 12.0275 11.5634 12.0376 11.5482C12.0949 11.4674 12.1455 11.3848 12.1893 11.3006C12.2095 11.2652 12.2247 11.2298 12.2398 11.1944C12.2432 11.1877 12.2466 11.1809 12.2499 11.1742C11.4968 10.6434 10.5869 10.6535 9.9146 11.1236Z" fill="url(#paint24_linear_2939_514)"/>
</g>
<path d="M10.3441 7.62565C9.12087 7.37797 7.44772 8.97024 7.4831 9.30386C7.52354 9.63242 7.38706 9.73857 7.37695 9.85989C7.43256 10.2137 7.48816 10.6131 7.67519 10.9265C7.95826 11.4016 8.44857 11.7554 9.06526 11.8818C10.2885 12.1346 11.5725 11.3864 11.9263 10.2087C11.9718 10.057 12.0223 9.69813 12.0173 9.52121L11.9667 8.86914C11.9617 8.87419 11.3551 7.8329 10.3441 7.62565Z" fill="url(#paint25_linear_2939_514)"/>
<path fill-rule="evenodd" clip-rule="evenodd" d="M7.49351 9.44015L7.68559 9.46037L7.82207 11.1386C7.76815 11.0712 7.71929 11.0004 7.67548 10.9263C7.64178 10.869 7.61145 10.8083 7.5845 10.7443L7.4834 9.53114C7.48677 9.50418 7.49014 9.47385 7.49351 9.44015ZM7.84735 9.32894L8.05459 9.34411L8.23657 11.5278C8.15569 11.4739 8.08155 11.4132 8.01416 11.3458L7.84735 9.32894ZM8.41854 11.6491L8.18096 8.78302L8.39327 8.80324L8.6359 11.7553C8.56176 11.7216 8.48931 11.6862 8.41854 11.6491ZM8.6359 9.68278L8.8482 9.703L9.02512 11.8766C8.95435 11.8597 8.88359 11.8412 8.81282 11.821L8.6359 9.68278ZM9.20204 11.9069L8.98468 9.2885L9.19699 9.30872L9.40929 11.9271C9.34189 11.9238 9.27281 11.917 9.20204 11.9069ZM9.33347 8.89928L9.54071 8.9195L9.79346 11.917C9.72269 11.9238 9.65361 11.9288 9.58621 11.9322L9.33347 8.89928ZM9.96026 11.8968L9.6772 8.50501L9.8895 8.52523L10.1625 11.8513C10.0951 11.8682 10.0277 11.8833 9.96026 11.8968ZM10.026 8.11578L10.2383 8.136L10.5365 11.7249C10.4691 11.7519 10.4017 11.7772 10.3343 11.8008L10.026 8.11578ZM10.6983 11.6441L10.3697 7.72656L10.582 7.74173L10.8954 11.5328C10.8314 11.5733 10.7657 11.6104 10.6983 11.6441ZM10.7539 7.76195C10.8314 7.79902 10.9055 7.83777 10.9763 7.87821L11.2543 11.2548C11.1903 11.3121 11.1246 11.366 11.0572 11.4166L10.7539 7.76195ZM11.411 11.0981L11.1532 8.00458C11.2341 8.06187 11.3099 8.12252 11.3807 8.18655L11.598 10.8606C11.5407 10.9448 11.4784 11.024 11.411 11.0981ZM11.5677 8.36853C11.6587 8.46962 11.7345 8.56061 11.7952 8.64149L11.9266 10.1832C11.9232 10.1933 11.9199 10.2017 11.9165 10.2085C11.876 10.35 11.8204 10.4848 11.7497 10.6129L11.5677 8.36853Z" fill="url(#paint26_linear_2939_514)"/>
<path d="M10.3439 7.19581C9.12068 6.94812 7.82664 7.69623 7.44752 8.86895C7.06841 10.0417 7.75587 11.1942 8.97914 11.4469C10.2024 11.6946 11.5015 10.9465 11.8756 9.77377C12.2547 8.60105 11.5672 7.44855 10.3439 7.19581Z" fill="url(#paint27_linear_2939_514)"/>
<path style="mix-blend-mode:multiply" d="M11.0418 10.2738C11.2288 10.0362 11.3653 9.75817 11.4159 9.45488C11.5726 8.52479 10.9003 7.71602 9.91459 7.65031C9.42933 7.61998 8.95923 7.77162 8.58517 8.05469C8.08474 8.42875 8.12013 8.99489 8.85813 8.95445C9.70734 8.91401 10.7335 8.90896 11.0418 10.2738Z" fill="url(#paint28_linear_2939_514)"/>
<path style="mix-blend-mode:multiply" d="M8.42845 8.19727C8.20604 8.40957 8.03417 8.67242 7.93813 8.97065C7.64495 9.88052 8.18077 10.7803 9.13107 10.9774C9.60117 11.0735 10.0864 10.9774 10.4908 10.75C11.0418 10.4366 11.0923 9.86536 10.3645 9.8047C9.5304 9.73899 8.52449 9.60756 8.42845 8.19727Z" fill="url(#paint29_linear_2939_514)"/>
<path style="mix-blend-mode:multiply" fill-rule="evenodd" clip-rule="evenodd" d="M11.6132 8.19652C11.8862 8.65651 11.9418 9.21254 11.7699 9.75341C11.5981 10.2892 11.2139 10.7543 10.6933 11.0525C10.1726 11.3558 9.57614 11.4569 9.01505 11.3406C8.45396 11.2294 7.98892 10.9059 7.71596 10.4459C7.43795 9.98593 7.38234 9.4299 7.55421 8.88903C7.73113 8.35322 8.11529 7.88818 8.63088 7.58994C9.15153 7.28665 9.75306 7.18556 10.3141 7.30182C10.8752 7.41302 11.3403 7.73653 11.6132 8.19652ZM7.84233 8.94969C7.69069 9.41474 7.74123 9.89494 7.97881 10.2943C8.21639 10.6936 8.61572 10.9716 9.10098 11.0677C9.58625 11.1688 10.1069 11.0778 10.5568 10.82C11.0016 10.5622 11.3352 10.1578 11.4869 9.69275C11.6335 9.22771 11.588 8.7475 11.3504 8.34817C11.1128 7.94883 10.7084 7.67082 10.2232 7.57478C9.74295 7.47368 9.2223 7.56467 8.77242 7.82246C8.32254 8.08026 7.98892 8.48465 7.84233 8.94969Z" fill="url(#paint30_linear_2939_514)"/>
<path fill-rule="evenodd" clip-rule="evenodd" d="M11.5522 8.23228C11.8049 8.66194 11.8757 9.19775 11.7038 9.73861C11.5269 10.2795 11.1428 10.7193 10.6625 11.0023C10.1773 11.2803 9.59598 11.3915 9.03489 11.2753C8.46875 11.1641 8.02898 10.8406 7.77624 10.4109C7.51844 9.98125 7.44768 9.44543 7.6246 8.90457C7.79646 8.3637 8.18063 7.92393 8.66589 7.64086C9.15116 7.36285 9.72741 7.25164 10.2935 7.3679C10.8546 7.47911 11.2944 7.80262 11.5522 8.23228ZM7.77119 8.9349C7.61449 9.43533 7.6802 9.9307 7.91272 10.33C8.1503 10.7294 8.55974 11.0276 9.08039 11.1337C9.60104 11.2399 10.1419 11.1337 10.5867 10.876C11.0366 10.6182 11.3904 10.2087 11.5522 9.70829C11.714 9.20786 11.6482 8.71248 11.4107 8.31315C11.1731 7.91382 10.7687 7.61559 10.2481 7.50944C9.72235 7.40328 9.18654 7.50944 8.73666 7.76723C8.29183 8.02503 7.93294 8.43447 7.77119 8.9349Z" fill="url(#paint31_linear_2939_514)"/>
<path style="mix-blend-mode:multiply" d="M9.58121 10.4161C9.56773 10.4599 9.55256 10.5038 9.53571 10.5476C9.50033 10.6385 9.45989 10.7245 9.41945 10.8104L9.39418 10.8711L8.96957 10.7447L8.9999 10.679C9.03528 10.6032 9.07067 10.5223 9.101 10.4465C9.11448 10.4128 9.12796 10.3774 9.14144 10.3403C8.94935 10.2291 8.84826 10.0067 8.79771 9.78428L8.7876 9.73879L9.14649 9.51132L9.17177 9.56187C9.23748 9.67308 9.35374 9.85505 9.49022 9.88538C9.51549 9.89043 9.55088 9.89043 9.56099 9.85505C9.56436 9.84831 9.56604 9.83989 9.56604 9.82978C9.57615 9.73879 9.46494 9.61242 9.41945 9.55176C9.23748 9.32429 9.11111 9.06144 9.2122 8.72782C9.30825 8.43464 9.54582 8.23245 9.82889 8.18696C9.86428 8.0707 9.89461 7.95443 9.92999 7.84323L9.95526 7.77246L10.3799 7.89378L10.3597 7.94938C10.3293 8.06059 10.2939 8.16674 10.2636 8.27289C10.3596 8.34366 10.4304 8.44475 10.4709 8.56101C10.5062 8.65706 10.5265 8.79354 10.4911 8.89969C10.4456 9.04122 10.39 9.15748 10.2939 9.27374L10.2586 9.31924L9.83395 9.07661L9.87944 9.01595C9.91483 8.97045 9.9401 8.93002 9.95526 8.87441C9.97548 8.81376 9.9401 8.75815 9.8845 8.74804C9.82889 8.73793 9.77834 8.77332 9.75813 8.83397C9.7278 8.93002 9.77329 9.04122 9.83395 9.10188C9.98054 9.25353 10.1676 9.45066 10.1827 9.68319C10.1895 9.75395 10.181 9.82304 10.1575 9.89043C10.0715 10.1786 9.85417 10.3706 9.58121 10.4161Z" fill="url(#paint32_linear_2939_514)"/>
<path d="M10.2535 9.23348C10.3344 9.13744 10.385 9.03635 10.4304 8.88976C10.481 8.73306 10.4153 8.43988 10.1929 8.30845C10.2181 8.20735 10.2434 8.12142 10.3041 7.93945L9.99068 7.85352C9.93002 8.0456 9.9098 8.14164 9.87442 8.24274C9.63179 8.26801 9.36894 8.42977 9.27289 8.74317C9.1718 9.06162 9.31333 9.30931 9.47003 9.50645C9.59135 9.65809 9.65201 9.75919 9.62168 9.86534C9.5964 9.93611 9.53069 9.95632 9.47003 9.94621C9.30322 9.91589 9.18191 9.70358 9.12125 9.59743L8.8584 9.76424C8.89884 9.926 8.98477 10.1939 9.21729 10.3051C9.16169 10.4568 9.14147 10.5174 9.05554 10.6994L9.36388 10.7904C9.45487 10.5983 9.4852 10.5275 9.53575 10.3607C9.77332 10.3354 10.0058 10.1888 10.1019 9.8805C10.1878 9.60754 10.0362 9.4104 9.78849 9.15261C9.70761 9.06667 9.66717 8.93525 9.70256 8.82404C9.73288 8.71284 9.83398 8.6724 9.90475 8.68251C10.0008 8.70273 10.0412 8.79877 10.016 8.8847C9.99574 8.94536 9.97046 8.99591 9.92497 9.05151L10.2535 9.23348Z" fill="url(#paint33_linear_2939_514)"/>
<path style="mix-blend-mode:multiply" fill-rule="evenodd" clip-rule="evenodd" d="M9.39403 10.8711L9.29799 10.8761L8.87338 10.7548L8.90371 10.6891C8.93909 10.6133 8.97448 10.5324 9.00481 10.4566C9.01829 10.4195 9.03176 10.3841 9.04524 10.3504C8.85316 10.2342 8.75206 10.0168 8.70152 9.79439L8.69141 9.7489L9.0503 9.52143L9.14634 9.51132L8.78745 9.73879L8.79756 9.78428C8.8481 10.0067 8.9492 10.2291 9.14128 10.3403C9.1278 10.3774 9.11433 10.4128 9.10085 10.4465C9.07052 10.5223 9.03513 10.6032 8.99975 10.679L8.96942 10.7447L9.39403 10.8711ZM9.46479 9.86516C9.46816 9.85842 9.46985 9.84999 9.46985 9.83989C9.47996 9.75395 9.36875 9.62253 9.32326 9.56187C9.14129 9.3344 9.01491 9.07661 9.11601 8.74299C9.21205 8.44475 9.44963 8.24256 9.7327 8.19707C9.76808 8.08586 9.79841 7.9696 9.83885 7.85334L9.84896 7.80784L9.95511 7.77246L9.93489 7.84323C9.89445 7.95949 9.86413 8.07575 9.82874 8.18696C9.54567 8.23245 9.30809 8.43464 9.21205 8.73288C9.11096 9.0665 9.23733 9.32429 9.4193 9.55176C9.46479 9.61242 9.576 9.74384 9.56589 9.83483C9.56589 9.84157 9.56421 9.84831 9.56084 9.85505C9.55073 9.89043 9.51534 9.89043 9.49007 9.88538C9.47996 9.88201 9.46985 9.87864 9.45974 9.87527C9.46311 9.8719 9.46479 9.86853 9.46479 9.86516ZM10.2584 9.31924L10.1624 9.32935L9.90962 9.18781C9.88603 9.15748 9.86076 9.13052 9.8338 9.10694C9.81358 9.08335 9.79673 9.05807 9.78325 9.03111C9.81863 8.98056 9.84391 8.94013 9.85907 8.88452C9.87929 8.83397 9.85402 8.78343 9.81358 8.76321C9.8338 8.74804 9.85907 8.74299 9.8894 8.74804C9.93995 8.75815 9.97533 8.81881 9.95511 8.87441C9.93995 8.93002 9.91467 8.97551 9.87929 9.021L9.8338 9.08166L10.2584 9.31924Z" fill="url(#paint34_linear_2939_514)"/>
<g style="mix-blend-mode:multiply">
<path d="M21.3404 6.87695L2.47073 12.6799L1.9248 16.0919L22.1492 13.8779L21.3404 6.87695Z" fill="#B7B7B7"/>
</g>
<path d="M21.4262 5.77441L1.88428 11.82L1.92471 16.0913L22.2856 13.1747L21.4262 5.77441Z" fill="url(#paint35_linear_2939_514)"/>
<g style="mix-blend-mode:multiply">
<path d="M3.84198 14.6052C3.69995 14.6483 3.56193 14.673 3.42792 14.6793C3.29717 14.6848 3.17776 14.6665 3.06969 14.6245C2.96162 14.5825 2.87142 14.515 2.79909 14.4222C2.73003 14.3285 2.68575 14.2024 2.66627 14.0439C2.65444 13.9565 2.64422 13.8617 2.63561 13.7596C2.62616 13.6542 2.61796 13.5537 2.611 13.4581C2.60356 13.2514 2.6322 13.0702 2.6969 12.9146C2.76245 12.7623 2.86323 12.6323 2.99926 12.5247C3.13528 12.417 3.30492 12.3321 3.50816 12.2699C3.63059 12.2318 3.75718 12.21 3.88793 12.2045C4.02111 12.1949 4.1458 12.2067 4.26201 12.2397C4.37578 12.2768 4.47126 12.3377 4.54846 12.4223C4.62565 12.507 4.67112 12.6241 4.68484 12.7736C4.68657 12.794 4.68298 12.8141 4.67407 12.8337C4.66107 12.8509 4.64477 12.862 4.62518 12.867L3.99095 13.0598C3.95913 13.0714 3.93502 13.0723 3.91864 13.0626C3.90225 13.0528 3.88662 13.0325 3.87178 13.0015C3.84125 12.9362 3.80553 12.8984 3.76462 12.8879C3.72288 12.8742 3.6763 12.8756 3.62488 12.8922C3.55713 12.9129 3.50376 12.9491 3.46475 13.0008C3.42901 13.0516 3.41381 13.1285 3.41917 13.2315C3.42731 13.4137 3.44282 13.5975 3.4657 13.783C3.48085 13.8834 3.50933 13.9475 3.55113 13.9751C3.59537 13.9986 3.65136 14 3.71911 13.9793C3.77462 13.9651 3.81987 13.938 3.85484 13.8978C3.8939 13.86 3.91982 13.8047 3.93258 13.7319C3.94303 13.691 3.95475 13.6619 3.96775 13.6447C3.98402 13.6267 4.00807 13.6118 4.03989 13.6003L4.66922 13.4087C4.68881 13.4037 4.7068 13.4061 4.72319 13.4158C4.73958 13.4256 4.74864 13.4407 4.75036 13.4611C4.76082 13.6114 4.74507 13.7476 4.7031 13.8695C4.66113 13.9915 4.59825 14.0997 4.51448 14.194C4.43397 14.2875 4.33666 14.3697 4.22254 14.4405C4.1076 14.508 3.98074 14.5629 3.84198 14.6052ZM5.52162 14.0523L4.91679 14.2376C4.89476 14.2467 4.87636 14.2427 4.86157 14.2256C4.84352 14.2093 4.83811 14.1881 4.84536 14.1619L5.34778 11.8537C5.35419 11.8242 5.36755 11.7947 5.38785 11.7652C5.40733 11.7324 5.43666 11.7111 5.47585 11.7011L6.1627 11.4897C6.20432 11.4756 6.23784 11.4775 6.26326 11.4954C6.28867 11.5132 6.30592 11.5332 6.31501 11.5552L7.19245 13.4443C7.20237 13.4696 7.20166 13.4941 7.19032 13.5179C7.17489 13.5392 7.15615 13.5544 7.13413 13.5635L6.57703 13.7314C6.53868 13.7447 6.50926 13.7452 6.48877 13.733C6.47072 13.7168 6.45798 13.7009 6.45056 13.6854L6.35408 13.4909L5.69171 13.6961L5.63268 13.9354C5.62704 13.9542 5.61692 13.9759 5.60232 14.0005C5.59098 14.0242 5.56408 14.0415 5.52162 14.0523ZM5.90893 12.3367L5.79168 13.0029L6.14063 12.8984L5.90893 12.3367ZM8.28269 13.2397C8.05659 13.3078 7.85973 13.3335 7.6921 13.3171C7.52775 13.2998 7.3988 13.2509 7.30528 13.1704C7.21175 13.0899 7.15819 12.9888 7.14458 12.8671C7.14286 12.8467 7.14686 12.8283 7.1566 12.8119C7.1696 12.7947 7.18548 12.7819 7.20425 12.7737L7.78949 12.5933C7.82215 12.585 7.84789 12.5837 7.86671 12.5893C7.8847 12.5917 7.90557 12.5986 7.92932 12.6099C7.94898 12.6188 7.97026 12.6273 7.99318 12.6354C8.01854 12.6393 8.04469 12.6396 8.07165 12.6363C8.10187 12.632 8.13331 12.6258 8.16597 12.6175C8.23698 12.5959 8.29285 12.5695 8.33359 12.5383C8.37188 12.5111 8.39055 12.482 8.3896 12.451C8.38705 12.4273 8.37389 12.4098 8.35014 12.3984C8.32312 12.3879 8.28061 12.3848 8.2226 12.3892C8.16049 12.3911 8.07798 12.4017 7.97508 12.4209C7.81091 12.4453 7.66624 12.4439 7.54107 12.4167C7.4159 12.3894 7.3143 12.3318 7.23627 12.2439C7.16151 12.1551 7.11972 12.0388 7.11093 11.895C7.0887 11.6712 7.14955 11.4731 7.29347 11.3009C7.43738 11.1286 7.64932 10.9981 7.92928 10.9095C8.06804 10.8672 8.20077 10.849 8.32749 10.855C8.4542 10.861 8.56791 10.8842 8.66862 10.9246C8.77259 10.9642 8.85495 11.0145 8.9157 11.0756C8.97728 11.1399 9.0119 11.2076 9.01956 11.2786C9.02455 11.2982 9.02055 11.3166 9.00754 11.3339C8.99454 11.3511 8.98029 11.3634 8.9648 11.3708L8.34527 11.5599C8.31587 11.5674 8.29218 11.5699 8.27419 11.5675C8.2562 11.5652 8.23696 11.5579 8.21647 11.5457C8.20418 11.5384 8.18331 11.5316 8.15386 11.5252C8.12767 11.5179 8.09214 11.5217 8.04725 11.5366C7.99583 11.5532 7.95914 11.573 7.93717 11.596C7.9152 11.619 7.90428 11.6443 7.9044 11.6721C7.90612 11.6926 7.91723 11.7089 7.93771 11.721C7.96147 11.7324 7.99745 11.7371 8.04566 11.7353C8.09714 11.7326 8.16985 11.7245 8.26378 11.711C8.47284 11.6717 8.64201 11.6669 8.77128 11.6966C8.90624 11.7213 9.00784 11.7789 9.07607 11.8693C9.13938 11.954 9.17869 12.0675 9.19402 12.2096C9.21304 12.4482 9.14775 12.6561 8.99813 12.8333C8.84358 13.0048 8.6051 13.1403 8.28269 13.2397ZM10.1668 12.6296L9.562 12.8149C9.53587 12.8215 9.51462 12.82 9.49823 12.8103C9.48101 12.7973 9.4707 12.7773 9.46732 12.7503L9.2803 10.6228C9.27774 10.5991 9.28418 10.5766 9.29962 10.5553C9.31422 10.5307 9.33296 10.5155 9.35581 10.5097L9.96065 10.3244C9.98267 10.3153 10.0023 10.3173 10.0195 10.3303C10.04 10.3424 10.0515 10.3604 10.0541 10.3841L10.1159 11.0777L10.6143 10.9247L10.5524 10.2311C10.5498 10.2074 10.5563 10.1849 10.5717 10.1636C10.5872 10.1423 10.6059 10.1271 10.6279 10.118L11.2327 9.93268C11.2556 9.92686 11.2756 9.93045 11.2929 9.94345C11.3134 9.95563 11.3249 9.97356 11.3274 9.99725L11.5144 12.1247C11.517 12.1484 11.511 12.1726 11.4964 12.1972C11.4809 12.2185 11.4618 12.232 11.4389 12.2379L10.8341 12.4232C10.8121 12.4323 10.7908 12.4307 10.7703 12.4185C10.7531 12.4055 10.7432 12.3872 10.7407 12.3635L10.6787 11.649L10.1755 11.8032L10.2375 12.5177C10.2433 12.5406 10.2368 12.5631 10.2181 12.5852C10.2068 12.609 10.1897 12.6238 10.1668 12.6296ZM13.0649 11.7404L11.9421 12.0837C11.9201 12.0927 11.9005 12.0908 11.8833 12.0778C11.866 12.0648 11.8562 12.0464 11.8536 12.0227L11.6653 9.89034C11.6628 9.86665 11.6676 9.84456 11.6798 9.82408C11.6985 9.80193 11.7188 9.78631 11.7409 9.77722L12.7044 9.48493C12.8913 9.4269 13.0555 9.40248 13.197 9.41167C13.3384 9.42087 13.4522 9.46492 13.5384 9.54382C13.6245 9.62273 13.6732 9.73898 13.6845 9.89259C13.6922 9.96367 13.6835 10.032 13.6585 10.0974C13.6367 10.1621 13.6075 10.2182 13.5709 10.2658C13.5384 10.3158 13.5063 10.3535 13.4746 10.379C13.5547 10.3934 13.6276 10.4339 13.6933 10.5006C13.7598 10.5706 13.7982 10.66 13.8085 10.7686C13.8231 10.9353 13.8062 11.0805 13.7577 11.2041C13.7092 11.3277 13.6283 11.4335 13.5151 11.5214C13.3986 11.6102 13.2485 11.6832 13.0649 11.7404ZM12.554 10.9837L12.5836 11.3048L12.8701 11.2214C12.9216 11.2049 12.9574 11.1749 12.9776 11.1315C12.9946 11.0889 13.0002 11.0492 12.9943 11.0125C12.9949 10.9741 12.9817 10.9426 12.9546 10.9182C12.9267 10.8906 12.8899 10.8826 12.8442 10.8942L12.554 10.9837ZM12.4792 10.1369L12.5026 10.4335L12.7646 10.3563C12.8095 10.3414 12.8396 10.3164 12.855 10.2812C12.8728 10.2419 12.8804 10.2034 12.8778 10.1658C12.8728 10.1323 12.86 10.1026 12.8394 10.0765C12.818 10.0472 12.7849 10.0399 12.74 10.0549L12.4792 10.1369ZM14.5856 11.2802L13.9807 11.4655C13.9579 11.4713 13.939 11.4657 13.9243 11.4486C13.9062 11.4323 13.9012 11.4127 13.9093 11.3898L14.4105 9.0766C14.4177 9.05042 14.4311 9.02094 14.4505 8.98816C14.4708 8.95865 14.5018 8.93685 14.5434 8.92278L15.2254 8.71262C15.2678 8.70181 15.3013 8.70371 15.3259 8.71831C15.3513 8.73618 15.3686 8.75613 15.3777 8.77816L16.2551 10.6673C16.2659 10.6958 16.2652 10.7203 16.253 10.7408C16.2376 10.7622 16.2188 10.7774 16.1968 10.7864L15.6397 10.9544C15.6014 10.9676 15.5719 10.9682 15.5514 10.956C15.5334 10.9397 15.5207 10.9238 15.5132 10.9083L15.4168 10.7138L14.7544 10.919L14.6954 11.1583C14.6938 11.1796 14.6841 11.2029 14.6662 11.2283C14.6541 11.2488 14.6272 11.2661 14.5856 11.2802ZM14.9729 9.56455L14.8544 10.2259L15.2033 10.1214L14.9729 9.56455ZM17.4005 10.4539C17.2617 10.4962 17.1254 10.5204 16.9913 10.5268C16.8606 10.5322 16.7395 10.5144 16.6282 10.4732C16.5234 10.4303 16.4348 10.3624 16.3625 10.2696C16.2935 10.1759 16.2475 10.0502 16.2248 9.89257C16.2162 9.80434 16.206 9.70957 16.1941 9.60828C16.1879 9.50205 16.1818 9.40278 16.1757 9.31044C16.1674 9.10043 16.1956 8.91763 16.2603 8.76206C16.3259 8.60975 16.4267 8.47977 16.5627 8.37211C16.6987 8.26444 16.8683 8.17952 17.0716 8.11734C17.194 8.07921 17.3206 8.05741 17.4513 8.05194C17.5845 8.04237 17.7076 8.0545 17.8205 8.08833C17.9376 8.12461 18.0347 8.18507 18.1119 8.26974C18.1891 8.3544 18.2345 8.47149 18.2483 8.621C18.25 8.64143 18.2448 8.66189 18.2326 8.68237C18.2196 8.69959 18.2049 8.71028 18.1886 8.71444L17.5544 8.90723C17.5226 8.91881 17.4984 8.91973 17.4821 8.90999C17.4657 8.90026 17.4484 8.88031 17.4303 8.85014C17.403 8.78406 17.369 8.74579 17.328 8.73535C17.2863 8.72163 17.2397 8.72306 17.1883 8.73963C17.1173 8.76119 17.0639 8.79739 17.0282 8.84822C16.9892 8.89988 16.974 8.97677 16.9826 9.0789C16.9907 9.26113 17.0062 9.44496 17.0291 9.63039C17.041 9.73169 17.0695 9.79572 17.1146 9.8225C17.1588 9.84601 17.2148 9.8474 17.2825 9.82667C17.338 9.81254 17.3833 9.78537 17.4183 9.74517C17.4573 9.7074 17.4832 9.65212 17.496 9.57932C17.5032 9.53924 17.5149 9.51018 17.5312 9.49212C17.5474 9.47407 17.5715 9.45925 17.6033 9.44767L18.2326 9.25613C18.2522 9.25114 18.2686 9.25393 18.2817 9.2645C18.2981 9.27424 18.3072 9.28932 18.3089 9.30974C18.3193 9.46009 18.3036 9.59624 18.2616 9.7182C18.2229 9.83934 18.1617 9.94708 18.0779 10.0414C17.9974 10.135 17.9001 10.2171 17.786 10.2879C17.671 10.3554 17.5425 10.4107 17.4005 10.4539ZM19.2932 9.83631L18.7031 10.0179C18.681 10.027 18.6598 10.0254 18.6393 10.0132C18.6221 10.0002 18.6122 9.9819 18.6096 9.95821L18.4226 7.83071C18.4192 7.80375 18.4252 7.77961 18.4407 7.7583C18.4561 7.73698 18.4748 7.72178 18.4969 7.71269L19.087 7.53113C19.1099 7.52531 19.1299 7.5289 19.1471 7.5419C19.1676 7.55407 19.1791 7.572 19.1817 7.59569L19.2336 8.25015L19.5257 7.4716C19.5346 7.45194 19.5484 7.43104 19.5671 7.40889C19.5858 7.38674 19.6114 7.37151 19.6441 7.3632L20.3408 7.1493C20.3701 7.14181 20.3926 7.14825 20.4083 7.16862C20.4206 7.18982 20.4215 7.21392 20.411 7.24094L19.9138 8.4838L20.6175 9.32177C20.6404 9.34374 20.6434 9.36906 20.6264 9.39774C20.6118 9.42232 20.5935 9.43916 20.5714 9.44825L19.9127 9.64727C19.8776 9.65968 19.8486 9.66185 19.8257 9.65378C19.806 9.64487 19.7888 9.63187 19.774 9.61477L19.3044 9.01976L19.3638 9.72444C19.3664 9.74813 19.3603 9.77227 19.3457 9.79685C19.3336 9.81734 19.3161 9.83049 19.2932 9.83631Z" fill="#9DA0A5"/>
</g>
<path d="M3.69008 14.3568C3.55132 14.3991 3.41494 14.4234 3.28092 14.4297C3.15017 14.4352 3.02913 14.4173 2.91779 14.3761C2.80972 14.3341 2.72116 14.2662 2.65209 14.1725C2.58303 14.0788 2.53713 13.9532 2.51437 13.7955C2.50255 13.7081 2.49233 13.6134 2.48371 13.5112C2.47753 13.405 2.47096 13.3041 2.464 13.2085C2.4533 13.0026 2.48194 12.8214 2.54991 12.665C2.61545 12.5127 2.71623 12.3827 2.85226 12.2751C2.98828 12.1674 3.15628 12.0829 3.35626 12.0215C3.48196 11.9826 3.61019 11.9604 3.74093 11.9549C3.87412 11.9453 3.99717 11.9574 4.11011 11.9913C4.22388 12.0284 4.321 12.0888 4.40146 12.1727C4.47866 12.2573 4.52412 12.3744 4.53785 12.5239C4.53957 12.5444 4.53435 12.5648 4.52217 12.5853C4.50917 12.6025 4.49288 12.6136 4.47328 12.6186L3.84396 12.8102C3.81213 12.8218 3.78802 12.8227 3.77163 12.8129C3.75525 12.8032 3.738 12.7833 3.71989 12.7531C3.69263 12.687 3.65854 12.6487 3.61763 12.6383C3.57588 12.6246 3.52767 12.6264 3.47299 12.6438C3.40524 12.6646 3.35186 12.7007 3.31285 12.7524C3.27711 12.8032 3.26355 12.8797 3.27217 12.9818C3.28032 13.1641 3.29583 13.3479 3.3187 13.5333C3.33059 13.6346 3.35906 13.6987 3.40413 13.7254C3.44837 13.749 3.50437 13.7503 3.57211 13.7296C3.62436 13.7163 3.66961 13.6891 3.70784 13.6481C3.74691 13.6103 3.77282 13.5551 3.78558 13.4823C3.79276 13.4422 3.80449 13.4131 3.82076 13.3951C3.83376 13.3778 3.85781 13.363 3.8929 13.3506L4.52222 13.1591C4.54182 13.1541 4.55818 13.1569 4.5713 13.1674C4.58769 13.1772 4.59674 13.1923 4.59846 13.2127C4.60893 13.363 4.59317 13.4992 4.5512 13.6211C4.5125 13.7423 4.45126 13.85 4.36748 13.9444C4.28698 14.0379 4.18967 14.1201 4.07555 14.1908C3.9606 14.2584 3.83211 14.3137 3.69008 14.3568ZM5.37463 13.8027L4.7698 13.988C4.74777 13.9971 4.72773 13.9935 4.70968 13.9772C4.69489 13.9601 4.68949 13.9389 4.69346 13.9135L5.20078 11.604C5.20393 11.5754 5.21565 11.5463 5.23596 11.5168C5.25543 11.484 5.28639 11.4623 5.32885 11.4514L6.01571 11.24C6.05733 11.226 6.08921 11.2283 6.11136 11.247C6.13678 11.2648 6.15403 11.2848 6.16312 11.3068L7.04056 13.1959C7.05374 13.2204 7.05303 13.2449 7.03843 13.2695C7.02626 13.29 7.00916 13.3048 6.98713 13.3139L6.43004 13.4818C6.38841 13.4959 6.35899 13.4964 6.34177 13.4834C6.32372 13.4671 6.30935 13.4517 6.29866 13.437L6.20709 13.2412L5.53982 13.4477L5.48569 13.6857C5.48005 13.7046 5.46993 13.7263 5.45532 13.7508C5.44072 13.7754 5.41382 13.7927 5.37463 13.8027ZM5.76194 12.0871L5.63979 12.7545L5.98874 12.65L5.76194 12.0871ZM8.1357 12.9901C7.90959 13.0581 7.71437 13.0835 7.55001 13.0662C7.38565 13.0489 7.25507 13.0005 7.15828 12.9208C7.06802 12.8395 7.01446 12.7383 6.99759 12.6175C6.99586 12.597 7.0015 12.5782 7.0145 12.561C7.02424 12.5446 7.03849 12.5323 7.05725 12.524L7.64739 12.3425C7.68005 12.3341 7.70415 12.3332 7.71971 12.3397C7.74096 12.3412 7.76347 12.3477 7.78722 12.359C7.80688 12.3679 7.82817 12.3764 7.85109 12.3845C7.87644 12.3885 7.9026 12.3888 7.92955 12.3854C7.95651 12.382 7.98795 12.3757 8.02387 12.3666C8.09162 12.3458 8.14586 12.3199 8.18659 12.2886C8.22815 12.2607 8.24682 12.2316 8.24261 12.2013C8.24332 12.1768 8.23016 12.1593 8.20315 12.1488C8.17939 12.1374 8.13688 12.1344 8.0756 12.1395C8.01676 12.1406 7.93589 12.1508 7.83299 12.17C7.66554 12.1953 7.51924 12.1943 7.39407 12.167C7.26891 12.1398 7.16894 12.0818 7.09418 11.993C7.01941 11.9042 6.976 11.7884 6.96393 11.6454C6.94171 11.4215 7.00255 11.2235 7.14647 11.0512C7.29039 10.879 7.50232 10.7485 7.78228 10.6598C7.92431 10.6167 8.05705 10.5985 8.18049 10.6054C8.31047 10.6105 8.42581 10.6333 8.52652 10.6737C8.62723 10.7142 8.70795 10.7649 8.7687 10.8259C8.83354 10.8894 8.8698 10.9567 8.87747 11.0278C8.88246 11.0473 8.87845 11.0658 8.86545 11.083C8.85328 11.1035 8.83903 11.1158 8.8227 11.1199L8.20317 11.309C8.17378 11.3165 8.15009 11.319 8.13209 11.3167C8.1141 11.3143 8.09486 11.307 8.07438 11.2948C8.06209 11.2875 8.04121 11.2807 8.01176 11.2743C7.98231 11.2679 7.94678 11.2717 7.90515 11.2858C7.85373 11.3023 7.81704 11.3221 7.79507 11.3451C7.7731 11.3681 7.76218 11.3935 7.7623 11.4212C7.76403 11.4417 7.77513 11.458 7.79562 11.4701C7.8161 11.4823 7.85045 11.4875 7.89867 11.4856C7.95015 11.4829 8.02448 11.4745 8.12168 11.4601C8.33075 11.4208 8.49991 11.416 8.62918 11.4457C8.76088 11.4712 8.86085 11.5293 8.92908 11.6197C8.99565 11.7036 9.03496 11.817 9.04703 11.96C9.06931 12.1977 9.00401 12.4056 8.85113 12.5836C8.69985 12.7543 8.46137 12.8898 8.1357 12.9901ZM10.0198 12.3799L9.415 12.5653C9.39214 12.5711 9.37089 12.5695 9.35124 12.5606C9.33402 12.5476 9.32371 12.5276 9.32032 12.5007L9.1382 10.3719C9.13564 10.3482 9.14045 10.3262 9.15262 10.3057C9.16723 10.2811 9.18596 10.2659 9.20882 10.2601L9.81855 10.0735C9.84058 10.0644 9.8602 10.0664 9.87742 10.0794C9.89464 10.0924 9.90453 10.1107 9.90709 10.1344L9.96895 10.8281L10.4722 10.6739L10.4103 9.98022C10.4077 9.95653 10.4125 9.93444 10.4247 9.91395C10.4434 9.8918 10.4638 9.87619 10.4858 9.8671L11.0906 9.6818C11.1135 9.67597 11.1335 9.67957 11.1508 9.69257C11.1713 9.70474 11.1828 9.72267 11.1853 9.74636L11.3675 11.8751C11.37 11.8988 11.364 11.9229 11.3494 11.9475C11.3372 11.968 11.3197 11.9812 11.2968 11.987L10.6871 12.1735C10.6651 12.1826 10.6455 12.1807 10.6282 12.1677C10.611 12.1547 10.6011 12.1363 10.5986 12.1126L10.5317 11.3994L10.0334 11.5523L10.0954 12.2668C10.0979 12.2905 10.0915 12.313 10.076 12.3343C10.0614 12.3589 10.0427 12.3741 10.0198 12.3799ZM12.9179 11.4908L11.8 11.8328C11.778 11.8419 11.7568 11.8403 11.7363 11.8281C11.719 11.8151 11.7092 11.7968 11.7066 11.7731L11.5183 9.64071C11.5158 9.61701 11.5222 9.59451 11.5377 9.57319C11.5531 9.55187 11.5718 9.53667 11.5939 9.52759L12.5623 9.23404C12.7492 9.17601 12.9118 9.15201 13.05 9.16203C13.1947 9.1704 13.3101 9.21403 13.3963 9.29294C13.4792 9.37267 13.5279 9.48893 13.5424 9.64171C13.5468 9.71361 13.5382 9.7819 13.5164 9.84656C13.4946 9.91122 13.4654 9.96734 13.4288 10.0149C13.3931 10.0657 13.3593 10.1039 13.3276 10.1294C13.411 10.1429 13.4855 10.183 13.5512 10.2498C13.6177 10.3198 13.6561 10.4091 13.6664 10.5177C13.681 10.6844 13.6641 10.8296 13.6156 10.9532C13.5671 11.0768 13.4846 11.183 13.3681 11.2718C13.2549 11.3597 13.1048 11.4327 12.9179 11.4908ZM12.4119 10.7328L12.4366 11.0552L12.728 10.9705C12.7795 10.954 12.8137 10.9244 12.8306 10.8818C12.8509 10.8384 12.8581 10.7983 12.8522 10.7616C12.8528 10.7232 12.838 10.6922 12.8076 10.6686C12.783 10.6401 12.7462 10.6321 12.6972 10.6446L12.4119 10.7328ZM12.3371 9.88602L12.3605 10.1826L12.6225 10.1055C12.6674 10.0905 12.6975 10.0655 12.7129 10.0303C12.7307 9.99097 12.7383 9.95252 12.7357 9.91493C12.7339 9.88061 12.7211 9.85084 12.6973 9.8256C12.6759 9.79627 12.6428 9.78906 12.5979 9.80397L12.3371 9.88602ZM14.4484 11.028L13.8435 11.2133C13.8207 11.2192 13.8018 11.2135 13.7871 11.1964C13.769 11.1802 13.764 11.1606 13.7721 11.1376L14.2733 8.82447C14.2772 8.79912 14.289 8.77005 14.3084 8.73727C14.3287 8.70776 14.3597 8.68597 14.4013 8.67189L15.0882 8.46048C15.1306 8.44967 15.1625 8.45199 15.1838 8.46742C15.2093 8.4853 15.2265 8.50524 15.2356 8.52727L16.113 10.4164C16.1271 10.4441 16.1263 10.4686 16.1109 10.4899C16.0987 10.5104 16.0816 10.5252 16.0596 10.5343L15.5025 10.7022C15.4642 10.7155 15.4347 10.716 15.4142 10.7038C15.3962 10.6876 15.3818 10.6721 15.3711 10.6574L15.2796 10.4617L14.6123 10.6681L14.5582 10.9062C14.5534 10.9283 14.5436 10.9516 14.529 10.9762C14.5136 10.9975 14.4867 11.0148 14.4484 11.028ZM14.8357 9.31242L14.7123 9.97499L15.0612 9.87049L14.8357 9.31242ZM17.2682 10.2005C17.1294 10.2428 16.9931 10.2671 16.859 10.2734C16.7283 10.2788 16.6073 10.261 16.4959 10.2198C16.3878 10.1778 16.2976 10.1103 16.2253 10.0174C16.1563 9.92375 16.112 9.79767 16.0925 9.63919C16.0807 9.55179 16.0704 9.45703 16.0618 9.3549C16.0556 9.24867 16.0495 9.14939 16.0434 9.05706C16.0318 8.84788 16.0584 8.6655 16.1231 8.50992C16.1887 8.35762 16.2895 8.22763 16.4255 8.11997C16.5648 8.01148 16.7344 7.92656 16.9344 7.8652C17.0601 7.82624 17.1883 7.80403 17.3191 7.79855C17.4522 7.78898 17.5753 7.80112 17.6882 7.83495C17.802 7.87205 17.8975 7.93294 17.9747 8.0176C18.0551 8.10144 18.1022 8.21811 18.116 8.36762C18.1177 8.38805 18.1125 8.4085 18.1003 8.42899C18.0873 8.44621 18.071 8.45732 18.0514 8.4623L17.4221 8.65384C17.387 8.66626 17.3612 8.6676 17.3449 8.65786C17.3285 8.64812 17.3128 8.62776 17.298 8.59676C17.2675 8.53151 17.2318 8.49366 17.1908 8.48321C17.1524 8.46867 17.1058 8.4701 17.0511 8.4875C16.9834 8.50823 16.93 8.54442 16.891 8.59608C16.8552 8.64691 16.84 8.72381 16.8454 8.82676C16.8535 9.00899 16.8707 9.19241 16.8968 9.37701C16.9087 9.47831 16.9372 9.54234 16.9823 9.56912C17.0232 9.59346 17.0776 9.59527 17.1453 9.57454C17.2008 9.5604 17.2477 9.53282 17.286 9.49179C17.3218 9.45485 17.3477 9.39957 17.3637 9.32594C17.3709 9.28586 17.3826 9.25679 17.3989 9.23874C17.4119 9.22152 17.4343 9.20712 17.4661 9.19554L18.1003 9.00275C18.1199 8.99776 18.1363 9.00055 18.1494 9.01112C18.1658 9.02086 18.1749 9.03594 18.1766 9.05636C18.187 9.20671 18.1713 9.34286 18.1293 9.46482C18.0906 9.58595 18.0294 9.6937 17.9456 9.78806C17.8618 9.88241 17.7629 9.96499 17.6488 10.0358C17.5338 10.1033 17.407 10.1582 17.2682 10.2005ZM19.156 9.58418L18.5659 9.76574C18.5438 9.77483 18.5226 9.77329 18.5021 9.76112C18.4849 9.74811 18.475 9.72977 18.4724 9.70608L18.2903 7.57733C18.2869 7.55037 18.2913 7.52665 18.3035 7.50616C18.3189 7.48485 18.3376 7.46964 18.3597 7.46056L18.9498 7.279C18.9727 7.27318 18.9927 7.27677 19.0099 7.28977C19.0304 7.30194 19.0419 7.31987 19.0445 7.34356L19.1013 7.99677L19.3933 7.21822C19.4023 7.19856 19.4144 7.17808 19.4299 7.15676C19.4486 7.13461 19.4742 7.11938 19.5069 7.11106L20.2085 6.89592C20.2378 6.88843 20.2587 6.89529 20.2711 6.91648C20.2834 6.93768 20.286 6.96137 20.2787 6.98756L19.7815 8.23042L20.4852 9.06839C20.5049 9.09119 20.5062 9.11693 20.4892 9.14561C20.4746 9.17019 20.4563 9.18702 20.4342 9.19611L19.7755 9.39514C19.7437 9.40672 19.7163 9.40847 19.6934 9.4004C19.6737 9.39149 19.6565 9.37849 19.6417 9.36139L19.172 8.76638L19.2315 9.47106C19.2341 9.49475 19.228 9.51889 19.2134 9.54347C19.198 9.56479 19.1789 9.57836 19.156 9.58418Z" fill="white"/>
<g style="mix-blend-mode:multiply">
<path d="M15.7579 12.4801C15.7836 12.5841 15.7902 12.6855 15.7778 12.7842C15.7653 12.883 15.7358 12.9749 15.6891 13.06C15.6434 13.1434 15.5817 13.2153 15.5039 13.2757C15.4275 13.3357 15.3379 13.3784 15.2353 13.4037C15.1326 13.4291 15.0335 13.4329 14.9379 13.4153C14.8423 13.3977 14.7542 13.3628 14.6736 13.3105C14.5941 13.2566 14.5259 13.1888 14.4689 13.1072C14.412 13.0256 14.3707 12.9327 14.345 12.8287C14.3194 12.7246 14.3127 12.6233 14.3252 12.5245C14.3376 12.4258 14.3667 12.3347 14.4123 12.2514C14.459 12.1663 14.5206 12.0937 14.597 12.0336C14.6734 11.9736 14.763 11.9309 14.8656 11.9055C14.9683 11.8802 15.0674 11.8764 15.163 11.894C15.26 11.9113 15.3482 11.9469 15.4278 12.0008C15.5083 12.0531 15.5771 12.12 15.634 12.2016C15.691 12.2832 15.7323 12.376 15.7579 12.4801ZM15.4874 12.5468C15.4645 12.4539 15.4251 12.3746 15.3691 12.3089C15.3128 12.2418 15.2466 12.1942 15.1705 12.1659C15.0943 12.1376 15.0132 12.134 14.9272 12.1552C14.8412 12.1765 14.7711 12.2173 14.7168 12.2778C14.6626 12.3383 14.626 12.4106 14.607 12.4947C14.5894 12.5785 14.5923 12.6676 14.6155 12.7619C14.6385 12.8549 14.6774 12.9351 14.7323 13.0025C14.7882 13.0681 14.8543 13.1151 14.9304 13.1434C15.0066 13.1717 15.0876 13.1753 15.1737 13.154C15.2597 13.1328 15.3298 13.092 15.384 13.0315C15.4383 12.971 15.4749 12.8987 15.4939 12.8145C15.5125 12.729 15.5104 12.6398 15.4874 12.5468ZM16.348 11.4736C16.3785 11.466 16.4094 11.4628 16.4405 11.464C16.4717 11.4651 16.4994 11.473 16.5236 11.4876C16.5475 11.5009 16.5632 11.5227 16.5707 11.5533C16.5793 11.5879 16.5757 11.6183 16.5601 11.6442C16.5454 11.6684 16.5249 11.6838 16.4986 11.6903C16.4861 11.6934 16.4667 11.6952 16.4403 11.6958C16.4137 11.695 16.3885 11.6976 16.365 11.7034C16.3303 11.7119 16.3051 11.7262 16.2894 11.7463C16.2752 11.766 16.2671 11.7871 16.2653 11.8096C16.2632 11.8308 16.264 11.849 16.2678 11.8642L16.5301 12.9275C16.539 12.9636 16.5348 12.997 16.5173 13.0278C16.4996 13.0572 16.4727 13.0764 16.4366 13.0853C16.4005 13.0942 16.3678 13.0897 16.3384 13.072C16.3086 13.0528 16.2893 13.0252 16.2804 12.9891L16.0186 11.9279C15.9943 11.8294 16.0084 11.7376 16.061 11.6525C16.1136 11.5675 16.2093 11.5078 16.348 11.4736ZM16.4813 11.9153C16.5145 11.9071 16.545 11.9113 16.5727 11.9281C16.6 11.9434 16.6178 11.9677 16.626 12.001C16.6342 12.0343 16.63 12.0648 16.6133 12.0924C16.5962 12.1187 16.571 12.136 16.5377 12.1442L15.9863 12.2802C15.953 12.2885 15.9227 12.2849 15.8954 12.2696C15.8677 12.2529 15.8498 12.2278 15.8415 12.1946C15.8333 12.1613 15.8378 12.1315 15.8548 12.1052C15.8715 12.0775 15.8965 12.0596 15.9298 12.0514L16.4813 11.9153ZM17.2573 11.2492C17.2878 11.2417 17.3187 11.2385 17.3499 11.2396C17.3811 11.2408 17.4088 11.2486 17.433 11.2633C17.4568 11.2765 17.4725 11.2984 17.4801 11.3289C17.4886 11.3636 17.4851 11.3939 17.4694 11.4198C17.4548 11.4441 17.4343 11.4594 17.4079 11.4659C17.3954 11.469 17.376 11.4708 17.3497 11.4715C17.323 11.4707 17.2979 11.4732 17.2743 11.479C17.2396 11.4876 17.2144 11.5019 17.1988 11.5219C17.1845 11.5416 17.1765 11.5628 17.1747 11.5853C17.1725 11.6064 17.1733 11.6246 17.1771 11.6399L17.4394 12.7032C17.4483 12.7392 17.4441 12.7727 17.4267 12.8035C17.4089 12.8329 17.382 12.852 17.3459 12.8609C17.3098 12.8698 17.2771 12.8654 17.2477 12.8476C17.218 12.8285 17.1986 12.8009 17.1897 12.7648L16.9279 11.7036C16.9036 11.6051 16.9178 11.5133 16.9703 11.4282C17.0229 11.3431 17.1186 11.2834 17.2573 11.2492ZM17.3906 11.6909C17.4239 11.6827 17.4544 11.687 17.482 11.7037C17.5094 11.719 17.5271 11.7433 17.5354 11.7766C17.5436 11.8099 17.5393 11.8404 17.5226 11.8681C17.5055 11.8944 17.4804 11.9116 17.4471 11.9198L16.8956 12.0559C16.8623 12.0641 16.832 12.0605 16.8047 12.0452C16.777 12.0285 16.7591 12.0035 16.7509 11.9702C16.7427 11.9369 16.7471 11.9071 16.7641 11.8808C16.7809 11.8532 16.8059 11.8352 16.8392 11.827L17.3906 11.6909ZM18.5039 12.5973C18.386 12.6264 18.2773 12.6274 18.178 12.6004C18.0796 12.5717 17.9964 12.5209 17.9284 12.4479C17.8617 12.3746 17.8152 12.2845 17.7889 12.1777C17.7581 12.0528 17.7569 11.9405 17.7852 11.8408C17.8147 11.7394 17.8645 11.655 17.9347 11.5876C18.0049 11.5202 18.0858 11.4753 18.1773 11.4527C18.2481 11.4352 18.3183 11.4334 18.3879 11.4471C18.4589 11.4605 18.525 11.4869 18.5862 11.5262C18.6471 11.5642 18.6996 11.613 18.7438 11.6728C18.7893 11.7322 18.8214 11.7993 18.8398 11.8742C18.8467 11.9079 18.8402 11.9382 18.8203 11.9651C18.8005 11.9921 18.7739 12.0097 18.7406 12.0179L17.9457 12.214L17.832 12.0213L18.5957 11.8329L18.5601 11.8858L18.5463 11.8296C18.5336 11.7901 18.5101 11.7576 18.4759 11.7322C18.443 11.7065 18.405 11.6894 18.3617 11.6809C18.3194 11.6708 18.2768 11.671 18.2338 11.6816C18.1922 11.6918 18.1547 11.707 18.1214 11.727C18.0881 11.747 18.0615 11.7734 18.0416 11.8063C18.0218 11.8391 18.0097 11.8796 18.0054 11.9278C18.0011 11.9759 18.0073 12.034 18.0241 12.102C18.0425 12.1769 18.0736 12.2369 18.1171 12.2821C18.1616 12.3256 18.2116 12.3552 18.267 12.371C18.3235 12.385 18.3794 12.3852 18.4349 12.3715C18.4863 12.3588 18.5262 12.3446 18.5546 12.3287C18.5831 12.3128 18.605 12.2971 18.6203 12.2816C18.6366 12.2643 18.6514 12.2496 18.6646 12.2376C18.6865 12.2189 18.7085 12.2068 18.7307 12.2014C18.7612 12.1938 18.7888 12.1981 18.8133 12.2141C18.8393 12.2298 18.8557 12.2515 18.8625 12.2792C18.8717 12.3167 18.8607 12.3555 18.8294 12.3956C18.8009 12.435 18.7569 12.4745 18.6975 12.5142C18.6378 12.5525 18.5732 12.5802 18.5039 12.5973ZM19.3266 12.3722C19.2905 12.3811 19.2578 12.3767 19.2284 12.3589C19.1987 12.3398 19.1793 12.3122 19.1704 12.2761L18.9584 11.4167C18.9495 11.3806 18.9539 11.3479 18.9717 11.3185C18.9891 11.2877 19.0159 11.2679 19.0519 11.259C19.088 11.2501 19.1209 11.2552 19.1507 11.2744C19.1801 11.2921 19.1992 11.319 19.2081 11.3551L19.2564 11.5507L19.2074 11.4149C19.2144 11.3778 19.2267 11.3439 19.2441 11.3131C19.2626 11.2806 19.285 11.2522 19.3114 11.2281C19.3375 11.2025 19.3668 11.1813 19.3995 11.1644C19.4321 11.1475 19.4657 11.1348 19.5004 11.1262C19.542 11.116 19.5796 11.1192 19.6132 11.1359C19.6481 11.1523 19.6696 11.1765 19.6774 11.2084C19.6887 11.2542 19.6851 11.2904 19.6667 11.317C19.6479 11.3422 19.6246 11.3583 19.5969 11.3651C19.5705 11.3716 19.5451 11.3728 19.5205 11.3685C19.4973 11.364 19.4718 11.3651 19.444 11.3719C19.4191 11.3781 19.395 11.3907 19.3717 11.4097C19.3494 11.4269 19.3303 11.4508 19.3143 11.4812C19.2996 11.5113 19.29 11.5468 19.2854 11.5877C19.2818 11.6268 19.2861 11.6714 19.2985 11.7213L19.4201 12.2145C19.429 12.2506 19.4248 12.284 19.4074 12.3148C19.3896 12.3442 19.3627 12.3633 19.3266 12.3722ZM19.9969 12.0236C19.9782 12.0076 19.9658 11.9842 19.9597 11.9533C19.9535 11.9225 19.9651 11.8917 19.9943 11.8609C20.013 11.8416 20.0352 11.8302 20.0609 11.8268C20.0862 11.822 20.1136 11.8285 20.143 11.8463C20.1931 11.8766 20.2431 11.8974 20.293 11.9086C20.3429 11.9199 20.4011 11.9173 20.4677 11.9008C20.4882 11.8943 20.5104 11.8859 20.5343 11.8756C20.5579 11.8639 20.5767 11.8475 20.5906 11.8264C20.6056 11.8035 20.6086 11.7741 20.5997 11.738C20.5922 11.7075 20.5758 11.6858 20.5505 11.6729C20.5253 11.66 20.4938 11.6516 20.456 11.6477C20.4196 11.6434 20.3793 11.6408 20.3349 11.64C20.2888 11.6381 20.241 11.6352 20.1915 11.6312C20.1433 11.6269 20.0976 11.6176 20.0543 11.6033C20.0107 11.5875 19.9721 11.5625 19.9386 11.5281C19.9051 11.4937 19.8808 11.4459 19.8658 11.3849C19.8487 11.3155 19.8535 11.2518 19.8804 11.1936C19.9073 11.1355 19.948 11.0857 20.0025 11.0443C20.0584 11.0026 20.1204 10.9733 20.1883 10.9565C20.2313 10.9459 20.2778 10.9403 20.3277 10.9398C20.3773 10.9379 20.4265 10.9434 20.4753 10.9564C20.5238 10.9679 20.5672 10.9889 20.6056 11.0191C20.626 11.0362 20.6411 11.0589 20.6511 11.0874C20.6611 11.1158 20.6544 11.1454 20.6311 11.1762C20.6144 11.198 20.592 11.2116 20.5639 11.2171C20.5355 11.2211 20.5102 11.2171 20.488 11.2049C20.4569 11.1802 20.419 11.1638 20.3743 11.1557C20.3311 11.1472 20.2837 11.1493 20.2324 11.162C20.2116 11.1671 20.1894 11.1755 20.1658 11.1872C20.1432 11.1972 20.125 11.2128 20.1111 11.2339C20.0968 11.2536 20.0939 11.2808 20.1025 11.3154C20.1104 11.3474 20.1271 11.3704 20.1527 11.3847C20.178 11.3976 20.2095 11.406 20.2472 11.41C20.286 11.4122 20.3269 11.4139 20.3699 11.415C20.4143 11.4159 20.4598 11.4186 20.5066 11.4233C20.5534 11.4279 20.5979 11.4383 20.6401 11.4543C20.6823 11.4704 20.7195 11.4958 20.7516 11.5306C20.7834 11.5639 20.8068 11.6111 20.8219 11.6722C20.8393 11.7429 20.8334 11.8084 20.8041 11.8686C20.7748 11.9288 20.7322 11.9798 20.6763 12.0216C20.62 12.0619 20.5593 12.0902 20.4941 12.1063C20.4122 12.1264 20.327 12.1328 20.2383 12.1252C20.1492 12.1163 20.0688 12.0824 19.9969 12.0236Z" fill="#9DA0A5"/>
</g>
<path d="M15.6569 12.3785C15.6825 12.4826 15.6891 12.5839 15.6767 12.6827C15.6643 12.7814 15.6347 12.8733 15.588 12.9584C15.5424 13.0418 15.4806 13.1137 15.4028 13.1741C15.3264 13.2342 15.2368 13.2769 15.1342 13.3022C15.0315 13.3275 14.9324 13.3314 14.8368 13.3137C14.7412 13.2961 14.6531 13.2612 14.5726 13.209C14.493 13.155 14.4248 13.0872 14.3679 13.0056C14.3109 12.924 14.2696 12.8312 14.244 12.7271C14.2183 12.6231 14.2117 12.5217 14.2241 12.423C14.2365 12.3242 14.2656 12.2332 14.3112 12.1498C14.3579 12.0647 14.4195 11.9921 14.4959 11.9321C14.5723 11.872 14.6619 11.8293 14.7645 11.804C14.8672 11.7786 14.9663 11.7748 15.0619 11.7924C15.1589 11.8097 15.2472 11.8453 15.3267 11.8993C15.4073 11.9515 15.476 12.0184 15.533 12.1C15.5899 12.1816 15.6312 12.2745 15.6569 12.3785ZM15.3863 12.4453C15.3634 12.3523 15.324 12.273 15.268 12.2073C15.2118 12.1403 15.1455 12.0926 15.0694 12.0643C14.9932 12.036 14.9122 12.0325 14.8261 12.0537C14.7401 12.0749 14.67 12.1157 14.6158 12.1762C14.5615 12.2367 14.5249 12.309 14.5059 12.3932C14.4884 12.477 14.4912 12.566 14.5145 12.6604C14.5374 12.7533 14.5763 12.8335 14.6312 12.9009C14.6871 12.9666 14.7532 13.0135 14.8293 13.0419C14.9055 13.0702 14.9866 13.0737 15.0726 13.0525C15.1586 13.0313 15.2287 12.9904 15.283 12.9299C15.3372 12.8695 15.3738 12.7971 15.3928 12.713C15.4114 12.6274 15.4093 12.5382 15.3863 12.4453ZM16.2469 11.372C16.2774 11.3645 16.3083 11.3613 16.3395 11.3624C16.3707 11.3635 16.3984 11.3714 16.4226 11.3861C16.4464 11.3993 16.4621 11.4212 16.4697 11.4517C16.4782 11.4864 16.4747 11.5167 16.459 11.5426C16.4444 11.5669 16.4239 11.5822 16.3975 11.5887C16.385 11.5918 16.3656 11.5936 16.3393 11.5943C16.3126 11.5935 16.2875 11.596 16.2639 11.6018C16.2292 11.6104 16.204 11.6247 16.1884 11.6447C16.1741 11.6644 16.1661 11.6856 16.1643 11.7081C16.1621 11.7292 16.1629 11.7474 16.1667 11.7627L16.429 12.826C16.4379 12.862 16.4337 12.8955 16.4163 12.9263C16.3985 12.9557 16.3716 12.9748 16.3355 12.9837C16.2994 12.9926 16.2667 12.9882 16.2373 12.9704C16.2076 12.9513 16.1882 12.9236 16.1793 12.8876L15.9175 11.8263C15.8932 11.7279 15.9074 11.6361 15.9599 11.551C16.0125 11.4659 16.1082 11.4062 16.2469 11.372ZM16.3802 11.8137C16.4135 11.8055 16.444 11.8098 16.4716 11.8265C16.499 11.8418 16.5167 11.8661 16.5249 11.8994C16.5332 11.9327 16.5289 11.9632 16.5122 11.9909C16.4951 12.0172 16.4699 12.0344 16.4367 12.0426L15.8852 12.1787C15.8519 12.1869 15.8216 12.1833 15.7943 12.168C15.7666 12.1513 15.7487 12.1263 15.7405 12.093C15.7323 12.0597 15.7367 12.0299 15.7537 12.0036C15.7705 11.9759 15.7955 11.958 15.8288 11.9498L16.3802 11.8137ZM17.1562 11.1476C17.1868 11.1401 17.2176 11.1369 17.2488 11.1381C17.28 11.1392 17.3077 11.1471 17.3319 11.1617C17.3558 11.1749 17.3715 11.1968 17.379 11.2273C17.3876 11.262 17.384 11.2923 17.3683 11.3183C17.3537 11.3425 17.3332 11.3579 17.3068 11.3644C17.2944 11.3674 17.2749 11.3693 17.2486 11.3699C17.2219 11.3691 17.1968 11.3716 17.1732 11.3775C17.1385 11.386 17.1134 11.4003 17.0977 11.4204C17.0834 11.4401 17.0754 11.4612 17.0736 11.4837C17.0715 11.5048 17.0723 11.523 17.076 11.5383L17.3384 12.6016C17.3473 12.6377 17.343 12.6711 17.3256 12.7019C17.3078 12.7313 17.2809 12.7505 17.2448 12.7594C17.2088 12.7683 17.176 12.7638 17.1466 12.7461C17.1169 12.7269 17.0976 12.6993 17.0887 12.6632L16.8268 11.602C16.8025 11.5035 16.8167 11.4117 16.8693 11.3266C16.9219 11.2415 17.0175 11.1819 17.1562 11.1476ZM17.2895 11.5894C17.3228 11.5812 17.3533 11.5854 17.381 11.6021C17.4083 11.6175 17.4261 11.6418 17.4343 11.6751C17.4425 11.7084 17.4382 11.7389 17.4215 11.7665C17.4045 11.7928 17.3793 11.8101 17.346 11.8183L16.7946 11.9543C16.7613 11.9625 16.731 11.959 16.7036 11.9437C16.676 11.9269 16.658 11.9019 16.6498 11.8686C16.6416 11.8353 16.646 11.8055 16.6631 11.7793C16.6798 11.7516 16.7048 11.7336 16.7381 11.7254L17.2895 11.5894ZM18.4028 12.4957C18.2849 12.5248 18.1763 12.5259 18.0769 12.4989C17.9785 12.4702 17.8954 12.4193 17.8273 12.3463C17.7607 12.273 17.7142 12.1829 17.6878 12.0761C17.657 11.9513 17.6558 11.839 17.6842 11.7393C17.7136 11.6378 17.7634 11.5534 17.8336 11.486C17.9038 11.4187 17.9847 11.3737 18.0763 11.3511C18.147 11.3337 18.2172 11.3318 18.2868 11.3455C18.3578 11.3589 18.4239 11.3853 18.4851 11.4246C18.546 11.4626 18.5985 11.5114 18.6427 11.5712C18.6883 11.6306 18.7203 11.6977 18.7388 11.7727C18.7456 11.8063 18.7391 11.8366 18.7193 11.8636C18.6994 11.8905 18.6728 11.9081 18.6396 11.9163L17.8447 12.1125L17.7309 11.9198L18.4946 11.7314L18.4591 11.7843L18.4452 11.7281C18.4325 11.6885 18.409 11.6561 18.3748 11.6307C18.342 11.6049 18.3039 11.5878 18.2606 11.5794C18.2184 11.5692 18.1757 11.5694 18.1327 11.58C18.0911 11.5903 18.0536 11.6054 18.0203 11.6254C17.987 11.6454 17.9604 11.6718 17.9405 11.7047C17.9207 11.7376 17.9086 11.7781 17.9043 11.8262C17.9 11.8744 17.9062 11.9324 17.923 12.0004C17.9415 12.0753 17.9725 12.1354 18.016 12.1806C18.0606 12.224 18.1106 12.2536 18.166 12.2694C18.2224 12.2834 18.2784 12.2836 18.3339 12.2699C18.3852 12.2572 18.4251 12.243 18.4535 12.2271C18.482 12.2113 18.5039 12.1956 18.5192 12.18C18.5355 12.1628 18.5503 12.1481 18.5635 12.136C18.5854 12.1173 18.6074 12.1053 18.6296 12.0998C18.6602 12.0923 18.6877 12.0965 18.7122 12.1125C18.7382 12.1282 18.7546 12.1499 18.7614 12.1777C18.7707 12.2151 18.7596 12.2539 18.7283 12.294C18.6998 12.3334 18.6558 12.373 18.5964 12.4126C18.5367 12.4509 18.4722 12.4786 18.4028 12.4957ZM19.2255 12.2707C19.1895 12.2796 19.1567 12.2751 19.1273 12.2574C19.0976 12.2382 19.0783 12.2106 19.0694 12.1745L18.8573 11.3151C18.8484 11.2791 18.8529 11.2463 18.8706 11.2169C18.888 11.1862 18.9148 11.1663 18.9509 11.1574C18.9869 11.1485 19.0198 11.1536 19.0496 11.1728C19.079 11.1906 19.0981 11.2175 19.107 11.2535L19.1553 11.4491L19.1063 11.3133C19.1134 11.2763 19.1256 11.2423 19.143 11.2115C19.1615 11.179 19.1839 11.1507 19.2103 11.1265C19.2364 11.1009 19.2658 11.0797 19.2984 11.0628C19.331 11.046 19.3647 11.0332 19.3994 11.0247C19.441 11.0144 19.4786 11.0176 19.5121 11.0344C19.5471 11.0508 19.5685 11.0749 19.5764 11.1068C19.5877 11.1526 19.5841 11.1888 19.5656 11.2154C19.5468 11.2407 19.5236 11.2567 19.4958 11.2636C19.4695 11.2701 19.444 11.2712 19.4194 11.267C19.3962 11.2624 19.3707 11.2635 19.343 11.2704C19.318 11.2765 19.2939 11.2891 19.2706 11.3081C19.2484 11.3254 19.2292 11.3492 19.2132 11.3797C19.1986 11.4098 19.1889 11.4453 19.1843 11.4861C19.1807 11.5253 19.1851 11.5698 19.1974 11.6198L19.3191 12.1129C19.328 12.149 19.3237 12.1824 19.3063 12.2132C19.2885 12.2426 19.2616 12.2618 19.2255 12.2707ZM19.8958 11.9221C19.8771 11.9061 19.8647 11.8826 19.8586 11.8518C19.8525 11.8209 19.864 11.7901 19.8932 11.7594C19.912 11.74 19.9342 11.7286 19.9598 11.7253C19.9851 11.7205 20.0125 11.727 20.0419 11.7447C20.0921 11.775 20.1421 11.7958 20.1919 11.8071C20.2418 11.8183 20.3 11.8157 20.3666 11.7993C20.3871 11.7928 20.4093 11.7843 20.4332 11.774C20.4568 11.7623 20.4756 11.7459 20.4895 11.7248C20.5045 11.702 20.5075 11.6725 20.4986 11.6365C20.4911 11.6059 20.4747 11.5842 20.4495 11.5713C20.4242 11.5584 20.3927 11.55 20.3549 11.5461C20.3185 11.5418 20.2782 11.5393 20.2338 11.5384C20.1877 11.5366 20.1399 11.5336 20.0904 11.5297C20.0422 11.5254 19.9965 11.5161 19.9532 11.5017C19.9096 11.486 19.8711 11.4609 19.8376 11.4265C19.804 11.3921 19.7798 11.3444 19.7647 11.2833C19.7476 11.214 19.7525 11.1502 19.7793 11.0921C19.8062 11.0339 19.8469 10.9842 19.9014 10.9427C19.9573 10.901 20.0193 10.8717 20.0873 10.855C20.1303 10.8443 20.1767 10.8388 20.2266 10.8382C20.2762 10.8363 20.3254 10.8418 20.3742 10.8548C20.4227 10.8664 20.4661 10.8873 20.5045 10.9176C20.5249 10.9346 20.5401 10.9574 20.55 10.9858C20.56 11.0143 20.5533 11.0439 20.53 11.0746C20.5133 11.0964 20.4909 11.11 20.4628 11.1155C20.4344 11.1196 20.4091 11.1155 20.387 11.1033C20.3558 11.0786 20.3179 11.0622 20.2733 11.0541C20.23 11.0456 20.1827 11.0478 20.1313 11.0604C20.1105 11.0656 20.0883 11.074 20.0647 11.0857C20.0422 11.0957 20.0239 11.1112 20.01 11.1323C19.9957 11.152 19.9929 11.1792 20.0014 11.2139C20.0093 11.2458 20.026 11.2689 20.0516 11.2832C20.0769 11.2961 20.1084 11.3045 20.1462 11.3084C20.185 11.3106 20.2259 11.3123 20.2688 11.3135C20.3132 11.3143 20.3587 11.317 20.4055 11.3217C20.4523 11.3263 20.4968 11.3367 20.539 11.3528C20.5812 11.3688 20.6184 11.3943 20.6505 11.429C20.6823 11.4624 20.7057 11.5096 20.7208 11.5706C20.7383 11.6414 20.7323 11.7068 20.703 11.7671C20.6737 11.8273 20.6311 11.8782 20.5752 11.92C20.5189 11.9604 20.4582 11.9886 20.393 12.0047C20.3112 12.0249 20.2259 12.0312 20.1372 12.0237C20.0482 12.0147 19.9677 11.9809 19.8958 11.9221Z" fill="white"/>
<defs>
<linearGradient id="paint0_linear_2939_514" x1="3530.08" y1="-791.607" x2="3718.78" y2="-882.605" gradientUnits="userSpaceOnUse">
<stop stop-color="#0066AF"/>
<stop offset="1" stop-color="#0E2240"/>
</linearGradient>
<linearGradient id="paint1_linear_2939_514" x1="8897.12" y1="-1060.08" x2="10572.1" y2="-1522.68" gradientUnits="userSpaceOnUse">
<stop stop-color="#007BBF"/>
<stop offset="1" stop-color="#054696"/>
</linearGradient>
<linearGradient id="paint2_linear_2939_514" x1="1697.44" y1="-23780.6" x2="1584.5" y2="-30250.9" gradientUnits="userSpaceOnUse">
<stop stop-color="#FF7133"/>
<stop offset="1" stop-color="#E50B14"/>
</linearGradient>
<linearGradient id="paint3_linear_2939_514" x1="587.684" y1="-13660.4" x2="407.925" y2="-17202.8" gradientUnits="userSpaceOnUse">
<stop stop-color="#E50B14"/>
<stop offset="1" stop-color="#FF7133"/>
</linearGradient>
<linearGradient id="paint4_linear_2939_514" x1="1979.45" y1="-1092.11" x2="2153.93" y2="-1333.4" gradientUnits="userSpaceOnUse">
<stop stop-color="#DB6418"/>
<stop offset="1" stop-color="#DD8014"/>
</linearGradient>
<linearGradient id="paint5_linear_2939_514" x1="2420.82" y1="-969.788" x2="2637.2" y2="-1206.48" gradientUnits="userSpaceOnUse">
<stop stop-color="#E07314"/>
<stop offset="1" stop-color="#E1930C"/>
</linearGradient>
<linearGradient id="paint6_linear_2939_514" x1="1982.14" y1="-1133.67" x2="2161.87" y2="-1382.94" gradientUnits="userSpaceOnUse">
<stop stop-color="#F6A100"/>
<stop offset="1" stop-color="#FFCB00"/>
</linearGradient>
<linearGradient id="paint7_linear_2939_514" x1="-1442.43" y1="752.773" x2="-1515.74" y2="885.319" gradientUnits="userSpaceOnUse">
<stop stop-color="#F9B000"/>
<stop offset="1" stop-color="white"/>
</linearGradient>
<linearGradient id="paint8_linear_2939_514" x1="1426.77" y1="-918.599" x2="1481.06" y2="-1062.53" gradientUnits="userSpaceOnUse">
<stop stop-color="#F9B000"/>
<stop offset="1" stop-color="white"/>
</linearGradient>
<linearGradient id="paint9_linear_2939_514" x1="2394.8" y1="-1366.46" x2="2600.31" y2="-1651.49" gradientUnits="userSpaceOnUse">
<stop stop-color="#FCC607"/>
<stop offset="1" stop-color="#D9A60B"/>
</linearGradient>
<linearGradient id="paint10_linear_2939_514" x1="1843.16" y1="-1044.64" x2="1995.56" y2="-1256" gradientUnits="userSpaceOnUse">
<stop stop-color="#FFCB00"/>
<stop offset="1" stop-color="#F6A100"/>
</linearGradient>
<linearGradient id="paint11_linear_2939_514" x1="1522.21" y1="-1345.94" x2="1597.75" y2="-1450.7" gradientUnits="userSpaceOnUse">
<stop stop-color="#FCC607"/>
<stop offset="1" stop-color="#D9A60B"/>
</linearGradient>
<linearGradient id="paint12_linear_2939_514" x1="-1413.03" y1="1371.96" x2="-1478.03" y2="1465.48" gradientUnits="userSpaceOnUse">
<stop stop-color="#FFCB00"/>
<stop offset="1" stop-color="#F6A100"/>
</linearGradient>
<linearGradient id="paint13_linear_2939_514" x1="1522.87" y1="-1364.49" x2="1588.05" y2="-1453.98" gradientUnits="userSpaceOnUse">
<stop stop-color="#DF8F10"/>
<stop offset="1" stop-color="#C5751C"/>
</linearGradient>
<linearGradient id="paint14_linear_2939_514" x1="43.2742" y1="-2016.6" x2="-14.3338" y2="-2299.93" gradientUnits="userSpaceOnUse">
<stop stop-color="#DB6418"/>
<stop offset="1" stop-color="#DD8014"/>
</linearGradient>
<linearGradient id="paint15_linear_2939_514" x1="335.027" y1="-2303.5" x2="307.69" y2="-2620.45" gradientUnits="userSpaceOnUse">
<stop stop-color="#E07314"/>
<stop offset="1" stop-color="#E1930C"/>
</linearGradient>
<linearGradient id="paint16_linear_2939_514" x1="11.5071" y1="-2020.65" x2="-46.6946" y2="-2304.96" gradientUnits="userSpaceOnUse">
<stop stop-color="#F6A100"/>
<stop offset="1" stop-color="#FFCB00"/>
</linearGradient>
<linearGradient id="paint17_linear_2939_514" x1="26.5183" y1="1357.81" x2="66.7618" y2="1478.65" gradientUnits="userSpaceOnUse">
<stop stop-color="#F9B000"/>
<stop offset="1" stop-color="white"/>
</linearGradient>
<linearGradient id="paint18_linear_2939_514" x1="-192.485" y1="-1378.2" x2="-247.997" y2="-1488.59" gradientUnits="userSpaceOnUse">
<stop stop-color="#F9B000"/>
<stop offset="1" stop-color="white"/>
</linearGradient>
<linearGradient id="paint19_linear_2939_514" x1="18.3547" y1="-2440.34" x2="-48.1838" y2="-2765.36" gradientUnits="userSpaceOnUse">
<stop stop-color="#FCC607"/>
<stop offset="1" stop-color="#D9A60B"/>
</linearGradient>
<linearGradient id="paint20_linear_2939_514" x1="19.4503" y1="-1872.68" x2="-29.9158" y2="-2113.82" gradientUnits="userSpaceOnUse">
<stop stop-color="#FFCB00"/>
<stop offset="1" stop-color="#F6A100"/>
</linearGradient>
<linearGradient id="paint21_linear_2939_514" x1="-180.564" y1="-1895.64" x2="-201.286" y2="-1996.86" gradientUnits="userSpaceOnUse">
<stop stop-color="#FCC607"/>
<stop offset="1" stop-color="#D9A60B"/>
</linearGradient>
<linearGradient id="paint22_linear_2939_514" x1="240.537" y1="1845.64" x2="260.615" y2="1935.74" gradientUnits="userSpaceOnUse">
<stop stop-color="#FFCB00"/>
<stop offset="1" stop-color="#F6A100"/>
</linearGradient>
<linearGradient id="paint23_linear_2939_514" x1="-181.696" y1="-1912.85" x2="-201.412" y2="-2011.52" gradientUnits="userSpaceOnUse">
<stop stop-color="#DF8F10"/>
<stop offset="1" stop-color="#C5751C"/>
</linearGradient>
<linearGradient id="paint24_linear_2939_514" x1="1819.33" y1="-1291.55" x2="1966.21" y2="-1493.25" gradientUnits="userSpaceOnUse">
<stop stop-color="#DF8F10"/>
<stop offset="1" stop-color="#C5751C"/>
</linearGradient>
<linearGradient id="paint25_linear_2939_514" x1="1072.34" y1="-1756.71" x2="1137.29" y2="-2076.15" gradientUnits="userSpaceOnUse">
<stop stop-color="#DB6418"/>
<stop offset="1" stop-color="#DD8014"/>
</linearGradient>
<linearGradient id="paint26_linear_2939_514" x1="1021.52" y1="-2148.68" x2="1052.32" y2="-2505.8" gradientUnits="userSpaceOnUse">
<stop stop-color="#E07314"/>
<stop offset="1" stop-color="#E1930C"/>
</linearGradient>
<linearGradient id="paint27_linear_2939_514" x1="1045.53" y1="-1766.62" x2="1111.09" y2="-2086.87" gradientUnits="userSpaceOnUse">
<stop stop-color="#F6A100"/>
<stop offset="1" stop-color="#FFCB00"/>
</linearGradient>
<linearGradient id="paint28_linear_2939_514" x1="-1016.58" y1="1018.77" x2="-1061.89" y2="1154.82" gradientUnits="userSpaceOnUse">
<stop stop-color="#F9B000"/>
<stop offset="1" stop-color="white"/>
</linearGradient>
<linearGradient id="paint29_linear_2939_514" x1="1195.04" y1="-831.469" x2="1257.61" y2="-955.88" gradientUnits="userSpaceOnUse">
<stop stop-color="#F9B000"/>
<stop offset="1" stop-color="white"/>
</linearGradient>
<linearGradient id="paint30_linear_2939_514" x1="1266.31" y1="-2132.67" x2="1341.27" y2="-2498.86" gradientUnits="userSpaceOnUse">
<stop stop-color="#FCC607"/>
<stop offset="1" stop-color="#D9A60B"/>
</linearGradient>
<linearGradient id="paint31_linear_2939_514" x1="977.352" y1="-1635.44" x2="1032.97" y2="-1907.11" gradientUnits="userSpaceOnUse">
<stop stop-color="#FFCB00"/>
<stop offset="1" stop-color="#F6A100"/>
</linearGradient>
<linearGradient id="paint32_linear_2939_514" x1="678.532" y1="-1724.88" x2="701.415" y2="-1831.2" gradientUnits="userSpaceOnUse">
<stop stop-color="#FCC607"/>
<stop offset="1" stop-color="#D9A60B"/>
</linearGradient>
<linearGradient id="paint33_linear_2939_514" x1="-596.921" y1="1699.25" x2="-615.445" y2="1794.18" gradientUnits="userSpaceOnUse">
<stop stop-color="#FFCB00"/>
<stop offset="1" stop-color="#F6A100"/>
</linearGradient>
<linearGradient id="paint34_linear_2939_514" x1="682.275" y1="-1741.17" x2="703.889" y2="-1839.09" gradientUnits="userSpaceOnUse">
<stop stop-color="#DF8F10"/>
<stop offset="1" stop-color="#C5751C"/>
</linearGradient>
<linearGradient id="paint35_linear_2939_514" x1="16429" y1="-5670.91" x2="22600.3" y2="-8254.83" gradientUnits="userSpaceOnUse">
<stop stop-color="#23B8EB"/>
<stop offset="1" stop-color="#2C75B9"/>
</linearGradient>
</defs>
</svg>
