<svg width="28" height="28" viewBox="0 0 28 28" fill="none" xmlns="http://www.w3.org/2000/svg">
<path d="M27.4366 14.0002C27.4366 15.8251 26.0316 17.3576 25.3736 18.9443C24.6915 20.5893 25.0828 22.6037 23.8432 23.8434C22.6035 25.083 20.5891 25.1424 18.9441 25.8246C17.3573 26.4826 15.8248 27.9439 14 27.9439C13.7115 27.9439 13.4302 27.9651 13.1549 27.9033C11.6892 27.5746 10.3918 26.4911 9.05592 25.9372C7.41098 25.2551 5.34018 25.1394 4.10052 23.8997C2.86087 22.6601 2.74515 20.5893 2.06303 18.9443C1.40503 17.3576 0 15.8251 0 14.0002C0 12.1755 1.40503 10.6429 2.06303 9.05616C2.74515 7.41121 2.86087 5.34042 4.10052 4.10076C5.34018 2.86111 7.41098 2.74539 9.05592 2.06327C10.3918 1.50934 11.6892 0.425926 13.1549 0.0971448C13.4302 0.0353479 13.7115 0.112895 14 0.112895C15.8248 0.112895 17.3573 1.57425 18.9441 2.23225C20.589 2.91437 22.0964 3.42444 23.3361 4.6641C24.5757 5.90375 24.6915 7.97455 25.3736 9.6195C26.0316 11.2063 27.4366 12.1755 27.4366 14.0002Z" fill="#2AD587"/>
<path d="M25.9368 9.05592C25.2547 7.41098 25.139 5.34018 23.8993 4.10052C22.6597 2.86087 20.5889 2.74515 18.944 2.06303C17.3572 1.40503 15.8246 0 13.9999 0C13.7113 0 13.4301 0.0353281 13.1548 0.0970703C14.6205 0.425852 15.9179 1.5091 17.2538 2.06303C18.8988 2.74515 20.9696 2.86087 22.2092 4.10052C23.4489 5.34018 23.5646 7.41098 24.2467 9.05592C24.9047 10.6427 26.3098 12.1752 26.3098 14C26.3098 15.8248 24.9047 17.3573 24.2467 18.9441C23.5646 20.5891 23.4489 22.6599 22.2092 23.8995C20.9696 25.1392 18.8988 25.2549 17.2538 25.937C15.9179 26.491 14.6205 27.5742 13.1548 27.903C13.4301 27.9647 13.7113 28 13.9999 28C15.8246 28 17.3571 26.595 18.944 25.937C20.5889 25.2549 22.6597 25.1391 23.8993 23.8995C25.139 22.6598 25.2547 20.589 25.9368 18.9441C26.5948 17.3573 27.9999 15.8248 27.9999 14C27.9999 12.1752 26.5948 10.6427 25.9368 9.05592Z" fill="#1E955E"/>
<path d="M11.2999 21.4191C11.1728 21.4191 11.0435 21.3944 10.9188 21.3421C10.4167 21.1314 10.1805 20.5535 10.3912 20.0515L15.7907 7.18573C16.0013 6.6837 16.5788 6.44734 17.0814 6.65816C17.5834 6.86888 17.8196 7.44676 17.6089 7.94879L12.2095 20.8146C12.0511 21.192 11.6852 21.4191 11.2999 21.4191ZM9.1427 14.0976C7.28354 14.0976 5.771 12.4117 5.771 10.3393C5.771 8.26702 7.28354 6.58105 9.1427 6.58105C11.0019 6.58105 12.5144 8.26702 12.5144 10.3393C12.5144 12.4117 11.0019 14.0976 9.1427 14.0976ZM9.1427 8.55287C8.37079 8.55287 7.74281 9.35426 7.74281 10.3393C7.74281 11.3244 8.37079 12.1258 9.1427 12.1258C9.91461 12.1258 10.5426 11.3244 10.5426 10.3393C10.5426 9.35426 9.91461 8.55287 9.1427 8.55287ZM18.8575 21.4191C16.9983 21.4191 15.4858 19.7332 15.4858 17.6609C15.4858 15.5885 16.9983 13.9026 18.8575 13.9026C20.7167 13.9026 22.2292 15.5885 22.2292 17.6609C22.2292 19.7332 20.7167 21.4191 18.8575 21.4191ZM18.8575 15.8744C18.0856 15.8744 17.4576 16.6758 17.4576 17.6609C17.4576 18.6459 18.0856 19.4473 18.8575 19.4473C19.6294 19.4473 20.2573 18.6459 20.2573 17.6609C20.2573 16.6758 19.6294 15.8744 18.8575 15.8744Z" fill="#F9F7F8"/>
<path d="M27.4364 3.76754C27.4364 5.8484 26.3129 7.47891 24.2321 7.47891C23.9414 7.47891 23.6585 7.50232 23.3867 7.44003C21.7129 7.05634 20.4644 5.55774 20.4644 3.76749C20.4644 1.97724 21.7129 0.478637 23.3867 0.0949498C23.6585 0.0326607 23.9414 0.056067 24.2321 0.056067C26.3129 0.0561217 27.4364 1.68668 27.4364 3.76754Z" fill="#FFCB39"/>
<path d="M24.2323 0C23.9479 0.000176883 23.6644 0.0325019 23.3872 0.0963594C25.061 0.480102 26.3099 1.97761 26.3099 3.76775C26.3099 5.55789 25.061 7.0554 23.3872 7.43914C23.6644 7.503 23.9479 7.53532 24.2323 7.5355C26.3132 7.5355 28 5.84861 28 3.76775C28 1.68689 26.3132 0 24.2323 0Z" fill="#FFDA72"/>
<path d="M25.7112 4.13349L25.0773 3.76757L25.7112 3.40166C25.7592 3.37392 25.8013 3.33698 25.8351 3.29296C25.8689 3.24894 25.8937 3.1987 25.908 3.14511C25.9224 3.09151 25.9261 3.03561 25.9188 2.9806C25.9116 2.92559 25.8936 2.87254 25.8658 2.82449C25.8381 2.77644 25.8011 2.73432 25.7571 2.70054C25.7131 2.66676 25.6629 2.64198 25.6093 2.62762C25.5557 2.61326 25.4998 2.6096 25.4448 2.61684C25.3898 2.62408 25.3367 2.64209 25.2887 2.66983L24.6548 3.03575V2.30386C24.6548 2.19181 24.6103 2.08434 24.5311 2.0051C24.4518 1.92586 24.3444 1.88135 24.2323 1.88135C24.1202 1.88135 24.0128 1.92586 23.9335 2.0051C23.8543 2.08434 23.8098 2.19181 23.8098 2.30386V3.03569L23.176 2.66978C23.1279 2.64202 23.0749 2.624 23.0199 2.61675C22.9648 2.6095 22.9089 2.61316 22.8553 2.62752C22.8017 2.64189 22.7515 2.66667 22.7075 2.70045C22.6635 2.73424 22.6265 2.77637 22.5988 2.82443C22.571 2.87249 22.553 2.92553 22.5458 2.98054C22.5386 3.03556 22.5422 3.09145 22.5566 3.14505C22.5709 3.19865 22.5957 3.24889 22.6295 3.29291C22.6633 3.33693 22.7054 3.37386 22.7534 3.40161L23.3873 3.76752L22.7534 4.13343C22.6728 4.17993 22.6098 4.25175 22.5742 4.33774C22.5385 4.42374 22.5323 4.51908 22.5564 4.60898C22.5806 4.69888 22.6337 4.7783 22.7076 4.83489C22.7815 4.89149 22.872 4.9221 22.9651 4.92197C23.0368 4.92197 23.1095 4.90371 23.176 4.86526L23.8098 4.49935V5.23118C23.8098 5.34323 23.8543 5.4507 23.9335 5.52994C24.0128 5.60918 24.1202 5.65369 24.2323 5.65369C24.3444 5.65369 24.4518 5.60918 24.5311 5.52994C24.6103 5.4507 24.6548 5.34323 24.6548 5.23118V4.4994L25.2887 4.86532C25.3367 4.89309 25.3897 4.91112 25.4448 4.91838C25.4998 4.92563 25.5557 4.92198 25.6093 4.90761C25.6629 4.89325 25.7131 4.86846 25.7572 4.83467C25.8012 4.80087 25.8381 4.75873 25.8658 4.71066C25.8936 4.66261 25.9116 4.60956 25.9188 4.55455C25.9261 4.49954 25.9224 4.44363 25.9081 4.39004C25.8937 4.33644 25.8689 4.2862 25.8351 4.24218C25.8013 4.19816 25.7592 4.16123 25.7112 4.13349Z" fill="#F9F7F8"/>
</svg>
