<svg width="40" height="40" viewBox="0 0 40 40" fill="none" xmlns="http://www.w3.org/2000/svg">
<path d="M8 0.5H32C33.8996 0.5 35.2741 0.500708 36.3223 0.641602C37.3561 0.780594 37.9972 1.04799 38.4746 1.52539C38.952 2.00279 39.2194 2.64392 39.3584 3.67773C39.4993 4.7259 39.5 6.1004 39.5 8V32C39.5 33.8996 39.4993 35.2741 39.3584 36.3223C39.2194 37.3561 38.952 37.9972 38.4746 38.4746C37.9972 38.952 37.3561 39.2194 36.3223 39.3584C35.2741 39.4993 33.8996 39.5 32 39.5H8C6.1004 39.5 4.7259 39.4993 3.67773 39.3584C2.64392 39.2194 2.00279 38.952 1.52539 38.4746C1.04799 37.9972 0.780594 37.3561 0.641602 36.3223C0.500708 35.2741 0.5 33.8996 0.5 32V8C0.5 6.1004 0.500708 4.7259 0.641602 3.67773C0.780594 2.64392 1.04799 2.00279 1.52539 1.52539C2.00279 1.04799 2.64392 0.780594 3.67773 0.641602C4.7259 0.500708 6.1004 0.5 8 0.5Z" fill="#FFE5E6"/>
<path d="M8 0.5H32C33.8996 0.5 35.2741 0.500708 36.3223 0.641602C37.3561 0.780594 37.9972 1.04799 38.4746 1.52539C38.952 2.00279 39.2194 2.64392 39.3584 3.67773C39.4993 4.7259 39.5 6.1004 39.5 8V32C39.5 33.8996 39.4993 35.2741 39.3584 36.3223C39.2194 37.3561 38.952 37.9972 38.4746 38.4746C37.9972 38.952 37.3561 39.2194 36.3223 39.3584C35.2741 39.4993 33.8996 39.5 32 39.5H8C6.1004 39.5 4.7259 39.4993 3.67773 39.3584C2.64392 39.2194 2.00279 38.952 1.52539 38.4746C1.04799 37.9972 0.780594 37.3561 0.641602 36.3223C0.500708 35.2741 0.5 33.8996 0.5 32V8C0.5 6.1004 0.500708 4.7259 0.641602 3.67773C0.780594 2.64392 1.04799 2.00279 1.52539 1.52539C2.00279 1.04799 2.64392 0.780594 3.67773 0.641602C4.7259 0.500708 6.1004 0.5 8 0.5Z" stroke="#FF3840"/>
<path d="M28.25 13.25H11.75" stroke="#FF3840" stroke-width="2" stroke-linecap="round" stroke-linejoin="round"/>
<path d="M17.75 17.75V23.75" stroke="#FF3840" stroke-width="2" stroke-linecap="round" stroke-linejoin="round"/>
<path d="M22.25 17.75V23.75" stroke="#FF3840" stroke-width="2" stroke-linecap="round" stroke-linejoin="round"/>
<path d="M26.75 13.25V27.5C26.75 27.6989 26.671 27.8897 26.5303 28.0303C26.3897 28.171 26.1989 28.25 26 28.25H14C13.8011 28.25 13.6103 28.171 13.4697 28.0303C13.329 27.8897 13.25 27.6989 13.25 27.5V13.25" stroke="#FF3840" stroke-width="2" stroke-linecap="round" stroke-linejoin="round"/>
<path d="M23.75 13.25V11.75C23.75 11.3522 23.592 10.9706 23.3107 10.6893C23.0294 10.408 22.6478 10.25 22.25 10.25H17.75C17.3522 10.25 16.9706 10.408 16.6893 10.6893C16.408 10.9706 16.25 11.3522 16.25 11.75V13.25" stroke="#FF3840" stroke-width="2" stroke-linecap="round" stroke-linejoin="round"/>
</svg>
