<svg width="40" height="40" viewBox="0 0 40 40" fill="none" xmlns="http://www.w3.org/2000/svg">
<path d="M8 0.5H32C33.8996 0.5 35.2741 0.500708 36.3223 0.641602C37.3561 0.780594 37.9972 1.04799 38.4746 1.52539C38.952 2.00279 39.2194 2.64392 39.3584 3.67773C39.4993 4.7259 39.5 6.1004 39.5 8V32C39.5 33.8996 39.4993 35.2741 39.3584 36.3223C39.2194 37.3561 38.952 37.9972 38.4746 38.4746C37.9972 38.952 37.3561 39.2194 36.3223 39.3584C35.2741 39.4993 33.8996 39.5 32 39.5H8C6.1004 39.5 4.7259 39.4993 3.67773 39.3584C2.64392 39.2194 2.00279 38.952 1.52539 38.4746C1.04799 37.9972 0.780594 37.3561 0.641602 36.3223C0.500708 35.2741 0.5 33.8996 0.5 32V8C0.5 6.1004 0.500708 4.7259 0.641602 3.67773C0.780594 2.64392 1.04799 2.00279 1.52539 1.52539C2.00279 1.04799 2.64392 0.780594 3.67773 0.641602C4.7259 0.500708 6.1004 0.5 8 0.5Z" fill="#E5F9FF"/>
<path d="M8 0.5H32C33.8996 0.5 35.2741 0.500708 36.3223 0.641602C37.3561 0.780594 37.9972 1.04799 38.4746 1.52539C38.952 2.00279 39.2194 2.64392 39.3584 3.67773C39.4993 4.7259 39.5 6.1004 39.5 8V32C39.5 33.8996 39.4993 35.2741 39.3584 36.3223C39.2194 37.3561 38.952 37.9972 38.4746 38.4746C37.9972 38.952 37.3561 39.2194 36.3223 39.3584C35.2741 39.4993 33.8996 39.5 32 39.5H8C6.1004 39.5 4.7259 39.4993 3.67773 39.3584C2.64392 39.2194 2.00279 38.952 1.52539 38.4746C1.04799 37.9972 0.780594 37.3561 0.641602 36.3223C0.500708 35.2741 0.5 33.8996 0.5 32V8C0.5 6.1004 0.500708 4.7259 0.641602 3.67773C0.780594 2.64392 1.04799 2.00279 1.52539 1.52539C2.00279 1.04799 2.64392 0.780594 3.67773 0.641602C4.7259 0.500708 6.1004 0.5 8 0.5Z" stroke="#72DEFF"/>
<path d="M16.6897 28.2501H12.5C12.3011 28.2501 12.1103 28.1711 11.9697 28.0305C11.829 27.8898 11.75 27.699 11.75 27.5001V23.3104C11.7501 23.1118 11.829 22.9213 11.9694 22.7807L23.5306 11.2195C23.6713 11.079 23.862 11 24.0608 11C24.2596 11 24.4503 11.079 24.5909 11.2195L28.7806 15.4064C28.9212 15.547 29.0001 15.7377 29.0001 15.9365C29.0001 16.1354 28.9212 16.326 28.7806 16.4667L17.2194 28.0307C17.0788 28.1711 16.8883 28.25 16.6897 28.2501Z" stroke="#38D0FF" stroke-width="2" stroke-linecap="round" stroke-linejoin="round"/>
<path d="M20.75 14L26 19.25" stroke="#38D0FF" stroke-width="2" stroke-linecap="round" stroke-linejoin="round"/>
</svg>
