<svg width="14" height="15" viewBox="0 0 14 15" fill="none" xmlns="http://www.w3.org/2000/svg">
<path d="M3.5 6.49992C4.79303 6.49992 7.76349 7.71235 8.34167 8.48325C8.55017 8.76126 8.59348 9.08631 8.50409 9.40506L9.58304 9.20074L10.5764 9.02252L10.8676 8.97318L11.3574 8.89622L11.6425 8.85807L11.7929 8.84224C11.8602 8.83628 11.9153 8.83325 11.9583 8.83325C13.2507 8.83325 13.2507 10.1158 12.3708 10.9957C11.0653 12.3012 9.18166 13.4999 7.58333 13.4999C6.82857 13.4999 6.20927 13.3767 5.35667 13.1038L4.65402 12.8726L4.4615 12.811L4.2228 12.7387L4.09081 12.7024L3.92283 12.6634L3.8246 12.6461L3.73238 12.6347L3.64188 12.6281L3.54883 12.6252L0.583333 12.6249C0.261167 12.6249 0 12.3638 0 12.0416C0 11.7424 0.22519 11.4959 0.515304 11.4622L0.583333 11.4583L3.57192 11.4586L3.7009 11.4617L3.82253 11.4687L3.94151 11.4808L4.0625 11.4988L4.19021 11.5238L4.3293 11.5568L4.48448 11.5987L4.66042 11.6507L4.97352 11.7496L5.50738 11.9257C6.36697 12.2122 6.91836 12.3333 7.58333 12.3333C8.77668 12.3333 10.4451 11.2715 11.5459 10.1708C11.5863 10.1304 11.6219 10.0911 11.6528 10.0539L11.6719 10.0291L11.297 10.0856L10.6258 10.1986L9.36792 10.4274L8.85268 10.5249L7.1144 10.8636L7.1019 10.8661C7.08537 10.869 7.06877 10.8712 7.05215 10.8727L7.1144 10.8636C7.08569 10.8693 7.05668 10.8729 7.02763 10.8743C7.01358 10.875 6.99956 10.8751 6.98557 10.8748C6.97609 10.8745 6.96638 10.874 6.95669 10.8733C6.93558 10.8717 6.91481 10.869 6.89425 10.8653C6.89235 10.8649 6.8906 10.8646 6.88886 10.8642C6.86435 10.8595 6.84052 10.8532 6.81714 10.8455L5.06553 10.2617C4.7599 10.1598 4.59472 9.82942 4.6966 9.52379C4.7912 9.23998 5.0828 9.07729 5.36869 9.13706L5.43447 9.15485L6.89475 9.64235C6.95407 9.59363 7.01727 9.53846 7.07984 9.47887C7.21403 9.35107 7.31177 9.23105 7.35794 9.1434L7.36225 9.1325L7.32305 9.09546C7.12895 8.92778 6.71925 8.70533 6.22923 8.48599L5.92666 8.35522C5.77163 8.29048 5.61181 8.22707 5.45085 8.16655L5.12848 8.04981C4.53865 7.84454 3.96618 7.69208 3.5911 7.66948L3.5 7.66659C2.70326 7.66659 1.72333 8.22654 0.995812 8.95406C0.768006 9.18187 0.39866 9.18187 0.170854 8.95406C-0.0569515 8.72626 -0.0569515 8.35691 0.170854 8.12911C1.09611 7.20385 2.32799 6.49992 3.5 6.49992ZM11.6667 1.83325C12.2817 1.83325 12.7856 2.30918 12.8301 2.91285L12.8333 2.99992V7.66659C12.8333 7.98875 12.5722 8.24992 12.25 8.24992C11.9508 8.24992 11.7043 8.02473 11.6706 7.73461L11.6667 7.66659V2.99992H10.2083V5.04159C10.2083 5.34074 9.98314 5.5873 9.69303 5.62099L9.625 5.62492H6.70833C6.38617 5.62492 6.125 5.36375 6.125 5.04159V2.99992H4.66667V5.33325C4.66667 5.65542 4.4055 5.91659 4.08333 5.91659C3.78418 5.91659 3.53762 5.69139 3.50392 5.40128L3.5 5.33325V2.99992C3.5 2.38487 3.97592 1.88099 4.5796 1.83645L4.66667 1.83325H11.6667Z" fill="#3F8826"/>
</svg>
