<svg width="25" height="24" viewBox="0 0 25 24" fill="none" xmlns="http://www.w3.org/2000/svg">
<path opacity="0.2" d="M21 10.9398V20.2501H15V14.2501H10.5V20.2501H4.5V10.9398L12.2194 3.21948C12.289 3.14974 12.3717 3.09443 12.4628 3.05668C12.5538 3.01894 12.6514 2.99951 12.75 2.99951C12.8486 2.99951 12.9462 3.01894 13.0372 3.05668C13.1283 3.09443 13.211 3.14974 13.2806 3.21948L21 10.9398Z" fill="#FFB32C"/>
<path d="M23.25 19.5002H21.75V12.7502L21.9694 12.9696C22.1104 13.1103 22.3015 13.1893 22.5007 13.1891C22.6999 13.189 22.8908 13.1097 23.0316 12.9687C23.1723 12.8277 23.2513 12.6366 23.2511 12.4374C23.2509 12.2382 23.1716 12.0472 23.0306 11.9065L13.8103 2.68899C13.529 2.4079 13.1477 2.25 12.75 2.25C12.3523 2.25 11.971 2.4079 11.6897 2.68899L2.46938 11.9065C2.32877 12.0472 2.24983 12.238 2.24991 12.437C2.25 12.6359 2.32911 12.8267 2.46984 12.9673C2.61057 13.1079 2.8014 13.1868 3.00033 13.1867C3.19927 13.1866 3.39002 13.1075 3.53062 12.9668L3.75 12.7502V19.5002H2.25C2.05109 19.5002 1.86032 19.5793 1.71967 19.7199C1.57902 19.8606 1.5 20.0513 1.5 20.2502C1.5 20.4492 1.57902 20.6399 1.71967 20.7806C1.86032 20.9212 2.05109 21.0002 2.25 21.0002H23.25C23.4489 21.0002 23.6397 20.9212 23.7803 20.7806C23.921 20.6399 24 20.4492 24 20.2502C24 20.0513 23.921 19.8606 23.7803 19.7199C23.6397 19.5793 23.4489 19.5002 23.25 19.5002ZM5.25 11.2502L12.75 3.75024L20.25 11.2502V19.5002H15.75V14.2502C15.75 14.0513 15.671 13.8606 15.5303 13.7199C15.3897 13.5793 15.1989 13.5002 15 13.5002H10.5C10.3011 13.5002 10.1103 13.5793 9.96967 13.7199C9.82902 13.8606 9.75 14.0513 9.75 14.2502V19.5002H5.25V11.2502ZM14.25 19.5002H11.25V15.0002H14.25V19.5002Z" fill="#FFB32C"/>
</svg>
