<svg width="40" height="40" viewBox="0 0 40 40" fill="none" xmlns="http://www.w3.org/2000/svg">
<path d="M23 0.5C26.757 0.5 29.6252 0.498479 31.8447 0.796875C34.0787 1.09722 35.7308 1.7093 37.0107 2.98926C38.2907 4.26922 38.9028 5.92132 39.2031 8.15527C39.5015 10.3748 39.5 13.243 39.5 17V23C39.5 26.757 39.5015 29.6252 39.2031 31.8447C38.9028 34.0787 38.2907 35.7308 37.0107 37.0107C35.7308 38.2907 34.0787 38.9028 31.8447 39.2031C29.6252 39.5015 26.757 39.5 23 39.5H17C13.243 39.5 10.3748 39.5015 8.15527 39.2031C5.92132 38.9028 4.26922 38.2907 2.98926 37.0107C1.7093 35.7308 1.09722 34.0787 0.796875 31.8447C0.498479 29.6252 0.5 26.757 0.5 23V17C0.5 13.243 0.498479 10.3748 0.796875 8.15527C1.09722 5.92132 1.7093 4.26922 2.98926 2.98926C4.26922 1.7093 5.92132 1.09722 8.15527 0.796875C10.3748 0.498479 13.243 0.5 17 0.5H23Z" fill="#F9FAFB"/>
<path d="M23 0.5C26.757 0.5 29.6252 0.498479 31.8447 0.796875C34.0787 1.09722 35.7308 1.7093 37.0107 2.98926C38.2907 4.26922 38.9028 5.92132 39.2031 8.15527C39.5015 10.3748 39.5 13.243 39.5 17V23C39.5 26.757 39.5015 29.6252 39.2031 31.8447C38.9028 34.0787 38.2907 35.7308 37.0107 37.0107C35.7308 38.2907 34.0787 38.9028 31.8447 39.2031C29.6252 39.5015 26.757 39.5 23 39.5H17C13.243 39.5 10.3748 39.5015 8.15527 39.2031C5.92132 38.9028 4.26922 38.2907 2.98926 37.0107C1.7093 35.7308 1.09722 34.0787 0.796875 31.8447C0.498479 29.6252 0.5 26.757 0.5 23V17C0.5 13.243 0.498479 10.3748 0.796875 8.15527C1.09722 5.92132 1.7093 4.26922 2.98926 2.98926C4.26922 1.7093 5.92132 1.09722 8.15527 0.796875C10.3748 0.498479 13.243 0.5 17 0.5H23Z" stroke="#E5E7EB"/>
<path opacity="0.2" d="M15.625 29.25C15.625 29.7692 15.471 30.2767 15.1826 30.7084C14.8942 31.14 14.4842 31.4765 14.0045 31.6752C13.5249 31.8739 12.9971 31.9258 12.4879 31.8246C11.9787 31.7233 11.511 31.4733 11.1438 31.1062C10.7767 30.739 10.5267 30.2713 10.4254 29.7621C10.3242 29.2529 10.3761 28.7251 10.5748 28.2455C10.7735 27.7658 11.1099 27.3558 11.5416 27.0674C11.9733 26.779 12.4808 26.625 13 26.625C13.6962 26.625 14.3639 26.9016 14.8562 27.3938C15.3484 27.8861 15.625 28.5538 15.625 29.25ZM27 26.625C26.4808 26.625 25.9733 26.779 25.5416 27.0674C25.1099 27.3558 24.7735 27.7658 24.5748 28.2455C24.3761 28.7251 24.3242 29.2529 24.4254 29.7621C24.5267 30.2713 24.7767 30.739 25.1438 31.1062C25.511 31.4733 25.9787 31.7233 26.4879 31.8246C26.9971 31.9258 27.5249 31.8739 28.0045 31.6752C28.4842 31.4765 28.8942 31.14 29.1826 30.7084C29.471 30.2767 29.625 29.7692 29.625 29.25C29.625 28.5538 29.3484 27.8861 28.8562 27.3938C28.3639 26.9016 27.6962 26.625 27 26.625ZM23.7559 18.1309C23.592 17.9672 23.3697 17.8751 23.138 17.875H10.8431C10.699 17.8749 10.5571 17.9104 10.4301 17.9783C10.303 18.0463 10.1947 18.1445 10.1147 18.2644L6.875 23.125H28.75L23.7559 18.1309Z" fill="#FF6110"/>
<path d="M32.25 22.25H29.112L24.375 17.513C24.2131 17.3498 24.0203 17.2204 23.808 17.1323C23.5956 17.0442 23.3679 16.9993 23.138 17H10.8431C10.5557 17.0005 10.2728 17.0719 10.0195 17.2077C9.76613 17.3435 9.55016 17.5396 9.39062 17.7788L6.14656 22.6394C6.05124 22.7834 6.00029 22.9523 6 23.125V28.375C6 28.8391 6.18437 29.2843 6.51256 29.6124C6.84075 29.9406 7.28587 30.125 7.75 30.125H9.60938C9.80214 30.8779 10.24 31.5452 10.8539 32.0217C11.4678 32.4982 12.2229 32.7569 13 32.7569C13.7771 32.7569 14.5322 32.4982 15.1461 32.0217C15.76 31.5452 16.1979 30.8779 16.3906 30.125H23.6094C23.8021 30.8779 24.24 31.5452 24.8539 32.0217C25.4678 32.4982 26.2229 32.7569 27 32.7569C27.7771 32.7569 28.5322 32.4982 29.1461 32.0217C29.76 31.5452 30.1979 30.8779 30.3906 30.125H32.25C32.7141 30.125 33.1592 29.9406 33.4874 29.6124C33.8156 29.2843 34 28.8391 34 28.375V24C34 23.5359 33.8156 23.0908 33.4874 22.7626C33.1592 22.4344 32.7141 22.25 32.25 22.25ZM10.8431 18.75H23.138L26.638 22.25H8.51562L10.8431 18.75ZM13 31C12.6539 31 12.3155 30.8974 12.0278 30.7051C11.74 30.5128 11.5157 30.2395 11.3832 29.9197C11.2508 29.5999 11.2161 29.2481 11.2836 28.9086C11.3511 28.5691 11.5178 28.2573 11.7626 28.0126C12.0073 27.7678 12.3191 27.6012 12.6586 27.5336C12.9981 27.4661 13.3499 27.5008 13.6697 27.6332C13.9895 27.7657 14.2628 27.99 14.4551 28.2778C14.6474 28.5655 14.75 28.9039 14.75 29.25C14.75 29.7141 14.5656 30.1593 14.2374 30.4874C13.9092 30.8156 13.4641 31 13 31ZM27 31C26.6539 31 26.3155 30.8974 26.0278 30.7051C25.74 30.5128 25.5157 30.2395 25.3832 29.9197C25.2508 29.5999 25.2161 29.2481 25.2836 28.9086C25.3512 28.5691 25.5178 28.2573 25.7626 28.0126C26.0073 27.7678 26.3191 27.6012 26.6586 27.5336C26.9981 27.4661 27.3499 27.5008 27.6697 27.6332C27.9895 27.7657 28.2628 27.99 28.4551 28.2778C28.6474 28.5655 28.75 28.9039 28.75 29.25C28.75 29.7141 28.5656 30.1593 28.2374 30.4874C27.9092 30.8156 27.4641 31 27 31ZM32.25 28.375H30.3906C30.1979 27.6221 29.76 26.9549 29.1461 26.4783C28.5322 26.0018 27.7771 25.7431 27 25.7431C26.2229 25.7431 25.4678 26.0018 24.8539 26.4783C24.24 26.9549 23.8021 27.6221 23.6094 28.375H16.3906C16.1979 27.6221 15.76 26.9549 15.1461 26.4783C14.5322 26.0018 13.7771 25.7431 13 25.7431C12.2229 25.7431 11.4678 26.0018 10.8539 26.4783C10.24 26.9549 9.80214 27.6221 9.60938 28.375H7.75V24H32.25V28.375Z" fill="#FF6110"/>
<path d="M15.1875 9H24.8125" stroke="#FF6110" stroke-width="2" stroke-linecap="round" stroke-linejoin="round"/>
<path d="M20.875 5.0625L24.8125 9L20.875 12.9375" stroke="#FF6110" stroke-width="2" stroke-linecap="round" stroke-linejoin="round"/>
</svg>
