<svg width="25" height="24" viewBox="0 0 25 24" fill="none" xmlns="http://www.w3.org/2000/svg">
<path d="M21.8989 19.8751C20.4711 17.4067 18.2708 15.6367 15.7029 14.7976C16.9731 14.0415 17.9599 12.8893 18.5119 11.518C19.0639 10.1468 19.1504 8.63224 18.7583 7.20701C18.3662 5.78178 17.5171 4.52467 16.3414 3.62873C15.1656 2.73279 13.7283 2.24756 12.2501 2.24756C10.7719 2.24756 9.33463 2.73279 8.15891 3.62873C6.98318 4.52467 6.13406 5.78178 5.74195 7.20701C5.34984 8.63224 5.43641 10.1468 5.98837 11.518C6.54033 12.8893 7.52716 14.0415 8.79732 14.7976C6.22951 15.6357 4.02919 17.4057 2.60138 19.8751C2.54902 19.9605 2.51429 20.0555 2.49924 20.1545C2.48419 20.2535 2.48912 20.3545 2.51375 20.4516C2.53837 20.5487 2.58219 20.6399 2.64262 20.7197C2.70305 20.7996 2.77887 20.8666 2.86559 20.9167C2.95232 20.9667 3.0482 20.999 3.14758 21.0114C3.24695 21.0238 3.34782 21.0163 3.44421 20.9891C3.54061 20.9619 3.63059 20.9157 3.70884 20.8532C3.78709 20.7907 3.85203 20.7131 3.89982 20.6251C5.66607 17.5726 8.78794 15.7501 12.2501 15.7501C15.7123 15.7501 18.8342 17.5726 20.6004 20.6251C20.6482 20.7131 20.7132 20.7907 20.7914 20.8532C20.8697 20.9157 20.9597 20.9619 21.056 20.9891C21.1524 21.0163 21.2533 21.0238 21.3527 21.0114C21.4521 20.999 21.5479 20.9667 21.6347 20.9167C21.7214 20.8666 21.7972 20.7996 21.8576 20.7197C21.9181 20.6399 21.9619 20.5487 21.9865 20.4516C22.0111 20.3545 22.0161 20.2535 22.001 20.1545C21.986 20.0555 21.9512 19.9605 21.8989 19.8751ZM7.00013 9.00011C7.00013 7.96176 7.30804 6.94672 7.88492 6.08337C8.46179 5.22001 9.28173 4.5471 10.241 4.14974C11.2004 3.75238 12.256 3.64841 13.2744 3.85099C14.2928 4.05356 15.2282 4.55357 15.9624 5.2878C16.6967 6.02202 17.1967 6.95748 17.3993 7.97589C17.6018 8.99429 17.4979 10.0499 17.1005 11.0092C16.7031 11.9685 16.0302 12.7884 15.1669 13.3653C14.3035 13.9422 13.2885 14.2501 12.2501 14.2501C10.8582 14.2486 9.52371 13.695 8.53947 12.7108C7.55522 11.7265 7.00162 10.392 7.00013 9.00011Z" fill="#6B7280"/>
</svg>
