<svg width="42" height="42" viewBox="0 0 42 42" fill="none" xmlns="http://www.w3.org/2000/svg">
<g clip-path="url(#clip0_401_4233)">
<path d="M41.1598 7.55984V34.4398C41.1598 38.1358 38.1358 41.1598 34.4398 41.1598H7.22384C3.69584 40.9918 0.839844 37.9678 0.839844 34.4398V7.55984C0.839844 3.86384 3.86384 0.839844 7.55984 0.839844H34.4398C38.1358 0.839844 41.1598 3.86384 41.1598 7.55984Z" fill="#F3F4F6"/>
<path d="M28.8958 41.16H7.55984C3.86384 41.16 0.839844 38.136 0.839844 34.44V28.896L4.70384 25.032C6.88784 22.848 10.5838 22.848 12.7678 25.032L28.8958 41.16Z" fill="#D1D5DB"/>
<path d="M41.1596 24.8638V34.4398C41.1596 38.1358 38.1356 41.1598 34.4396 41.1598H7.22363L28.2236 19.9918C30.4076 17.8078 34.1036 17.8078 36.2876 19.9918L41.1596 24.8638ZM25.3676 11.4238H22.6796V18.3118C22.6796 19.3198 21.8396 19.9918 20.9996 19.9918C20.1596 19.9918 19.3196 19.3198 19.3196 18.3118V11.4238H16.6316C15.6236 11.4238 14.9516 10.2478 15.6236 9.4078L19.9916 4.1998C20.4956 3.5278 21.5036 3.5278 21.8396 4.1998L26.2076 9.5758C26.8796 10.2478 26.3756 11.4238 25.3676 11.4238Z" fill="#9CA3AF"/>
</g>
<defs>
<clipPath id="clip0_401_4233">
<rect width="40.32" height="40.32" fill="white" transform="translate(0.839844 0.839844)"/>
</clipPath>
</defs>
</svg>
