<svg width="25" height="24" viewBox="0 0 25 24" fill="none" xmlns="http://www.w3.org/2000/svg">
<path d="M20.25 4.5H5.25C4.65326 4.5 4.08097 4.73705 3.65901 5.15901C3.23705 5.58097 3 6.15326 3 6.75V17.25C3 17.8467 3.23705 18.419 3.65901 18.841C4.08097 19.2629 4.65326 19.5 5.25 19.5H20.25C20.8467 19.5 21.419 19.2629 21.841 18.841C22.2629 18.419 22.5 17.8467 22.5 17.25V6.75C22.5 6.15326 22.2629 5.58097 21.841 5.15901C21.419 4.73705 20.8467 4.5 20.25 4.5ZM4.5 9H21V10.5H15.75C15.5511 10.5 15.3603 10.579 15.2197 10.7197C15.079 10.8603 15 11.0511 15 11.25C15 11.8467 14.7629 12.419 14.341 12.841C13.919 13.2629 13.3467 13.5 12.75 13.5C12.1533 13.5 11.581 13.2629 11.159 12.841C10.7371 12.419 10.5 11.8467 10.5 11.25C10.5 11.0511 10.421 10.8603 10.2803 10.7197C10.1397 10.579 9.94891 10.5 9.75 10.5H4.5V9ZM5.25 6H20.25C20.4489 6 20.6397 6.07902 20.7803 6.21967C20.921 6.36032 21 6.55109 21 6.75V7.5H4.5V6.75C4.5 6.55109 4.57902 6.36032 4.71967 6.21967C4.86032 6.07902 5.05109 6 5.25 6ZM20.25 18H5.25C5.05109 18 4.86032 17.921 4.71967 17.7803C4.57902 17.6397 4.5 17.4489 4.5 17.25V12H9.075C9.24714 12.8477 9.70705 13.6099 10.3768 14.1573C11.0466 14.7047 11.885 15.0038 12.75 15.0038C13.615 15.0038 14.4534 14.7047 15.1232 14.1573C15.793 13.6099 16.2529 12.8477 16.425 12H21V17.25C21 17.4489 20.921 17.6397 20.7803 17.7803C20.6397 17.921 20.4489 18 20.25 18Z" fill="#6B7280"/>
</svg>
