<svg width="20" height="16" viewBox="0 0 20 16" fill="none" xmlns="http://www.w3.org/2000/svg">
<path d="M17.25 0.5H2.25C1.65326 0.5 1.08097 0.737053 0.65901 1.15901C0.237053 1.58097 0 2.15326 0 2.75V13.25C0 13.8467 0.237053 14.419 0.65901 14.841C1.08097 15.2629 1.65326 15.5 2.25 15.5H17.25C17.8467 15.5 18.419 15.2629 18.841 14.841C19.2629 14.419 19.5 13.8467 19.5 13.25V2.75C19.5 2.15326 19.2629 1.58097 18.841 1.15901C18.419 0.737053 17.8467 0.5 17.25 0.5ZM1.5 5H18V6.5H12.75C12.5511 6.5 12.3603 6.57902 12.2197 6.71967C12.079 6.86032 12 7.05109 12 7.25C12 7.84674 11.7629 8.41903 11.341 8.84099C10.919 9.26295 10.3467 9.5 9.75 9.5C9.15326 9.5 8.58097 9.26295 8.15901 8.84099C7.73705 8.41903 7.5 7.84674 7.5 7.25C7.5 7.05109 7.42098 6.86032 7.28033 6.71967C7.13968 6.57902 6.94891 6.5 6.75 6.5H1.5V5ZM2.25 2H17.25C17.4489 2 17.6397 2.07902 17.7803 2.21967C17.921 2.36032 18 2.55109 18 2.75V3.5H1.5V2.75C1.5 2.55109 1.57902 2.36032 1.71967 2.21967C1.86032 2.07902 2.05109 2 2.25 2ZM17.25 14H2.25C2.05109 14 1.86032 13.921 1.71967 13.7803C1.57902 13.6397 1.5 13.4489 1.5 13.25V8H6.075C6.24714 8.84772 6.70705 9.60986 7.37681 10.1573C8.04657 10.7047 8.88498 11.0038 9.75 11.0038C10.615 11.0038 11.4534 10.7047 12.1232 10.1573C12.793 9.60986 13.2529 8.84772 13.425 8H18V13.25C18 13.4489 17.921 13.6397 17.7803 13.7803C17.6397 13.921 17.4489 14 17.25 14Z" fill="#6B7280"/>
</svg>
